<?xml version="1.0" encoding="UTF-8" standalone="no"?>
<!DOCTYPE svg PUBLIC "-//W3C//DTD SVG 1.1//EN" "http://www.w3.org/Graphics/SVG/1.1/DTD/svg11.dtd">
<svg xmlns="http://www.w3.org/2000/svg" version="1.1" viewBox="0.00 0.00 1755.00 1792.00">
<g stroke-width="0.00" fill="none" stroke-linecap="butt">
<path stroke="#2f0d51" vector-effect="non-scaling-stroke" d="
  M 655.74 0.00
  Q 652.96 16.30 645.96 31.34
  Q 633.53 58.03 620.11 82.49
  C 614.63 92.48 607.73 103.90 598.28 110.81
  Q 592.78 114.83 589.90 117.30
  Q 579.91 125.85 567.05 134.80
  C 561.81 138.45 556.48 143.10 552.09 146.94
  C 540.33 157.24 526.48 164.81 511.58 169.24
  C 507.60 170.42 503.22 171.99 500.85 173.87
  C 496.50 177.33 492.99 180.74 488.14 183.71
  Q 478.15 189.84 467.94 193.27
  C 461.48 195.45 456.06 195.89 449.26 196.26
  C 444.70 196.51 440.39 198.20 437.69 201.36
  C 429.54 210.92 420.70 212.41 409.04 213.71
  C 404.09 214.27 399.78 215.87 395.57 217.56
  Q 391.00 219.40 385.34 218.19
  Q 383.40 217.77 380.14 218.90
  Q 370.11 222.37 356.16 225.24
  Q 354.53 225.58 347.09 226.20
  A 15.27 15.19 -55.0 0 0 344.47 226.67
  C 337.83 228.48 334.21 229.54 328.22 230.58
  Q 312.02 233.40 311.12 233.59
  C 304.63 234.99 298.41 237.37 292.63 238.59
  C 287.39 239.70 284.35 242.74 280.67 246.91
  C 273.12 255.48 264.93 254.59 254.06 254.36
  C 249.50 254.26 241.21 254.85 236.30 257.47
  C 233.95 258.72 231.93 259.20 229.44 259.13
  Q 214.58 258.68 200.54 259.37
  A 3.10 3.08 -21.5 0 1 198.05 258.30
  Q 195.37 255.18 190.67 254.85
  Q 186.17 254.53 174.09 255.42
  C 169.87 255.73 165.19 255.71 161.58 254.55
  Q 160.39 254.17 154.00 251.48
  A 11.23 10.76 60.9 0 0 151.82 250.81
  C 145.32 249.54 137.56 248.79 130.88 247.17
  C 122.34 245.11 114.61 242.76 106.01 242.47
  Q 95.00 242.08 86.50 241.58
  C 76.60 240.99 67.09 242.75 57.83 240.41
  C 51.68 238.85 46.08 236.85 39.04 235.64
  Q 30.93 234.25 22.83 232.79
  Q 13.98 231.20 0.00 225.18"
/>
<path stroke="#340f49" vector-effect="non-scaling-stroke" d="
  M 811.25 0.00
  C 810.60 9.04 806.55 17.27 800.92 24.30
  Q 788.53 39.75 777.45 56.28
  C 775.28 59.53 772.01 63.67 769.65 66.35
  Q 751.91 86.52 738.14 103.74
  Q 736.96 105.23 729.84 111.72
  Q 727.17 114.15 721.58 119.73
  Q 710.51 130.77 704.13 136.44
  Q 696.87 142.89 690.19 147.04
  Q 687.77 148.55 686.64 150.42
  Q 683.09 156.32 679.09 160.25
  Q 677.02 162.28 662.04 176.86
  C 647.26 191.25 630.99 202.53 615.02 214.66
  C 607.22 220.59 595.73 232.92 585.07 239.32
  Q 563.08 252.53 536.06 266.80
  C 522.80 273.80 511.44 277.74 494.85 283.99
  Q 485.17 287.64 478.01 291.72
  Q 448.48 308.55 415.04 319.15
  C 397.05 324.85 384.67 328.20 367.74 333.69
  Q 347.64 340.22 330.92 344.36
  Q 311.09 349.27 300.96 352.01
  Q 286.94 355.80 277.05 357.63
  Q 256.69 361.40 252.85 361.86
  C 243.15 363.03 235.49 363.56 226.55 365.52
  C 215.88 367.87 206.54 368.95 196.41 368.39
  C 189.85 368.03 185.24 369.16 178.91 370.25
  C 174.03 371.10 174.02 367.63 172.55 364.38
  C 170.91 360.75 166.21 360.24 162.60 360.01
  Q 150.57 359.24 123.46 358.44
  Q 117.77 358.28 103.27 356.62
  Q 60.74 351.77 20.10 343.92
  Q 12.02 342.36 0.00 338.09"
/>
<path stroke="#381141" vector-effect="non-scaling-stroke" d="
  M 1001.92 0.00
  Q 999.71 13.66 992.54 26.50
  Q 982.73 44.08 969.99 60.59
  C 945.14 92.80 916.60 122.33 887.56 150.89
  C 873.38 164.84 856.87 183.54 844.31 197.03
  Q 830.46 211.90 812.45 228.31
  C 806.96 233.30 800.35 237.71 795.04 242.13
  C 787.90 248.05 779.76 257.22 770.97 263.53
  Q 762.72 269.47 742.79 282.86
  Q 735.84 287.54 719.77 301.60
  C 716.61 304.36 712.50 307.51 710.26 308.91
  Q 695.78 317.95 681.98 327.06
  C 672.29 333.46 663.88 340.95 653.55 347.60
  Q 643.15 354.29 626.34 365.36
  C 620.38 369.29 613.35 374.95 606.86 379.24
  Q 599.36 384.20 584.47 394.73
  C 581.98 396.49 578.62 398.46 576.02 399.81
  Q 556.34 410.11 543.49 417.01
  C 532.68 422.82 523.37 429.79 515.50 435.36
  Q 506.89 441.46 501.99 444.07
  C 486.65 452.23 471.31 460.20 455.31 470.07
  Q 448.37 474.36 443.68 476.24
  C 430.73 481.43 417.87 486.81 407.27 494.35
  C 402.75 497.57 398.47 501.06 393.58 503.07
  C 384.39 506.86 379.48 508.74 371.79 512.55
  C 363.59 516.61 358.39 519.27 351.50 521.88
  C 344.92 524.37 339.57 526.28 331.88 529.42
  Q 323.12 532.99 320.89 533.65
  C 309.05 537.13 300.57 539.31 292.31 544.74
  Q 289.39 546.66 282.83 551.40
  A 13.50 13.42 -69.9 0 1 278.27 553.53
  C 273.63 554.71 271.03 555.25 267.66 556.62
  C 259.05 560.10 249.04 565.98 239.52 567.06
  C 233.85 567.70 227.40 567.41 221.50 568.60
  C 213.02 570.32 205.87 573.74 195.77 577.91
  Q 187.96 581.13 182.12 581.48
  C 169.73 582.21 162.06 582.39 151.59 584.68
  Q 134.48 588.43 119.48 589.98
  Q 114.72 590.47 105.60 592.06
  Q 100.31 592.98 91.65 593.44
  C 84.24 593.83 76.72 596.43 69.47 595.66
  C 57.78 594.41 48.43 594.89 36.22 595.53
  C 31.26 595.80 23.37 593.58 16.61 593.88
  C 8.11 594.27 5.11 590.29 0.00 584.33"
/>
<path stroke="#3b133a" vector-effect="non-scaling-stroke" d="
  M 1178.04 0.00
  Q 1175.05 12.66 1164.70 23.33
  C 1156.05 32.26 1146.86 41.32 1139.01 50.33
  C 1130.14 60.53 1122.53 68.88 1112.83 77.70
  Q 1090.36 98.16 1072.65 115.13
  C 1066.02 121.49 1058.89 127.70 1052.40 133.31
  C 1038.86 145.00 1030.81 151.54 1017.21 164.20
  Q 1003.77 176.72 986.07 191.16
  Q 973.80 201.19 949.41 221.48
  C 925.99 240.97 904.11 255.35 875.96 274.40
  C 870.69 277.96 864.16 282.75 860.84 285.46
  Q 847.21 296.58 822.63 315.70
  C 812.58 323.52 802.00 330.35 792.29 338.51
  C 788.78 341.46 784.74 343.85 780.80 346.33
  C 771.89 351.97 762.59 360.48 753.03 366.93
  Q 740.23 375.57 731.60 382.71
  C 718.27 393.70 709.73 399.23 693.47 410.98
  C 684.47 417.49 679.35 425.07 671.73 435.36
  Q 663.84 446.02 650.03 459.86
  Q 645.45 464.46 642.99 467.35
  Q 637.13 474.24 636.20 475.06
  Q 631.41 479.29 621.29 487.40
  C 616.91 490.90 610.53 494.13 606.89 495.96
  Q 604.90 496.97 598.63 501.76
  C 591.14 507.48 582.17 513.18 575.09 517.43
  C 570.91 519.95 568.18 522.22 563.91 525.30
  Q 558.48 529.21 551.42 532.30
  Q 548.35 533.64 544.13 537.64
  C 536.86 544.52 529.26 550.75 521.51 557.54
  A 12.97 12.85 -80.8 0 1 519.81 558.78
  C 518.46 559.59 516.81 560.65 515.86 561.05
  Q 505.07 565.58 500.55 568.23
  Q 498.34 569.52 491.14 574.11
  C 484.79 578.15 475.89 582.23 469.96 586.30
  Q 461.51 592.08 455.17 597.85
  C 448.50 603.93 442.58 609.78 435.83 614.92
  Q 423.62 624.22 417.90 628.37
  C 409.79 634.25 399.10 637.57 393.03 640.06
  C 385.87 643.00 381.00 646.65 372.44 652.48
  C 370.32 653.92 366.89 655.57 364.01 656.61
  C 357.32 659.04 351.71 661.42 346.23 663.20
  Q 345.09 663.57 343.77 663.71
  Q 332.68 664.94 324.16 670.06
  C 318.72 673.33 314.40 676.53 308.59 679.79
  Q 305.12 681.73 300.97 685.18
  A 12.27 12.17 -72.8 0 1 296.62 687.50
  Q 294.23 688.20 286.66 690.18
  C 276.01 692.96 264.77 699.76 251.97 707.17
  Q 246.55 710.31 237.84 714.21
  Q 220.06 722.17 195.88 727.06
  Q 183.51 729.56 166.03 736.72
  Q 163.89 737.60 160.25 739.71
  C 155.11 742.68 151.30 745.14 146.04 747.62
  Q 140.38 750.29 133.68 753.24
  Q 124.23 757.41 112.65 757.47
  C 104.04 757.52 94.45 758.48 86.21 756.94
  C 78.69 755.54 73.62 754.27 66.75 756.16
  C 58.24 758.50 49.14 763.31 42.80 766.26
  Q 37.52 768.72 31.70 770.46
  C 23.25 773.00 17.13 774.64 11.31 779.29
  Q 10.10 780.26 7.03 784.96
  Q 4.07 789.49 0.00 793.13"
/>
<path stroke="#3e1534" vector-effect="non-scaling-stroke" d="
  M 1385.06 0.00
  C 1381.12 5.39 1379.62 10.54 1380.08 17.28
  Q 1380.32 20.84 1379.25 22.49
  C 1376.66 26.43 1371.56 24.08 1368.19 22.79
  C 1362.68 20.67 1357.77 21.67 1352.82 25.26
  C 1349.35 27.78 1335.37 39.69 1336.25 44.49
  Q 1337.26 49.99 1337.62 53.55
  A 5.10 5.08 -59.9 0 0 1338.04 55.14
  L 1338.97 57.18
  A 1.82 1.79 -49.5 0 1 1339.06 58.44
  C 1337.36 64.43 1328.45 67.09 1324.57 71.73
  Q 1319.69 77.57 1316.85 83.86
  C 1315.29 87.31 1315.54 90.22 1315.77 94.12
  C 1316.24 101.80 1307.51 101.41 1303.37 105.57
  Q 1300.11 108.85 1298.18 112.40
  A 1.49 1.48 26.7 0 0 1298.87 114.46
  C 1302.85 116.27 1305.76 116.99 1307.15 119.66
  A 1.19 1.13 60.5 0 1 1306.77 121.19
  Q 1306.12 121.58 1305.44 121.40
  C 1301.70 120.42 1290.69 116.93 1289.68 123.30
  Q 1289.05 127.26 1289.01 127.53
  A 2.86 2.68 -27.2 0 1 1288.71 128.37
  C 1287.17 131.23 1284.92 132.52 1281.79 134.76
  C 1277.66 137.72 1274.55 141.41 1271.87 145.81
  C 1268.74 150.94 1265.66 154.25 1261.16 156.07
  Q 1246.34 162.04 1245.25 162.57
  C 1240.59 164.86 1238.55 166.27 1233.11 170.05
  C 1229.71 172.41 1226.09 173.70 1222.86 175.30
  C 1215.16 179.10 1208.77 185.20 1201.67 191.97
  Q 1197.25 196.18 1191.77 198.97
  Q 1190.88 199.42 1190.18 200.69
  C 1189.12 202.64 1187.84 203.25 1185.60 203.43
  C 1180.34 203.86 1176.32 204.69 1171.93 206.84
  C 1158.49 213.42 1148.21 218.44 1137.44 226.24
  Q 1134.02 228.72 1124.23 235.55
  Q 1120.38 238.23 1118.28 239.26
  C 1106.83 244.90 1100.52 249.50 1087.05 258.93
  C 1079.06 264.52 1063.46 271.99 1053.13 279.25
  Q 1050.01 281.44 1039.83 288.82
  Q 1028.21 297.23 1014.47 303.81
  Q 1011.98 305.00 1010.13 306.94
  Q 1006.83 310.42 1002.35 312.84
  Q 988.27 320.46 984.13 323.00
  Q 975.54 328.28 964.80 338.13
  C 958.42 343.98 949.38 347.05 943.39 350.13
  Q 928.30 357.87 916.39 365.88
  C 910.33 369.95 905.04 375.03 899.71 379.15
  Q 893.75 383.76 890.44 385.27
  Q 873.14 393.19 862.49 401.62
  Q 839.66 419.70 834.11 423.39
  C 832.34 424.56 830.85 426.20 828.93 427.96
  Q 828.03 428.79 814.80 442.49
  C 810.28 447.17 805.15 451.51 799.77 452.74
  C 793.84 454.10 787.23 456.47 784.25 461.77
  C 783.37 463.34 783.58 466.02 783.35 467.58
  A 5.76 5.70 63.1 0 1 782.77 469.38
  C 780.04 474.67 773.89 478.34 768.36 482.17
  C 765.71 484.02 762.31 487.08 759.59 489.60
  C 756.25 492.69 751.64 494.66 747.71 497.30
  C 740.95 501.85 733.74 506.28 730.18 511.75
  C 724.79 520.05 721.01 525.90 713.77 529.34
  C 705.37 533.33 700.44 534.86 696.48 539.78
  Q 693.77 543.16 687.93 551.04
  Q 685.88 553.80 676.47 563.52
  C 674.35 565.72 672.30 567.91 669.63 569.13
  C 661.50 572.86 656.43 575.08 650.94 581.29
  Q 638.57 595.28 633.83 600.52
  Q 624.91 610.38 616.19 620.44
  C 609.26 628.43 602.81 634.25 596.51 642.23
  Q 588.17 652.80 586.83 654.71
  C 583.41 659.56 578.65 666.85 573.53 672.66
  Q 568.65 678.21 567.56 679.72
  Q 556.76 694.74 554.30 698.61
  Q 548.81 707.25 542.61 714.84
  C 538.22 720.21 532.51 728.72 525.71 738.28
  Q 523.08 741.96 521.72 745.75
  C 519.15 752.89 515.15 767.60 508.30 769.46
  C 507.00 769.82 505.22 769.24 503.72 768.88
  C 500.54 768.10 497.85 769.08 495.91 771.88
  Q 493.83 774.88 494.67 777.62
  C 495.28 779.60 497.29 780.98 498.38 782.27
  A 2.50 2.50 0.0 0 1 498.40 785.47
  C 495.64 788.83 491.48 789.65 486.08 790.68
  C 476.56 792.49 470.73 799.35 463.97 806.64
  C 459.73 811.21 453.41 816.15 446.96 819.26
  C 441.09 822.10 437.24 823.77 433.57 828.15
  Q 432.35 829.61 430.88 834.80
  Q 429.31 840.30 426.59 844.66
  C 419.88 855.38 410.58 867.54 405.40 880.06
  Q 402.31 887.54 401.40 889.59
  A 5.31 5.30 88.3 0 1 398.96 892.18
  C 395.95 893.73 393.55 893.08 390.62 896.35
  Q 385.23 902.36 377.60 910.15
  C 372.69 915.17 369.57 920.92 366.65 925.23
  A 15.92 15.47 -6.8 0 1 365.02 927.24
  Q 362.38 929.97 355.15 936.59
  Q 352.13 939.35 350.63 943.12
  C 346.28 954.06 373.03 947.80 375.96 946.73
  C 381.51 944.72 387.30 941.85 392.15 943.83
  A 2.58 2.58 0.0 0 1 393.64 947.00
  L 393.24 948.26
  A 2.63 2.62 -59.9 0 0 393.96 950.99
  C 397.74 954.51 400.82 957.27 403.18 961.31
  Q 407.13 968.08 409.32 975.33
  Q 412.49 985.88 416.25 997.77
  C 417.46 1001.59 419.00 1007.63 419.05 1010.81
  C 419.15 1016.82 418.85 1021.14 421.85 1025.51
  Q 423.23 1027.52 428.82 1034.53
  A 3.78 3.65 -77.7 0 1 429.29 1035.29
  C 431.03 1038.99 431.45 1043.97 432.54 1048.26
  C 433.67 1052.64 436.60 1060.88 437.45 1066.78
  C 438.76 1075.83 438.39 1084.54 438.04 1092.71
  Q 437.86 1096.92 438.28 1101.67
  Q 438.91 1108.93 439.34 1110.55
  Q 444.66 1130.58 446.97 1140.48
  Q 448.50 1147.05 454.00 1148.70
  Q 465.55 1152.17 470.57 1154.41
  Q 475.48 1156.61 479.06 1156.70
  Q 492.64 1157.02 498.50 1157.94
  Q 508.45 1159.51 525.19 1162.52
  C 535.26 1164.33 540.46 1169.71 546.18 1178.23
  C 549.14 1182.65 549.51 1188.23 552.87 1192.47
  Q 553.00 1192.64 561.08 1203.38
  C 566.30 1210.31 568.73 1217.18 571.28 1225.71
  Q 573.44 1232.93 579.48 1237.16
  C 594.45 1247.65 608.22 1260.85 620.63 1273.67
  C 625.17 1278.36 630.54 1282.93 634.86 1286.07
  Q 645.91 1294.13 659.58 1303.99
  Q 665.83 1308.51 680.55 1316.38
  C 686.30 1319.46 693.02 1320.46 698.47 1323.42
  Q 700.96 1324.77 709.20 1330.20
  C 712.95 1332.66 717.79 1333.83 721.50 1336.08
  Q 723.55 1337.33 727.33 1339.39
  Q 728.72 1340.15 733.70 1340.64
  A 13.53 10.00 11.7 0 1 735.59 1340.92
  C 736.87 1341.18 738.37 1341.55 739.44 1342.01
  C 745.27 1344.48 748.39 1345.91 753.31 1347.35
  C 764.86 1350.72 772.90 1354.27 781.33 1352.46
  C 788.33 1350.95 793.47 1350.24 799.91 1353.16
  C 802.08 1354.14 804.42 1356.49 807.06 1356.99
  Q 807.99 1357.16 811.67 1356.99
  A 16.77 15.89 -41.6 0 1 814.41 1357.08
  C 823.05 1358.06 829.33 1358.19 836.83 1359.76
  C 841.91 1360.83 847.10 1360.98 851.81 1362.49
  Q 857.61 1364.36 861.07 1365.00
  A 6.57 6.57 0.0 0 0 864.04 1364.87
  C 867.78 1363.82 869.75 1363.11 873.77 1362.91
  Q 875.48 1362.83 886.54 1363.37
  Q 888.34 1363.46 890.46 1362.96
  Q 899.30 1360.88 900.61 1360.58
  Q 906.43 1359.25 916.96 1360.48
  Q 919.86 1360.82 920.73 1360.83
  C 925.41 1360.90 929.82 1359.20 934.08 1358.27
  Q 941.76 1356.61 947.40 1357.03
  C 951.06 1357.30 952.97 1358.52 955.84 1360.43
  A 2.26 2.26 0.0 0 0 958.81 1360.01
  C 967.26 1350.08 975.93 1346.42 988.29 1353.08
  Q 989.34 1353.64 1000.80 1360.92
  Q 1009.51 1366.45 1023.80 1370.95
  C 1029.69 1372.81 1035.77 1371.82 1041.69 1368.68
  C 1051.60 1363.45 1061.28 1360.29 1072.96 1360.10
  C 1081.52 1359.95 1090.18 1360.36 1099.23 1359.50
  C 1111.90 1358.31 1126.22 1355.82 1139.59 1358.27
  A 8.19 8.09 47.2 0 0 1141.86 1358.37
  C 1151.55 1357.42 1160.84 1353.37 1168.47 1347.21
  C 1182.91 1335.55 1202.82 1319.37 1219.70 1303.63
  C 1228.31 1295.61 1236.55 1288.92 1244.86 1280.63
  C 1250.61 1274.91 1254.26 1271.22 1259.12 1267.32
  Q 1266.16 1261.66 1268.53 1259.14
  Q 1273.38 1254.00 1281.51 1243.62
  C 1291.75 1230.56 1302.84 1222.46 1317.67 1212.70
  C 1331.87 1203.35 1348.33 1194.72 1365.25 1191.95
  A 4.21 4.20 -85.9 0 0 1368.57 1189.07
  L 1369.42 1186.41
  A 1.31 1.30 -9.4 0 1 1369.92 1185.72
  C 1372.98 1183.60 1375.06 1189.51 1376.09 1191.98
  A 1.87 1.87 0.0 0 0 1379.05 1192.66
  C 1381.54 1190.48 1381.54 1186.69 1382.08 1182.57
  Q 1382.92 1176.11 1388.43 1171.73
  Q 1391.73 1169.11 1398.77 1161.74
  Q 1401.91 1158.44 1407.81 1157.04
  C 1409.62 1156.61 1412.53 1157.15 1414.58 1156.70
  A 3.08 3.08 0.0 0 0 1416.95 1154.25
  C 1417.73 1149.98 1418.23 1147.42 1420.79 1144.16
  C 1424.93 1138.89 1429.07 1134.99 1434.67 1132.29
  C 1438.44 1130.47 1441.38 1128.58 1442.80 1125.46
  C 1447.11 1116.00 1454.90 1106.24 1465.53 1103.93
  Q 1468.82 1103.22 1470.09 1103.22
  Q 1481.98 1103.27 1492.63 1099.58
  C 1497.26 1097.97 1500.11 1094.50 1503.93 1090.35
  C 1508.08 1085.84 1514.18 1080.42 1518.05 1075.81
  C 1523.25 1069.58 1527.15 1062.12 1530.59 1054.06
  C 1533.28 1047.77 1536.14 1043.29 1540.36 1038.04
  C 1544.60 1032.76 1549.35 1024.15 1552.49 1020.57
  C 1563.16 1008.38 1570.14 1000.85 1576.03 990.57
  C 1585.25 974.47 1590.09 966.00 1598.06 954.64
  C 1604.16 945.94 1608.63 939.26 1613.52 935.29
  C 1620.42 929.70 1626.00 925.33 1628.83 919.28
  C 1633.03 910.34 1634.42 905.47 1639.68 900.35
  A 10.79 10.57 86.7 0 0 1640.85 899.01
  C 1644.79 893.73 1647.14 890.11 1651.66 886.60
  C 1656.43 882.89 1655.56 872.26 1652.66 867.83
  C 1651.02 865.32 1649.45 863.46 1649.02 860.86
  C 1647.89 854.08 1653.82 845.69 1657.73 840.44
  C 1664.04 831.97 1670.11 823.88 1673.97 814.80
  Q 1684.06 791.08 1698.03 769.24
  C 1702.31 762.55 1708.10 757.70 1715.79 756.10
  C 1719.40 755.34 1723.24 757.78 1725.28 752.60
  Q 1726.60 749.23 1729.22 742.88
  Q 1731.16 738.16 1734.32 736.66
  Q 1738.41 734.72 1742.60 732.68
  Q 1746.89 730.60 1754.23 723.72
  A 1.18 1.18 0.0 0 0 1754.60 722.86
  L 1755.00 570.62"
/>
<path stroke="#361838" vector-effect="non-scaling-stroke" d="
  M 452.87 1792.00
  C 444.16 1790.07 431.64 1789.62 429.17 1778.63
  C 427.24 1770.11 434.08 1765.32 437.41 1759.14
  C 443.27 1748.22 422.93 1745.79 431.83 1736.36
  C 436.43 1731.49 441.23 1727.39 444.01 1720.28
  C 447.99 1710.11 442.37 1697.83 437.74 1689.18
  C 434.69 1683.46 430.14 1683.09 424.15 1682.31
  C 419.76 1681.74 418.61 1677.58 416.96 1675.49
  A 13.75 13.72 -87.7 0 0 415.47 1673.87
  Q 415.04 1673.47 409.27 1669.43
  C 406.84 1667.73 406.26 1665.36 407.76 1662.87
  C 410.14 1658.93 409.27 1656.27 406.33 1653.03
  Q 401.05 1647.21 396.48 1641.81
  C 394.88 1639.92 393.88 1637.95 392.16 1634.89
  A 6.35 6.23 8.6 0 0 391.16 1633.56
  C 387.11 1629.50 383.47 1626.33 378.38 1621.11
  C 373.99 1616.62 369.52 1614.71 365.33 1611.92
  A 2.97 2.97 0.0 0 1 364.21 1608.36
  C 365.35 1605.45 367.55 1602.00 364.02 1600.45
  C 362.27 1599.68 360.29 1600.17 357.68 1600.42
  A 2.35 2.34 78.6 0 1 355.22 1598.78
  C 354.18 1595.44 354.95 1591.24 356.38 1587.98
  C 357.64 1585.10 357.10 1582.65 355.35 1580.51
  Q 350.69 1574.84 349.88 1573.63
  A 9.02 8.95 -71.3 0 1 348.84 1571.51
  C 346.97 1565.93 345.60 1562.52 342.60 1558.33
  Q 330.86 1541.97 321.84 1531.52
  Q 319.86 1529.22 319.81 1528.12
  A 3.68 3.53 -40.0 0 1 319.92 1527.09
  Q 320.02 1526.72 321.10 1525.29
  C 322.53 1523.41 322.34 1521.29 321.28 1519.40
  Q 320.53 1518.08 309.80 1501.07
  C 307.78 1497.87 304.73 1494.53 303.45 1492.80
  Q 302.57 1491.62 292.04 1480.85
  C 286.67 1475.37 282.19 1469.84 276.71 1463.63
  Q 272.06 1458.37 266.03 1454.75
  C 262.51 1452.64 260.13 1450.63 257.96 1447.57
  Q 253.31 1441.02 250.43 1437.52
  C 243.17 1428.70 225.97 1413.90 213.30 1417.75
  Q 210.63 1418.56 207.49 1420.46
  A 1.50 1.50 0.0 0 1 205.22 1419.26
  Q 204.84 1412.07 204.81 1411.67
  C 204.43 1406.86 202.91 1403.41 200.55 1399.05
  C 198.60 1395.44 197.38 1390.34 196.23 1386.48
  C 195.19 1382.97 195.39 1380.15 194.96 1376.49
  Q 194.02 1368.45 187.24 1364.27
  C 184.85 1362.80 181.39 1361.98 179.43 1361.03
  A 5.55 5.50 -1.3 0 1 176.98 1358.71
  C 175.19 1355.43 174.78 1352.74 170.65 1349.71
  C 164.26 1345.03 158.26 1337.65 150.33 1334.08
  C 142.60 1330.59 139.64 1328.03 130.84 1321.55
  C 119.24 1313.01 104.32 1309.11 86.71 1303.52
  C 80.47 1301.53 74.38 1299.04 69.53 1296.02
  C 63.61 1292.33 56.79 1286.64 50.36 1282.56
  C 42.44 1277.54 39.46 1275.71 31.75 1269.27
  Q 27.28 1265.53 18.50 1262.01
  C 13.29 1259.92 11.72 1264.38 9.95 1268.36
  C 8.06 1272.62 4.46 1275.25 0.00 1276.48"
/>
<path stroke="#39153c" vector-effect="non-scaling-stroke" d="
  M 1738.60 1787.69
  A 1.94 1.59 -34.0 0 0 1741.16 1787.93
  C 1751.88 1780.31 1753.89 1764.12 1751.52 1752.06
  C 1751.14 1750.14 1749.91 1745.58 1747.93 1744.78
  A 2.35 2.17 -64.5 0 0 1745.14 1745.89
  C 1741.50 1752.51 1741.27 1761.12 1740.75 1768.98
  C 1740.35 1774.90 1739.05 1781.10 1738.50 1784.97
  Q 1738.21 1787.05 1738.60 1787.69"
/>
<path stroke="#2e1b3d" vector-effect="non-scaling-stroke" d="
  M 157.79 1792.00
  Q 150.27 1786.32 142.99 1780.34
  C 137.49 1775.83 132.34 1772.73 126.55 1768.56
  C 115.07 1760.26 117.54 1746.43 120.98 1733.98
  C 124.67 1720.65 126.98 1713.55 121.21 1701.82
  Q 115.23 1689.66 109.67 1676.34
  Q 109.04 1674.83 106.58 1670.41
  Q 100.87 1660.10 94.86 1649.60
  Q 92.56 1645.57 84.16 1630.08
  Q 79.62 1621.70 74.36 1614.60
  Q 62.03 1597.97 55.97 1589.92
  C 50.25 1582.32 44.33 1575.42 38.22 1568.20
  C 34.09 1563.31 30.62 1558.04 26.85 1552.92
  Q 21.16 1545.22 18.09 1542.64
  Q 8.12 1534.25 0.00 1523.95"
/>
</g>
<path fill="#3b1536" d="
  M 1385.06 0.00
  C 1381.12 5.39 1379.62 10.54 1380.08 17.28
  Q 1380.32 20.84 1379.25 22.49
  C 1376.66 26.43 1371.56 24.08 1368.19 22.79
  C 1362.68 20.67 1357.77 21.67 1352.82 25.26
  C 1349.35 27.78 1335.37 39.69 1336.25 44.49
  Q 1337.26 49.99 1337.62 53.55
  A 5.10 5.08 -59.9 0 0 1338.04 55.14
  L 1338.97 57.18
  A 1.82 1.79 -49.5 0 1 1339.06 58.44
  C 1337.36 64.43 1328.45 67.09 1324.57 71.73
  Q 1319.69 77.57 1316.85 83.86
  C 1315.29 87.31 1315.54 90.22 1315.77 94.12
  C 1316.24 101.80 1307.51 101.41 1303.37 105.57
  Q 1300.11 108.85 1298.18 112.40
  A 1.49 1.48 26.7 0 0 1298.87 114.46
  C 1302.85 116.27 1305.76 116.99 1307.15 119.66
  A 1.19 1.13 60.5 0 1 1306.77 121.19
  Q 1306.12 121.58 1305.44 121.40
  C 1301.70 120.42 1290.69 116.93 1289.68 123.30
  Q 1289.05 127.26 1289.01 127.53
  A 2.86 2.68 -27.2 0 1 1288.71 128.37
  C 1287.17 131.23 1284.92 132.52 1281.79 134.76
  C 1277.66 137.72 1274.55 141.41 1271.87 145.81
  C 1268.74 150.94 1265.66 154.25 1261.16 156.07
  Q 1246.34 162.04 1245.25 162.57
  C 1240.59 164.86 1238.55 166.27 1233.11 170.05
  C 1229.71 172.41 1226.09 173.70 1222.86 175.30
  C 1215.16 179.10 1208.77 185.20 1201.67 191.97
  Q 1197.25 196.18 1191.77 198.97
  Q 1190.88 199.42 1190.18 200.69
  C 1189.12 202.64 1187.84 203.25 1185.60 203.43
  C 1180.34 203.86 1176.32 204.69 1171.93 206.84
  C 1158.49 213.42 1148.21 218.44 1137.44 226.24
  Q 1134.02 228.72 1124.23 235.55
  Q 1120.38 238.23 1118.28 239.26
  C 1106.83 244.90 1100.52 249.50 1087.05 258.93
  C 1079.06 264.52 1063.46 271.99 1053.13 279.25
  Q 1050.01 281.44 1039.83 288.82
  Q 1028.21 297.23 1014.47 303.81
  Q 1011.98 305.00 1010.13 306.94
  Q 1006.83 310.42 1002.35 312.84
  Q 988.27 320.46 984.13 323.00
  Q 975.54 328.28 964.80 338.13
  C 958.42 343.98 949.38 347.05 943.39 350.13
  Q 928.30 357.87 916.39 365.88
  C 910.33 369.95 905.04 375.03 899.71 379.15
  Q 893.75 383.76 890.44 385.27
  Q 873.14 393.19 862.49 401.62
  Q 839.66 419.70 834.11 423.39
  C 832.34 424.56 830.85 426.20 828.93 427.96
  Q 828.03 428.79 814.80 442.49
  C 810.28 447.17 805.15 451.51 799.77 452.74
  C 793.84 454.10 787.23 456.47 784.25 461.77
  C 783.37 463.34 783.58 466.02 783.35 467.58
  A 5.76 5.70 63.1 0 1 782.77 469.38
  C 780.04 474.67 773.89 478.34 768.36 482.17
  C 765.71 484.02 762.31 487.08 759.59 489.60
  C 756.25 492.69 751.64 494.66 747.71 497.30
  C 740.95 501.85 733.74 506.28 730.18 511.75
  C 724.79 520.05 721.01 525.90 713.77 529.34
  C 705.37 533.33 700.44 534.86 696.48 539.78
  Q 693.77 543.16 687.93 551.04
  Q 685.88 553.80 676.47 563.52
  C 674.35 565.72 672.30 567.91 669.63 569.13
  C 661.50 572.86 656.43 575.08 650.94 581.29
  Q 638.57 595.28 633.83 600.52
  Q 624.91 610.38 616.19 620.44
  C 609.26 628.43 602.81 634.25 596.51 642.23
  Q 588.17 652.80 586.83 654.71
  C 583.41 659.56 578.65 666.85 573.53 672.66
  Q 568.65 678.21 567.56 679.72
  Q 556.76 694.74 554.30 698.61
  Q 548.81 707.25 542.61 714.84
  C 538.22 720.21 532.51 728.72 525.71 738.28
  Q 523.08 741.96 521.72 745.75
  C 519.15 752.89 515.15 767.60 508.30 769.46
  C 507.00 769.82 505.22 769.24 503.72 768.88
  C 500.54 768.10 497.85 769.08 495.91 771.88
  Q 493.83 774.88 494.67 777.62
  C 495.28 779.60 497.29 780.98 498.38 782.27
  A 2.50 2.50 0.0 0 1 498.40 785.47
  C 495.64 788.83 491.48 789.65 486.08 790.68
  C 476.56 792.49 470.73 799.35 463.97 806.64
  C 459.73 811.21 453.41 816.15 446.96 819.26
  C 441.09 822.10 437.24 823.77 433.57 828.15
  Q 432.35 829.61 430.88 834.80
  Q 429.31 840.30 426.59 844.66
  C 419.88 855.38 410.58 867.54 405.40 880.06
  Q 402.31 887.54 401.40 889.59
  A 5.31 5.30 88.3 0 1 398.96 892.18
  C 395.95 893.73 393.55 893.08 390.62 896.35
  Q 385.23 902.36 377.60 910.15
  C 372.69 915.17 369.57 920.92 366.65 925.23
  A 15.92 15.47 -6.8 0 1 365.02 927.24
  Q 362.38 929.97 355.15 936.59
  Q 352.13 939.35 350.63 943.12
  C 346.28 954.06 373.03 947.80 375.96 946.73
  C 381.51 944.72 387.30 941.85 392.15 943.83
  A 2.58 2.58 0.0 0 1 393.64 947.00
  L 393.24 948.26
  A 2.63 2.62 -59.9 0 0 393.96 950.99
  C 397.74 954.51 400.82 957.27 403.18 961.31
  Q 407.13 968.08 409.32 975.33
  Q 412.49 985.88 416.25 997.77
  C 417.46 1001.59 419.00 1007.63 419.05 1010.81
  C 419.15 1016.82 418.85 1021.14 421.85 1025.51
  Q 423.23 1027.52 428.82 1034.53
  A 3.78 3.65 -77.7 0 1 429.29 1035.29
  C 431.03 1038.99 431.45 1043.97 432.54 1048.26
  C 433.67 1052.64 436.60 1060.88 437.45 1066.78
  C 438.76 1075.83 438.39 1084.54 438.04 1092.71
  Q 437.86 1096.92 438.28 1101.67
  Q 438.91 1108.93 439.34 1110.55
  Q 444.66 1130.58 446.97 1140.48
  Q 448.50 1147.05 454.00 1148.70
  Q 465.55 1152.17 470.57 1154.41
  Q 475.48 1156.61 479.06 1156.70
  Q 492.64 1157.02 498.50 1157.94
  Q 508.45 1159.51 525.19 1162.52
  C 535.26 1164.33 540.46 1169.71 546.18 1178.23
  C 549.14 1182.65 549.51 1188.23 552.87 1192.47
  Q 553.00 1192.64 561.08 1203.38
  C 566.30 1210.31 568.73 1217.18 571.28 1225.71
  Q 573.44 1232.93 579.48 1237.16
  C 594.45 1247.65 608.22 1260.85 620.63 1273.67
  C 625.17 1278.36 630.54 1282.93 634.86 1286.07
  Q 645.91 1294.13 659.58 1303.99
  Q 665.83 1308.51 680.55 1316.38
  C 686.30 1319.46 693.02 1320.46 698.47 1323.42
  Q 700.96 1324.77 709.20 1330.20
  C 712.95 1332.66 717.79 1333.83 721.50 1336.08
  Q 723.55 1337.33 727.33 1339.39
  Q 728.72 1340.15 733.70 1340.64
  A 13.53 10.00 11.7 0 1 735.59 1340.92
  C 736.87 1341.18 738.37 1341.55 739.44 1342.01
  C 745.27 1344.48 748.39 1345.91 753.31 1347.35
  C 764.86 1350.72 772.90 1354.27 781.33 1352.46
  C 788.33 1350.95 793.47 1350.24 799.91 1353.16
  C 802.08 1354.14 804.42 1356.49 807.06 1356.99
  Q 807.99 1357.16 811.67 1356.99
  A 16.77 15.89 -41.6 0 1 814.41 1357.08
  C 823.05 1358.06 829.33 1358.19 836.83 1359.76
  C 841.91 1360.83 847.10 1360.98 851.81 1362.49
  Q 857.61 1364.36 861.07 1365.00
  A 6.57 6.57 0.0 0 0 864.04 1364.87
  C 867.78 1363.82 869.75 1363.11 873.77 1362.91
  Q 875.48 1362.83 886.54 1363.37
  Q 888.34 1363.46 890.46 1362.96
  Q 899.30 1360.88 900.61 1360.58
  Q 906.43 1359.25 916.96 1360.48
  Q 919.86 1360.82 920.73 1360.83
  C 925.41 1360.90 929.82 1359.20 934.08 1358.27
  Q 941.76 1356.61 947.40 1357.03
  C 951.06 1357.30 952.97 1358.52 955.84 1360.43
  A 2.26 2.26 0.0 0 0 958.81 1360.01
  C 967.26 1350.08 975.93 1346.42 988.29 1353.08
  Q 989.34 1353.64 1000.80 1360.92
  Q 1009.51 1366.45 1023.80 1370.95
  C 1029.69 1372.81 1035.77 1371.82 1041.69 1368.68
  C 1051.60 1363.45 1061.28 1360.29 1072.96 1360.10
  C 1081.52 1359.95 1090.18 1360.36 1099.23 1359.50
  C 1111.90 1358.31 1126.22 1355.82 1139.59 1358.27
  A 8.19 8.09 47.2 0 0 1141.86 1358.37
  C 1151.55 1357.42 1160.84 1353.37 1168.47 1347.21
  C 1182.91 1335.55 1202.82 1319.37 1219.70 1303.63
  C 1228.31 1295.61 1236.55 1288.92 1244.86 1280.63
  C 1250.61 1274.91 1254.26 1271.22 1259.12 1267.32
  Q 1266.16 1261.66 1268.53 1259.14
  Q 1273.38 1254.00 1281.51 1243.62
  C 1291.75 1230.56 1302.84 1222.46 1317.67 1212.70
  C 1331.87 1203.35 1348.33 1194.72 1365.25 1191.95
  A 4.21 4.20 -85.9 0 0 1368.57 1189.07
  L 1369.42 1186.41
  A 1.31 1.30 -9.4 0 1 1369.92 1185.72
  C 1372.98 1183.60 1375.06 1189.51 1376.09 1191.98
  A 1.87 1.87 0.0 0 0 1379.05 1192.66
  C 1381.54 1190.48 1381.54 1186.69 1382.08 1182.57
  Q 1382.92 1176.11 1388.43 1171.73
  Q 1391.73 1169.11 1398.77 1161.74
  Q 1401.91 1158.44 1407.81 1157.04
  C 1409.62 1156.61 1412.53 1157.15 1414.58 1156.70
  A 3.08 3.08 0.0 0 0 1416.95 1154.25
  C 1417.73 1149.98 1418.23 1147.42 1420.79 1144.16
  C 1424.93 1138.89 1429.07 1134.99 1434.67 1132.29
  C 1438.44 1130.47 1441.38 1128.58 1442.80 1125.46
  C 1447.11 1116.00 1454.90 1106.24 1465.53 1103.93
  Q 1468.82 1103.22 1470.09 1103.22
  Q 1481.98 1103.27 1492.63 1099.58
  C 1497.26 1097.97 1500.11 1094.50 1503.93 1090.35
  C 1508.08 1085.84 1514.18 1080.42 1518.05 1075.81
  C 1523.25 1069.58 1527.15 1062.12 1530.59 1054.06
  C 1533.28 1047.77 1536.14 1043.29 1540.36 1038.04
  C 1544.60 1032.76 1549.35 1024.15 1552.49 1020.57
  C 1563.16 1008.38 1570.14 1000.85 1576.03 990.57
  C 1585.25 974.47 1590.09 966.00 1598.06 954.64
  C 1604.16 945.94 1608.63 939.26 1613.52 935.29
  C 1620.42 929.70 1626.00 925.33 1628.83 919.28
  C 1633.03 910.34 1634.42 905.47 1639.68 900.35
  A 10.79 10.57 86.7 0 0 1640.85 899.01
  C 1644.79 893.73 1647.14 890.11 1651.66 886.60
  C 1656.43 882.89 1655.56 872.26 1652.66 867.83
  C 1651.02 865.32 1649.45 863.46 1649.02 860.86
  C 1647.89 854.08 1653.82 845.69 1657.73 840.44
  C 1664.04 831.97 1670.11 823.88 1673.97 814.80
  Q 1684.06 791.08 1698.03 769.24
  C 1702.31 762.55 1708.10 757.70 1715.79 756.10
  C 1719.40 755.34 1723.24 757.78 1725.28 752.60
  Q 1726.60 749.23 1729.22 742.88
  Q 1731.16 738.16 1734.32 736.66
  Q 1738.41 734.72 1742.60 732.68
  Q 1746.89 730.60 1754.23 723.72
  A 1.18 1.18 0.0 0 0 1754.60 722.86
  L 1755.00 570.62
  L 1755.00 1792.00
  L 452.87 1792.00
  C 444.16 1790.07 431.64 1789.62 429.17 1778.63
  C 427.24 1770.11 434.08 1765.32 437.41 1759.14
  C 443.27 1748.22 422.93 1745.79 431.83 1736.36
  C 436.43 1731.49 441.23 1727.39 444.01 1720.28
  C 447.99 1710.11 442.37 1697.83 437.74 1689.18
  C 434.69 1683.46 430.14 1683.09 424.15 1682.31
  C 419.76 1681.74 418.61 1677.58 416.96 1675.49
  A 13.75 13.72 -87.7 0 0 415.47 1673.87
  Q 415.04 1673.47 409.27 1669.43
  C 406.84 1667.73 406.26 1665.36 407.76 1662.87
  C 410.14 1658.93 409.27 1656.27 406.33 1653.03
  Q 401.05 1647.21 396.48 1641.81
  C 394.88 1639.92 393.88 1637.95 392.16 1634.89
  A 6.35 6.23 8.6 0 0 391.16 1633.56
  C 387.11 1629.50 383.47 1626.33 378.38 1621.11
  C 373.99 1616.62 369.52 1614.71 365.33 1611.92
  A 2.97 2.97 0.0 0 1 364.21 1608.36
  C 365.35 1605.45 367.55 1602.00 364.02 1600.45
  C 362.27 1599.68 360.29 1600.17 357.68 1600.42
  A 2.35 2.34 78.6 0 1 355.22 1598.78
  C 354.18 1595.44 354.95 1591.24 356.38 1587.98
  C 357.64 1585.10 357.10 1582.65 355.35 1580.51
  Q 350.69 1574.84 349.88 1573.63
  A 9.02 8.95 -71.3 0 1 348.84 1571.51
  C 346.97 1565.93 345.60 1562.52 342.60 1558.33
  Q 330.86 1541.97 321.84 1531.52
  Q 319.86 1529.22 319.81 1528.12
  A 3.68 3.53 -40.0 0 1 319.92 1527.09
  Q 320.02 1526.72 321.10 1525.29
  C 322.53 1523.41 322.34 1521.29 321.28 1519.40
  Q 320.53 1518.08 309.80 1501.07
  C 307.78 1497.87 304.73 1494.53 303.45 1492.80
  Q 302.57 1491.62 292.04 1480.85
  C 286.67 1475.37 282.19 1469.84 276.71 1463.63
  Q 272.06 1458.37 266.03 1454.75
  C 262.51 1452.64 260.13 1450.63 257.96 1447.57
  Q 253.31 1441.02 250.43 1437.52
  C 243.17 1428.70 225.97 1413.90 213.30 1417.75
  Q 210.63 1418.56 207.49 1420.46
  A 1.50 1.50 0.0 0 1 205.22 1419.26
  Q 204.84 1412.07 204.81 1411.67
  C 204.43 1406.86 202.91 1403.41 200.55 1399.05
  C 198.60 1395.44 197.38 1390.34 196.23 1386.48
  C 195.19 1382.97 195.39 1380.15 194.96 1376.49
  Q 194.02 1368.45 187.24 1364.27
  C 184.85 1362.80 181.39 1361.98 179.43 1361.03
  A 5.55 5.50 -1.3 0 1 176.98 1358.71
  C 175.19 1355.43 174.78 1352.74 170.65 1349.71
  C 164.26 1345.03 158.26 1337.65 150.33 1334.08
  C 142.60 1330.59 139.64 1328.03 130.84 1321.55
  C 119.24 1313.01 104.32 1309.11 86.71 1303.52
  C 80.47 1301.53 74.38 1299.04 69.53 1296.02
  C 63.61 1292.33 56.79 1286.64 50.36 1282.56
  C 42.44 1277.54 39.46 1275.71 31.75 1269.27
  Q 27.28 1265.53 18.50 1262.01
  C 13.29 1259.92 11.72 1264.38 9.95 1268.36
  C 8.06 1272.62 4.46 1275.25 0.00 1276.48
  L 0.00 793.13
  Q 4.07 789.49 7.03 784.96
  Q 10.10 780.26 11.31 779.29
  C 17.13 774.64 23.25 773.00 31.70 770.46
  Q 37.52 768.72 42.80 766.26
  C 49.14 763.31 58.24 758.50 66.75 756.16
  C 73.62 754.27 78.69 755.54 86.21 756.94
  C 94.45 758.48 104.04 757.52 112.65 757.47
  Q 124.23 757.41 133.68 753.24
  Q 140.38 750.29 146.04 747.62
  C 151.30 745.14 155.11 742.68 160.25 739.71
  Q 163.89 737.60 166.03 736.72
  Q 183.51 729.56 195.88 727.06
  Q 220.06 722.17 237.84 714.21
  Q 246.55 710.31 251.97 707.17
  C 264.77 699.76 276.01 692.96 286.66 690.18
  Q 294.23 688.20 296.62 687.50
  A 12.27 12.17 -72.8 0 0 300.97 685.18
  Q 305.12 681.73 308.59 679.79
  C 314.40 676.53 318.72 673.33 324.16 670.06
  Q 332.68 664.94 343.77 663.71
  Q 345.09 663.57 346.23 663.20
  C 351.71 661.42 357.32 659.04 364.01 656.61
  C 366.89 655.57 370.32 653.92 372.44 652.48
  C 381.00 646.65 385.87 643.00 393.03 640.06
  C 399.10 637.57 409.79 634.25 417.90 628.37
  Q 423.62 624.22 435.83 614.92
  C 442.58 609.78 448.50 603.93 455.17 597.85
  Q 461.51 592.08 469.96 586.30
  C 475.89 582.23 484.79 578.15 491.14 574.11
  Q 498.34 569.52 500.55 568.23
  Q 505.07 565.58 515.86 561.05
  C 516.81 560.65 518.46 559.59 519.81 558.78
  A 12.97 12.85 -80.8 0 0 521.51 557.54
  C 529.26 550.75 536.86 544.52 544.13 537.64
  Q 548.35 533.64 551.42 532.30
  Q 558.48 529.21 563.91 525.30
  C 568.18 522.22 570.91 519.95 575.09 517.43
  C 582.17 513.18 591.14 507.48 598.63 501.76
  Q 604.90 496.97 606.89 495.96
  C 610.53 494.13 616.91 490.90 621.29 487.40
  Q 631.41 479.29 636.20 475.06
  Q 637.13 474.24 642.99 467.35
  Q 645.45 464.46 650.03 459.86
  Q 663.84 446.02 671.73 435.36
  C 679.35 425.07 684.47 417.49 693.47 410.98
  C 709.73 399.23 718.27 393.70 731.60 382.71
  Q 740.23 375.57 753.03 366.93
  C 762.59 360.48 771.89 351.97 780.80 346.33
  C 784.74 343.85 788.78 341.46 792.29 338.51
  C 802.00 330.35 812.58 323.52 822.63 315.70
  Q 847.21 296.58 860.84 285.46
  C 864.16 282.75 870.69 277.96 875.96 274.40
  C 904.11 255.35 925.99 240.97 949.41 221.48
  Q 973.80 201.19 986.07 191.16
  Q 1003.77 176.72 1017.21 164.20
  C 1030.81 151.54 1038.86 145.00 1052.40 133.31
  C 1058.89 127.70 1066.02 121.49 1072.65 115.13
  Q 1090.36 98.16 1112.83 77.70
  C 1122.53 68.88 1130.14 60.53 1139.01 50.33
  C 1146.86 41.32 1156.05 32.26 1164.70 23.33
  Q 1175.05 12.66 1178.04 0.00
  L 1385.06 0.00
  Z
  M 1738.60 1787.69
  A 1.94 1.59 -34.0 0 0 1741.16 1787.93
  C 1751.88 1780.31 1753.89 1764.12 1751.52 1752.06
  C 1751.14 1750.14 1749.91 1745.58 1747.93 1744.78
  A 2.35 2.17 -64.5 0 0 1745.14 1745.89
  C 1741.50 1752.51 1741.27 1761.12 1740.75 1768.98
  C 1740.35 1774.90 1739.05 1781.10 1738.50 1784.97
  Q 1738.21 1787.05 1738.60 1787.69
  Z"
/>
<path fill="#361045" d="
  M 1001.92 0.00
  Q 999.71 13.66 992.54 26.50
  Q 982.73 44.08 969.99 60.59
  C 945.14 92.80 916.60 122.33 887.56 150.89
  C 873.38 164.84 856.87 183.54 844.31 197.03
  Q 830.46 211.90 812.45 228.31
  C 806.96 233.30 800.35 237.71 795.04 242.13
  C 787.90 248.05 779.76 257.22 770.97 263.53
  Q 762.72 269.47 742.79 282.86
  Q 735.84 287.54 719.77 301.60
  C 716.61 304.36 712.50 307.51 710.26 308.91
  Q 695.78 317.95 681.98 327.06
  C 672.29 333.46 663.88 340.95 653.55 347.60
  Q 643.15 354.29 626.34 365.36
  C 620.38 369.29 613.35 374.95 606.86 379.24
  Q 599.36 384.20 584.47 394.73
  C 581.98 396.49 578.62 398.46 576.02 399.81
  Q 556.34 410.11 543.49 417.01
  C 532.68 422.82 523.37 429.79 515.50 435.36
  Q 506.89 441.46 501.99 444.07
  C 486.65 452.23 471.31 460.20 455.31 470.07
  Q 448.37 474.36 443.68 476.24
  C 430.73 481.43 417.87 486.81 407.27 494.35
  C 402.75 497.57 398.47 501.06 393.58 503.07
  C 384.39 506.86 379.48 508.74 371.79 512.55
  C 363.59 516.61 358.39 519.27 351.50 521.88
  C 344.92 524.37 339.57 526.28 331.88 529.42
  Q 323.12 532.99 320.89 533.65
  C 309.05 537.13 300.57 539.31 292.31 544.74
  Q 289.39 546.66 282.83 551.40
  A 13.50 13.42 -69.9 0 1 278.27 553.53
  C 273.63 554.71 271.03 555.25 267.66 556.62
  C 259.05 560.10 249.04 565.98 239.52 567.06
  C 233.85 567.70 227.40 567.41 221.50 568.60
  C 213.02 570.32 205.87 573.74 195.77 577.91
  Q 187.96 581.13 182.12 581.48
  C 169.73 582.21 162.06 582.39 151.59 584.68
  Q 134.48 588.43 119.48 589.98
  Q 114.72 590.47 105.60 592.06
  Q 100.31 592.98 91.65 593.44
  C 84.24 593.83 76.72 596.43 69.47 595.66
  C 57.78 594.41 48.43 594.89 36.22 595.53
  C 31.26 595.80 23.37 593.58 16.61 593.88
  C 8.11 594.27 5.11 590.29 0.00 584.33
  L 0.00 338.09
  Q 12.02 342.36 20.10 343.92
  Q 60.74 351.77 103.27 356.62
  Q 117.77 358.28 123.46 358.44
  Q 150.57 359.24 162.60 360.01
  C 166.21 360.24 170.91 360.75 172.55 364.38
  C 174.02 367.63 174.03 371.10 178.91 370.25
  C 185.24 369.16 189.85 368.03 196.41 368.39
  C 206.54 368.95 215.88 367.87 226.55 365.52
  C 235.49 363.56 243.15 363.03 252.85 361.86
  Q 256.69 361.40 277.05 357.63
  Q 286.94 355.80 300.96 352.01
  Q 311.09 349.27 330.92 344.36
  Q 347.64 340.22 367.74 333.69
  C 384.67 328.20 397.05 324.85 415.04 319.15
  Q 448.48 308.55 478.01 291.72
  Q 485.17 287.64 494.85 283.99
  C 511.44 277.74 522.80 273.80 536.06 266.80
  Q 563.08 252.53 585.07 239.32
  C 595.73 232.92 607.22 220.59 615.02 214.66
  C 630.99 202.53 647.26 191.25 662.04 176.86
  Q 677.02 162.28 679.09 160.25
  Q 683.09 156.32 686.64 150.42
  Q 687.77 148.55 690.19 147.04
  Q 696.87 142.89 704.13 136.44
  Q 710.51 130.77 721.58 119.73
  Q 727.17 114.15 729.84 111.72
  Q 736.96 105.23 738.14 103.74
  Q 751.91 86.52 769.65 66.35
  C 772.01 63.67 775.28 59.53 777.45 56.28
  Q 788.53 39.75 800.92 24.30
  C 806.55 17.27 810.60 9.04 811.25 0.00
  L 1001.92 0.00
  Z"
/>
<path fill="#411531" d="
  M 1755.00 0.00
  L 1755.00 570.62
  L 1754.60 722.86
  A 1.18 1.18 0.0 0 1 1754.23 723.72
  Q 1746.89 730.60 1742.60 732.68
  Q 1738.41 734.72 1734.32 736.66
  Q 1731.16 738.16 1729.22 742.88
  Q 1726.60 749.23 1725.28 752.60
  C 1723.24 757.78 1719.40 755.34 1715.79 756.10
  C 1708.10 757.70 1702.31 762.55 1698.03 769.24
  Q 1684.06 791.08 1673.97 814.80
  C 1670.11 823.88 1664.04 831.97 1657.73 840.44
  C 1653.82 845.69 1647.89 854.08 1649.02 860.86
  C 1649.45 863.46 1651.02 865.32 1652.66 867.83
  C 1655.56 872.26 1656.43 882.89 1651.66 886.60
  C 1647.14 890.11 1644.79 893.73 1640.85 899.01
  A 10.79 10.57 86.7 0 1 1639.68 900.35
  C 1634.42 905.47 1633.03 910.34 1628.83 919.28
  C 1626.00 925.33 1620.42 929.70 1613.52 935.29
  C 1608.63 939.26 1604.16 945.94 1598.06 954.64
  C 1590.09 966.00 1585.25 974.47 1576.03 990.57
  C 1570.14 1000.85 1563.16 1008.38 1552.49 1020.57
  C 1549.35 1024.15 1544.60 1032.76 1540.36 1038.04
  C 1536.14 1043.29 1533.28 1047.77 1530.59 1054.06
  C 1527.15 1062.12 1523.25 1069.58 1518.05 1075.81
  C 1514.18 1080.42 1508.08 1085.84 1503.93 1090.35
  C 1500.11 1094.50 1497.26 1097.97 1492.63 1099.58
  Q 1481.98 1103.27 1470.09 1103.22
  Q 1468.82 1103.22 1465.53 1103.93
  C 1454.90 1106.24 1447.11 1116.00 1442.80 1125.46
  C 1441.38 1128.58 1438.44 1130.47 1434.67 1132.29
  C 1429.07 1134.99 1424.93 1138.89 1420.79 1144.16
  C 1418.23 1147.42 1417.73 1149.98 1416.95 1154.25
  A 3.08 3.08 0.0 0 1 1414.58 1156.70
  C 1412.53 1157.15 1409.62 1156.61 1407.81 1157.04
  Q 1401.91 1158.44 1398.77 1161.74
  Q 1391.73 1169.11 1388.43 1171.73
  Q 1382.92 1176.11 1382.08 1182.57
  C 1381.54 1186.69 1381.54 1190.48 1379.05 1192.66
  A 1.87 1.87 0.0 0 1 1376.09 1191.98
  C 1375.06 1189.51 1372.98 1183.60 1369.92 1185.72
  A 1.31 1.30 -9.4 0 0 1369.42 1186.41
  L 1368.57 1189.07
  A 4.21 4.20 -85.9 0 1 1365.25 1191.95
  C 1348.33 1194.72 1331.87 1203.35 1317.67 1212.70
  C 1302.84 1222.46 1291.75 1230.56 1281.51 1243.62
  Q 1273.38 1254.00 1268.53 1259.14
  Q 1266.16 1261.66 1259.12 1267.32
  C 1254.26 1271.22 1250.61 1274.91 1244.86 1280.63
  C 1236.55 1288.92 1228.31 1295.61 1219.70 1303.63
  C 1202.82 1319.37 1182.91 1335.55 1168.47 1347.21
  C 1160.84 1353.37 1151.55 1357.42 1141.86 1358.37
  A 8.19 8.09 47.2 0 1 1139.59 1358.27
  C 1126.22 1355.82 1111.90 1358.31 1099.23 1359.50
  C 1090.18 1360.36 1081.52 1359.95 1072.96 1360.10
  C 1061.28 1360.29 1051.60 1363.45 1041.69 1368.68
  C 1035.77 1371.82 1029.69 1372.81 1023.80 1370.95
  Q 1009.51 1366.45 1000.80 1360.92
  Q 989.34 1353.64 988.29 1353.08
  C 975.93 1346.42 967.26 1350.08 958.81 1360.01
  A 2.26 2.26 0.0 0 1 955.84 1360.43
  C 952.97 1358.52 951.06 1357.30 947.40 1357.03
  Q 941.76 1356.61 934.08 1358.27
  C 929.82 1359.20 925.41 1360.90 920.73 1360.83
  Q 919.86 1360.82 916.96 1360.48
  Q 906.43 1359.25 900.61 1360.58
  Q 899.30 1360.88 890.46 1362.96
  Q 888.34 1363.46 886.54 1363.37
  Q 875.48 1362.83 873.77 1362.91
  C 869.75 1363.11 867.78 1363.82 864.04 1364.87
  A 6.57 6.57 0.0 0 1 861.07 1365.00
  Q 857.61 1364.36 851.81 1362.49
  C 847.10 1360.98 841.91 1360.83 836.83 1359.76
  C 829.33 1358.19 823.05 1358.06 814.41 1357.08
  A 16.77 15.89 -41.6 0 0 811.67 1356.99
  Q 807.99 1357.16 807.06 1356.99
  C 804.42 1356.49 802.08 1354.14 799.91 1353.16
  C 793.47 1350.24 788.33 1350.95 781.33 1352.46
  C 772.90 1354.27 764.86 1350.72 753.31 1347.35
  C 748.39 1345.91 745.27 1344.48 739.44 1342.01
  C 738.37 1341.55 736.87 1341.18 735.59 1340.92
  A 13.53 10.00 11.7 0 0 733.70 1340.64
  Q 728.72 1340.15 727.33 1339.39
  Q 723.55 1337.33 721.50 1336.08
  C 717.79 1333.83 712.95 1332.66 709.20 1330.20
  Q 700.96 1324.77 698.47 1323.42
  C 693.02 1320.46 686.30 1319.46 680.55 1316.38
  Q 665.83 1308.51 659.58 1303.99
  Q 645.91 1294.13 634.86 1286.07
  C 630.54 1282.93 625.17 1278.36 620.63 1273.67
  C 608.22 1260.85 594.45 1247.65 579.48 1237.16
  Q 573.44 1232.93 571.28 1225.71
  C 568.73 1217.18 566.30 1210.31 561.08 1203.38
  Q 553.00 1192.64 552.87 1192.47
  C 549.51 1188.23 549.14 1182.65 546.18 1178.23
  C 540.46 1169.71 535.26 1164.33 525.19 1162.52
  Q 508.45 1159.51 498.50 1157.94
  Q 492.64 1157.02 479.06 1156.70
  Q 475.48 1156.61 470.57 1154.41
  Q 465.55 1152.17 454.00 1148.70
  Q 448.50 1147.05 446.97 1140.48
  Q 444.66 1130.58 439.34 1110.55
  Q 438.91 1108.93 438.28 1101.67
  Q 437.86 1096.92 438.04 1092.71
  C 438.39 1084.54 438.76 1075.83 437.45 1066.78
  C 436.60 1060.88 433.67 1052.64 432.54 1048.26
  C 431.45 1043.97 431.03 1038.99 429.29 1035.29
  A 3.78 3.65 -77.7 0 0 428.82 1034.53
  Q 423.23 1027.52 421.85 1025.51
  C 418.85 1021.14 419.15 1016.82 419.05 1010.81
  C 419.00 1007.63 417.46 1001.59 416.25 997.77
  Q 412.49 985.88 409.32 975.33
  Q 407.13 968.08 403.18 961.31
  C 400.82 957.27 397.74 954.51 393.96 950.99
  A 2.63 2.62 -59.9 0 1 393.24 948.26
  L 393.64 947.00
  A 2.58 2.58 0.0 0 0 392.15 943.83
  C 387.30 941.85 381.51 944.72 375.96 946.73
  C 373.03 947.80 346.28 954.06 350.63 943.12
  Q 352.13 939.35 355.15 936.59
  Q 362.38 929.97 365.02 927.24
  A 15.92 15.47 -6.8 0 0 366.65 925.23
  C 369.57 920.92 372.69 915.17 377.60 910.15
  Q 385.23 902.36 390.62 896.35
  C 393.55 893.08 395.95 893.73 398.96 892.18
  A 5.31 5.30 88.3 0 0 401.40 889.59
  Q 402.31 887.54 405.40 880.06
  C 410.58 867.54 419.88 855.38 426.59 844.66
  Q 429.31 840.30 430.88 834.80
  Q 432.35 829.61 433.57 828.15
  C 437.24 823.77 441.09 822.10 446.96 819.26
  C 453.41 816.15 459.73 811.21 463.97 806.64
  C 470.73 799.35 476.56 792.49 486.08 790.68
  C 491.48 789.65 495.64 788.83 498.40 785.47
  A 2.50 2.50 0.0 0 0 498.38 782.27
  C 497.29 780.98 495.28 779.60 494.67 777.62
  Q 493.83 774.88 495.91 771.88
  C 497.85 769.08 500.54 768.10 503.72 768.88
  C 505.22 769.24 507.00 769.82 508.30 769.46
  C 515.15 767.60 519.15 752.89 521.72 745.75
  Q 523.08 741.96 525.71 738.28
  C 532.51 728.72 538.22 720.21 542.61 714.84
  Q 548.81 707.25 554.30 698.61
  Q 556.76 694.74 567.56 679.72
  Q 568.65 678.21 573.53 672.66
  C 578.65 666.85 583.41 659.56 586.83 654.71
  Q 588.17 652.80 596.51 642.23
  C 602.81 634.25 609.26 628.43 616.19 620.44
  Q 624.91 610.38 633.83 600.52
  Q 638.57 595.28 650.94 581.29
  C 656.43 575.08 661.50 572.86 669.63 569.13
  C 672.30 567.91 674.35 565.72 676.47 563.52
  Q 685.88 553.80 687.93 551.04
  Q 693.77 543.16 696.48 539.78
  C 700.44 534.86 705.37 533.33 713.77 529.34
  C 721.01 525.90 724.79 520.05 730.18 511.75
  C 733.74 506.28 740.95 501.85 747.71 497.30
  C 751.64 494.66 756.25 492.69 759.59 489.60
  C 762.31 487.08 765.71 484.02 768.36 482.17
  C 773.89 478.34 780.04 474.67 782.77 469.38
  A 5.76 5.70 63.1 0 0 783.35 467.58
  C 783.58 466.02 783.37 463.34 784.25 461.77
  C 787.23 456.47 793.84 454.10 799.77 452.74
  C 805.15 451.51 810.28 447.17 814.80 442.49
  Q 828.03 428.79 828.93 427.96
  C 830.85 426.20 832.34 424.56 834.11 423.39
  Q 839.66 419.70 862.49 401.62
  Q 873.14 393.19 890.44 385.27
  Q 893.75 383.76 899.71 379.15
  C 905.04 375.03 910.33 369.95 916.39 365.88
  Q 928.30 357.87 943.39 350.13
  C 949.38 347.05 958.42 343.98 964.80 338.13
  Q 975.54 328.28 984.13 323.00
  Q 988.27 320.46 1002.35 312.84
  Q 1006.83 310.42 1010.13 306.94
  Q 1011.98 305.00 1014.47 303.81
  Q 1028.21 297.23 1039.83 288.82
  Q 1050.01 281.44 1053.13 279.25
  C 1063.46 271.99 1079.06 264.52 1087.05 258.93
  C 1100.52 249.50 1106.83 244.90 1118.28 239.26
  Q 1120.38 238.23 1124.23 235.55
  Q 1134.02 228.72 1137.44 226.24
  C 1148.21 218.44 1158.49 213.42 1171.93 206.84
  C 1176.32 204.69 1180.34 203.86 1185.60 203.43
  C 1187.84 203.25 1189.12 202.64 1190.18 200.69
  Q 1190.88 199.42 1191.77 198.97
  Q 1197.25 196.18 1201.67 191.97
  C 1208.77 185.20 1215.16 179.10 1222.86 175.30
  C 1226.09 173.70 1229.71 172.41 1233.11 170.05
  C 1238.55 166.27 1240.59 164.86 1245.25 162.57
  Q 1246.34 162.04 1261.16 156.07
  C 1265.66 154.25 1268.74 150.94 1271.87 145.81
  C 1274.55 141.41 1277.66 137.72 1281.79 134.76
  C 1284.92 132.52 1287.17 131.23 1288.71 128.37
  A 2.86 2.68 -27.2 0 0 1289.01 127.53
  Q 1289.05 127.26 1289.68 123.30
  C 1290.69 116.93 1301.70 120.42 1305.44 121.40
  Q 1306.12 121.58 1306.77 121.19
  A 1.19 1.13 60.5 0 0 1307.15 119.66
  C 1305.76 116.99 1302.85 116.27 1298.87 114.46
  A 1.49 1.48 26.7 0 1 1298.18 112.40
  Q 1300.11 108.85 1303.37 105.57
  C 1307.51 101.41 1316.24 101.80 1315.77 94.12
  C 1315.54 90.22 1315.29 87.31 1316.85 83.86
  Q 1319.69 77.57 1324.57 71.73
  C 1328.45 67.09 1337.36 64.43 1339.06 58.44
  A 1.82 1.79 -49.5 0 0 1338.97 57.18
  L 1338.04 55.14
  A 5.10 5.08 -59.9 0 1 1337.62 53.55
  Q 1337.26 49.99 1336.25 44.49
  C 1335.37 39.69 1349.35 27.78 1352.82 25.26
  C 1357.77 21.67 1362.68 20.67 1368.19 22.79
  C 1371.56 24.08 1376.66 26.43 1379.25 22.49
  Q 1380.32 20.84 1380.08 17.28
  C 1379.62 10.54 1381.12 5.39 1385.06 0.00
  L 1755.00 0.00
  Z"
/>
<path fill="#2c0c55" d="
  M 655.74 0.00
  Q 652.96 16.30 645.96 31.34
  Q 633.53 58.03 620.11 82.49
  C 614.63 92.48 607.73 103.90 598.28 110.81
  Q 592.78 114.83 589.90 117.30
  Q 579.91 125.85 567.05 134.80
  C 561.81 138.45 556.48 143.10 552.09 146.94
  C 540.33 157.24 526.48 164.81 511.58 169.24
  C 507.60 170.42 503.22 171.99 500.85 173.87
  C 496.50 177.33 492.99 180.74 488.14 183.71
  Q 478.15 189.84 467.94 193.27
  C 461.48 195.45 456.06 195.89 449.26 196.26
  C 444.70 196.51 440.39 198.20 437.69 201.36
  C 429.54 210.92 420.70 212.41 409.04 213.71
  C 404.09 214.27 399.78 215.87 395.57 217.56
  Q 391.00 219.40 385.34 218.19
  Q 383.40 217.77 380.14 218.90
  Q 370.11 222.37 356.16 225.24
  Q 354.53 225.58 347.09 226.20
  A 15.27 15.19 -55.0 0 0 344.47 226.67
  C 337.83 228.48 334.21 229.54 328.22 230.58
  Q 312.02 233.40 311.12 233.59
  C 304.63 234.99 298.41 237.37 292.63 238.59
  C 287.39 239.70 284.35 242.74 280.67 246.91
  C 273.12 255.48 264.93 254.59 254.06 254.36
  C 249.50 254.26 241.21 254.85 236.30 257.47
  C 233.95 258.72 231.93 259.20 229.44 259.13
  Q 214.58 258.68 200.54 259.37
  A 3.10 3.08 -21.5 0 1 198.05 258.30
  Q 195.37 255.18 190.67 254.85
  Q 186.17 254.53 174.09 255.42
  C 169.87 255.73 165.19 255.71 161.58 254.55
  Q 160.39 254.17 154.00 251.48
  A 11.23 10.76 60.9 0 0 151.82 250.81
  C 145.32 249.54 137.56 248.79 130.88 247.17
  C 122.34 245.11 114.61 242.76 106.01 242.47
  Q 95.00 242.08 86.50 241.58
  C 76.60 240.99 67.09 242.75 57.83 240.41
  C 51.68 238.85 46.08 236.85 39.04 235.64
  Q 30.93 234.25 22.83 232.79
  Q 13.98 231.20 0.00 225.18
  L 0.00 0.00
  L 655.74 0.00
  Z"
/>
<path fill="#311a3a" d="
  M 452.87 1792.00
  L 157.79 1792.00
  Q 150.27 1786.32 142.99 1780.34
  C 137.49 1775.83 132.34 1772.73 126.55 1768.56
  C 115.07 1760.26 117.54 1746.43 120.98 1733.98
  C 124.67 1720.65 126.98 1713.55 121.21 1701.82
  Q 115.23 1689.66 109.67 1676.34
  Q 109.04 1674.83 106.58 1670.41
  Q 100.87 1660.10 94.86 1649.60
  Q 92.56 1645.57 84.16 1630.08
  Q 79.62 1621.70 74.36 1614.60
  Q 62.03 1597.97 55.97 1589.92
  C 50.25 1582.32 44.33 1575.42 38.22 1568.20
  C 34.09 1563.31 30.62 1558.04 26.85 1552.92
  Q 21.16 1545.22 18.09 1542.64
  Q 8.12 1534.25 0.00 1523.95
  L 0.00 1276.48
  C 4.46 1275.25 8.06 1272.62 9.95 1268.36
  C 11.72 1264.38 13.29 1259.92 18.50 1262.01
  Q 27.28 1265.53 31.75 1269.27
  C 39.46 1275.71 42.44 1277.54 50.36 1282.56
  C 56.79 1286.64 63.61 1292.33 69.53 1296.02
  C 74.38 1299.04 80.47 1301.53 86.71 1303.52
  C 104.32 1309.11 119.24 1313.01 130.84 1321.55
  C 139.64 1328.03 142.60 1330.59 150.33 1334.08
  C 158.26 1337.65 164.26 1345.03 170.65 1349.71
  C 174.78 1352.74 175.19 1355.43 176.98 1358.71
  A 5.55 5.50 -1.3 0 0 179.43 1361.03
  C 181.39 1361.98 184.85 1362.80 187.24 1364.27
  Q 194.02 1368.45 194.96 1376.49
  C 195.39 1380.15 195.19 1382.97 196.23 1386.48
  C 197.38 1390.34 198.60 1395.44 200.55 1399.05
  C 202.91 1403.41 204.43 1406.86 204.81 1411.67
  Q 204.84 1412.07 205.22 1419.26
  A 1.50 1.50 0.0 0 0 207.49 1420.46
  Q 210.63 1418.56 213.30 1417.75
  C 225.97 1413.90 243.17 1428.70 250.43 1437.52
  Q 253.31 1441.02 257.96 1447.57
  C 260.13 1450.63 262.51 1452.64 266.03 1454.75
  Q 272.06 1458.37 276.71 1463.63
  C 282.19 1469.84 286.67 1475.37 292.04 1480.85
  Q 302.57 1491.62 303.45 1492.80
  C 304.73 1494.53 307.78 1497.87 309.80 1501.07
  Q 320.53 1518.08 321.28 1519.40
  C 322.34 1521.29 322.53 1523.41 321.10 1525.29
  Q 320.02 1526.72 319.92 1527.09
  A 3.68 3.53 -40.0 0 0 319.81 1528.12
  Q 319.86 1529.22 321.84 1531.52
  Q 330.86 1541.97 342.60 1558.33
  C 345.60 1562.52 346.97 1565.93 348.84 1571.51
  A 9.02 8.95 -71.3 0 0 349.88 1573.63
  Q 350.69 1574.84 355.35 1580.51
  C 357.10 1582.65 357.64 1585.10 356.38 1587.98
  C 354.95 1591.24 354.18 1595.44 355.22 1598.78
  A 2.35 2.34 78.6 0 0 357.68 1600.42
  C 360.29 1600.17 362.27 1599.68 364.02 1600.45
  C 367.55 1602.00 365.35 1605.45 364.21 1608.36
  A 2.97 2.97 0.0 0 0 365.33 1611.92
  C 369.52 1614.71 373.99 1616.62 378.38 1621.11
  C 383.47 1626.33 387.11 1629.50 391.16 1633.56
  A 6.35 6.23 8.6 0 1 392.16 1634.89
  C 393.88 1637.95 394.88 1639.92 396.48 1641.81
  Q 401.05 1647.21 406.33 1653.03
  C 409.27 1656.27 410.14 1658.93 407.76 1662.87
  C 406.26 1665.36 406.84 1667.73 409.27 1669.43
  Q 415.04 1673.47 415.47 1673.87
  A 13.75 13.72 -87.7 0 1 416.96 1675.49
  C 418.61 1677.58 419.76 1681.74 424.15 1682.31
  C 430.14 1683.09 434.69 1683.46 437.74 1689.18
  C 442.37 1697.83 447.99 1710.11 444.01 1720.28
  C 441.23 1727.39 436.43 1731.49 431.83 1736.36
  C 422.93 1745.79 443.27 1748.22 437.41 1759.14
  C 434.08 1765.32 427.24 1770.11 429.17 1778.63
  C 431.64 1789.62 444.16 1790.07 452.87 1792.00
  Z"
/>
<path fill="#3a113d" d="
  M 1178.04 0.00
  Q 1175.05 12.66 1164.70 23.33
  C 1156.05 32.26 1146.86 41.32 1139.01 50.33
  C 1130.14 60.53 1122.53 68.88 1112.83 77.70
  Q 1090.36 98.16 1072.65 115.13
  C 1066.02 121.49 1058.89 127.70 1052.40 133.31
  C 1038.86 145.00 1030.81 151.54 1017.21 164.20
  Q 1003.77 176.72 986.07 191.16
  Q 973.80 201.19 949.41 221.48
  C 925.99 240.97 904.11 255.35 875.96 274.40
  C 870.69 277.96 864.16 282.75 860.84 285.46
  Q 847.21 296.58 822.63 315.70
  C 812.58 323.52 802.00 330.35 792.29 338.51
  C 788.78 341.46 784.74 343.85 780.80 346.33
  C 771.89 351.97 762.59 360.48 753.03 366.93
  Q 740.23 375.57 731.60 382.71
  C 718.27 393.70 709.73 399.23 693.47 410.98
  C 684.47 417.49 679.35 425.07 671.73 435.36
  Q 663.84 446.02 650.03 459.86
  Q 645.45 464.46 642.99 467.35
  Q 637.13 474.24 636.20 475.06
  Q 631.41 479.29 621.29 487.40
  C 616.91 490.90 610.53 494.13 606.89 495.96
  Q 604.90 496.97 598.63 501.76
  C 591.14 507.48 582.17 513.18 575.09 517.43
  C 570.91 519.95 568.18 522.22 563.91 525.30
  Q 558.48 529.21 551.42 532.30
  Q 548.35 533.64 544.13 537.64
  C 536.86 544.52 529.26 550.75 521.51 557.54
  A 12.97 12.85 -80.8 0 1 519.81 558.78
  C 518.46 559.59 516.81 560.65 515.86 561.05
  Q 505.07 565.58 500.55 568.23
  Q 498.34 569.52 491.14 574.11
  C 484.79 578.15 475.89 582.23 469.96 586.30
  Q 461.51 592.08 455.17 597.85
  C 448.50 603.93 442.58 609.78 435.83 614.92
  Q 423.62 624.22 417.90 628.37
  C 409.79 634.25 399.10 637.57 393.03 640.06
  C 385.87 643.00 381.00 646.65 372.44 652.48
  C 370.32 653.92 366.89 655.57 364.01 656.61
  C 357.32 659.04 351.71 661.42 346.23 663.20
  Q 345.09 663.57 343.77 663.71
  Q 332.68 664.94 324.16 670.06
  C 318.72 673.33 314.40 676.53 308.59 679.79
  Q 305.12 681.73 300.97 685.18
  A 12.27 12.17 -72.8 0 1 296.62 687.50
  Q 294.23 688.20 286.66 690.18
  C 276.01 692.96 264.77 699.76 251.97 707.17
  Q 246.55 710.31 237.84 714.21
  Q 220.06 722.17 195.88 727.06
  Q 183.51 729.56 166.03 736.72
  Q 163.89 737.60 160.25 739.71
  C 155.11 742.68 151.30 745.14 146.04 747.62
  Q 140.38 750.29 133.68 753.24
  Q 124.23 757.41 112.65 757.47
  C 104.04 757.52 94.45 758.48 86.21 756.94
  C 78.69 755.54 73.62 754.27 66.75 756.16
  C 58.24 758.50 49.14 763.31 42.80 766.26
  Q 37.52 768.72 31.70 770.46
  C 23.25 773.00 17.13 774.64 11.31 779.29
  Q 10.10 780.26 7.03 784.96
  Q 4.07 789.49 0.00 793.13
  L 0.00 584.33
  C 5.11 590.29 8.11 594.27 16.61 593.88
  C 23.37 593.58 31.26 595.80 36.22 595.53
  C 48.43 594.89 57.78 594.41 69.47 595.66
  C 76.72 596.43 84.24 593.83 91.65 593.44
  Q 100.31 592.98 105.60 592.06
  Q 114.72 590.47 119.48 589.98
  Q 134.48 588.43 151.59 584.68
  C 162.06 582.39 169.73 582.21 182.12 581.48
  Q 187.96 581.13 195.77 577.91
  C 205.87 573.74 213.02 570.32 221.50 568.60
  C 227.40 567.41 233.85 567.70 239.52 567.06
  C 249.04 565.98 259.05 560.10 267.66 556.62
  C 271.03 555.25 273.63 554.71 278.27 553.53
  A 13.50 13.42 -69.9 0 0 282.83 551.40
  Q 289.39 546.66 292.31 544.74
  C 300.57 539.31 309.05 537.13 320.89 533.65
  Q 323.12 532.99 331.88 529.42
  C 339.57 526.28 344.92 524.37 351.50 521.88
  C 358.39 519.27 363.59 516.61 371.79 512.55
  C 379.48 508.74 384.39 506.86 393.58 503.07
  C 398.47 501.06 402.75 497.57 407.27 494.35
  C 417.87 486.81 430.73 481.43 443.68 476.24
  Q 448.37 474.36 455.31 470.07
  C 471.31 460.20 486.65 452.23 501.99 444.07
  Q 506.89 441.46 515.50 435.36
  C 523.37 429.79 532.68 422.82 543.49 417.01
  Q 556.34 410.11 576.02 399.81
  C 578.62 398.46 581.98 396.49 584.47 394.73
  Q 599.36 384.20 606.86 379.24
  C 613.35 374.95 620.38 369.29 626.34 365.36
  Q 643.15 354.29 653.55 347.60
  C 663.88 340.95 672.29 333.46 681.98 327.06
  Q 695.78 317.95 710.26 308.91
  C 712.50 307.51 716.61 304.36 719.77 301.60
  Q 735.84 287.54 742.79 282.86
  Q 762.72 269.47 770.97 263.53
  C 779.76 257.22 787.90 248.05 795.04 242.13
  C 800.35 237.71 806.96 233.30 812.45 228.31
  Q 830.46 211.90 844.31 197.03
  C 856.87 183.54 873.38 164.84 887.56 150.89
  C 916.60 122.33 945.14 92.80 969.99 60.59
  Q 982.73 44.08 992.54 26.50
  Q 999.71 13.66 1001.92 0.00
  L 1178.04 0.00
  Z"
/>
<path fill="#310e4d" d="
  M 811.25 0.00
  C 810.60 9.04 806.55 17.27 800.92 24.30
  Q 788.53 39.75 777.45 56.28
  C 775.28 59.53 772.01 63.67 769.65 66.35
  Q 751.91 86.52 738.14 103.74
  Q 736.96 105.23 729.84 111.72
  Q 727.17 114.15 721.58 119.73
  Q 710.51 130.77 704.13 136.44
  Q 696.87 142.89 690.19 147.04
  Q 687.77 148.55 686.64 150.42
  Q 683.09 156.32 679.09 160.25
  Q 677.02 162.28 662.04 176.86
  C 647.26 191.25 630.99 202.53 615.02 214.66
  C 607.22 220.59 595.73 232.92 585.07 239.32
  Q 563.08 252.53 536.06 266.80
  C 522.80 273.80 511.44 277.74 494.85 283.99
  Q 485.17 287.64 478.01 291.72
  Q 448.48 308.55 415.04 319.15
  C 397.05 324.85 384.67 328.20 367.74 333.69
  Q 347.64 340.22 330.92 344.36
  Q 311.09 349.27 300.96 352.01
  Q 286.94 355.80 277.05 357.63
  Q 256.69 361.40 252.85 361.86
  C 243.15 363.03 235.49 363.56 226.55 365.52
  C 215.88 367.87 206.54 368.95 196.41 368.39
  C 189.85 368.03 185.24 369.16 178.91 370.25
  C 174.03 371.10 174.02 367.63 172.55 364.38
  C 170.91 360.75 166.21 360.24 162.60 360.01
  Q 150.57 359.24 123.46 358.44
  Q 117.77 358.28 103.27 356.62
  Q 60.74 351.77 20.10 343.92
  Q 12.02 342.36 0.00 338.09
  L 0.00 225.18
  Q 13.98 231.20 22.83 232.79
  Q 30.93 234.25 39.04 235.64
  C 46.08 236.85 51.68 238.85 57.83 240.41
  C 67.09 242.75 76.60 240.99 86.50 241.58
  Q 95.00 242.08 106.01 242.47
  C 114.61 242.76 122.34 245.11 130.88 247.17
  C 137.56 248.79 145.32 249.54 151.82 250.81
  A 11.23 10.76 60.9 0 1 154.00 251.48
  Q 160.39 254.17 161.58 254.55
  C 165.19 255.71 169.87 255.73 174.09 255.42
  Q 186.17 254.53 190.67 254.85
  Q 195.37 255.18 198.05 258.30
  A 3.10 3.08 -21.5 0 0 200.54 259.37
  Q 214.58 258.68 229.44 259.13
  C 231.93 259.20 233.95 258.72 236.30 257.47
  C 241.21 254.85 249.50 254.26 254.06 254.36
  C 264.93 254.59 273.12 255.48 280.67 246.91
  C 284.35 242.74 287.39 239.70 292.63 238.59
  C 298.41 237.37 304.63 234.99 311.12 233.59
  Q 312.02 233.40 328.22 230.58
  C 334.21 229.54 337.83 228.48 344.47 226.67
  A 15.27 15.19 -55.0 0 1 347.09 226.20
  Q 354.53 225.58 356.16 225.24
  Q 370.11 222.37 380.14 218.90
  Q 383.40 217.77 385.34 218.19
  Q 391.00 219.40 395.57 217.56
  C 399.78 215.87 404.09 214.27 409.04 213.71
  C 420.70 212.41 429.54 210.92 437.69 201.36
  C 440.39 198.20 444.70 196.51 449.26 196.26
  C 456.06 195.89 461.48 195.45 467.94 193.27
  Q 478.15 189.84 488.14 183.71
  C 492.99 180.74 496.50 177.33 500.85 173.87
  C 503.22 171.99 507.60 170.42 511.58 169.24
  C 526.48 164.81 540.33 157.24 552.09 146.94
  C 556.48 143.10 561.81 138.45 567.05 134.80
  Q 579.91 125.85 589.90 117.30
  Q 592.78 114.83 598.28 110.81
  C 607.73 103.90 614.63 92.48 620.11 82.49
  Q 633.53 58.03 645.96 31.34
  Q 652.96 16.30 655.74 0.00
  L 811.25 0.00
  Z"
/>
<path fill="#2b1c40" d="
  M 157.79 1792.00
  L 0.00 1792.00
  L 0.00 1523.95
  Q 8.12 1534.25 18.09 1542.64
  Q 21.16 1545.22 26.85 1552.92
  C 30.62 1558.04 34.09 1563.31 38.22 1568.20
  C 44.33 1575.42 50.25 1582.32 55.97 1589.92
  Q 62.03 1597.97 74.36 1614.60
  Q 79.62 1621.70 84.16 1630.08
  Q 92.56 1645.57 94.86 1649.60
  Q 100.87 1660.10 106.58 1670.41
  Q 109.04 1674.83 109.67 1676.34
  Q 115.23 1689.66 121.21 1701.82
  C 126.98 1713.55 124.67 1720.65 120.98 1733.98
  C 117.54 1746.43 115.07 1760.26 126.55 1768.56
  C 132.34 1772.73 137.49 1775.83 142.99 1780.34
  Q 150.27 1786.32 157.79 1792.00
  Z"
/>
<path fill="#361542" d="
  M 1738.60 1787.69
  Q 1738.21 1787.05 1738.50 1784.97
  C 1739.05 1781.10 1740.35 1774.90 1740.75 1768.98
  C 1741.27 1761.12 1741.50 1752.51 1745.14 1745.89
  A 2.35 2.17 -64.5 0 1 1747.93 1744.78
  C 1749.91 1745.58 1751.14 1750.14 1751.52 1752.06
  C 1753.89 1764.12 1751.88 1780.31 1741.16 1787.93
  A 1.94 1.59 -34.0 0 1 1738.60 1787.69
  Z"
/>
</svg>
