<?xml version="1.0" encoding="UTF-8" standalone="no"?>
<!DOCTYPE svg PUBLIC "-//W3C//DTD SVG 1.1//EN" "http://www.w3.org/Graphics/SVG/1.1/DTD/svg11.dtd">
<svg xmlns="http://www.w3.org/2000/svg" version="1.1" viewBox="0.00 0.00 576.00 576.00">
<g stroke-width="2.00" fill="none" stroke-linecap="butt">
<path stroke="#cac2fa" stroke-opacity="0.922" vector-effect="non-scaling-stroke" d="
  M 435.67 7.72
  L 440.56 11.95"
/>
<path stroke="#cac2fa" stroke-opacity="0.922" vector-effect="non-scaling-stroke" d="
  M 491.73 11.81
  L 499.76 7.58"
/>
<path stroke="#c6bef7" stroke-opacity="0.835" vector-effect="non-scaling-stroke" d="
  M 237.91 8.09
  Q 242.67 9.17 246.55 11.80"
/>
<path stroke="#c6bef7" stroke-opacity="0.835" vector-effect="non-scaling-stroke" d="
  M 323.56 11.81
  L 316.87 10.93
  A 0.31 0.31 0.0 0 1 316.62 10.51
  L 316.79 10.05
  A 0.24 0.24 0.0 0 1 316.98 9.90
  L 332.03 7.94"
/>
<path stroke="#cac2fa" stroke-opacity="0.922" vector-effect="non-scaling-stroke" d="
  M 97.76 345.16
  Q 97.63 345.07 97.52 344.98
  A 0.27 0.26 -51.7 0 0 97.14 345.03
  Q 97.06 345.13 96.98 345.27"
/>
<path stroke="#cac3f9" stroke-opacity="0.639" vector-effect="non-scaling-stroke" d="
  M 90.19 493.39
  L 91.68 495.21"
/>
<path stroke="#c6bef7" stroke-opacity="0.835" vector-effect="non-scaling-stroke" d="
  M 91.68 495.21
  Q 92.80 497.79 94.86 498.08
  A 0.74 0.73 -72.2 0 0 95.61 497.69
  Q 96.27 496.40 96.22 495.10"
/>
<path stroke="#cac3f9" stroke-opacity="0.639" vector-effect="non-scaling-stroke" d="
  M 96.22 495.10
  L 96.62 492.80"
/>
</g>
<g fill="#c5bdf8">
<path d="
  M 435.67 7.72
  L 440.56 11.95
  L 389.65 12.09
  A 0.45 0.45 0.0 0 0 389.20 12.54
  L 389.48 167.54
  A 0.42 0.41 24.3 0 0 389.59 167.82
  Q 389.94 168.22 389.93 168.50
  Q 389.89 174.95 389.64 183.81
  A 1.21 1.21 0.0 0 0 390.85 185.05
  L 561.73 185.05
  A 0.64 0.62 -86.9 0 0 562.35 184.48
  C 562.59 182.23 562.89 179.81 562.88 177.65
  Q 562.68 94.06 562.97 12.65
  A 0.74 0.74 0.0 0 0 562.24 11.91
  L 491.73 11.81
  L 499.76 7.58
  L 566.50 8.06
  A 0.58 0.58 0.0 0 1 567.08 8.64
  L 567.08 189.51
  A 0.54 0.53 0.0 0 1 566.54 190.04
  L 385.28 190.04
  A 1.05 1.05 0.0 0 1 384.23 189.03
  C 383.82 178.58 384.29 164.69 384.27 157.32
  Q 384.08 90.86 384.38 23.50
  Q 384.42 16.39 385.02 8.57
  A 0.64 0.62 -89.4 0 1 385.61 7.98
  C 393.06 7.48 397.55 6.99 404.82 7.27
  Q 420.28 7.88 435.67 7.72
  Z"
/>
<path d="
  M 187.54 7.96
  A 0.79 0.79 0.0 0 1 188.33 8.73
  C 188.53 16.72 188.97 25.31 188.96 32.42
  Q 188.90 122.70 188.99 188.30
  A 1.71 1.71 0.0 0 1 187.28 190.01
  Q 100.60 189.98 8.49 190.01
  Q 6.03 190.01 6.03 188.01
  Q 5.96 89.85 6.04 9.11
  A 1.15 1.15 0.0 0 1 7.19 7.96
  L 187.54 7.96
  Z
  M 183.76 185.48
  A 0.33 0.33 0.0 0 0 184.09 185.15
  L 184.09 12.31
  A 0.33 0.33 0.0 0 0 183.76 11.98
  L 11.17 11.98
  A 0.33 0.33 0.0 0 0 10.84 12.31
  L 10.84 185.15
  A 0.33 0.33 0.0 0 0 11.17 185.48
  L 183.76 185.48
  Z"
/>
<path d="
  M 237.91 8.09
  Q 242.67 9.17 246.55 11.80
  L 200.57 11.90
  A 0.58 0.58 0.0 0 0 199.99 12.48
  L 199.99 184.69
  A 0.66 0.65 3.5 0 0 200.57 185.34
  C 206.34 186.00 211.25 185.41 216.67 185.51
  C 227.99 185.72 239.77 185.03 250.89 185.10
  Q 301.75 185.41 317.59 185.34
  C 326.33 185.30 336.92 185.86 346.52 185.44
  Q 354.38 185.11 370.03 185.61
  A 4.39 4.06 39.1 0 0 370.80 185.56
  L 372.84 185.21
  A 1.33 1.33 0.0 0 0 373.94 183.90
  L 373.94 12.27
  A 0.50 0.50 0.0 0 0 373.44 11.77
  L 323.56 11.81
  L 316.87 10.93
  A 0.31 0.31 0.0 0 1 316.62 10.51
  L 316.79 10.05
  A 0.24 0.24 0.0 0 1 316.98 9.90
  L 332.03 7.94
  L 377.34 8.06
  A 0.76 0.76 0.0 0 1 378.09 8.82
  L 378.49 167.08
  A 1.90 1.82 37.3 0 0 378.58 167.65
  L 378.67 167.93
  A 2.37 2.34 31.4 0 1 378.99 169.22
  L 378.29 188.64
  A 1.44 1.43 1.0 0 1 376.85 190.02
  L 196.57 190.02
  A 1.28 1.28 0.0 0 1 195.29 188.79
  Q 194.97 181.32 195.14 174.36
  Q 195.45 161.73 195.45 159.95
  Q 195.44 104.45 195.60 20.00
  Q 195.60 16.25 196.00 8.46
  A 0.52 0.51 1.1 0 1 196.52 7.97
  L 237.91 8.09
  Z"
/>
<path d="
  M 71.19 72.25
  C 57.44 86.07 39.49 93.63 20.01 93.40
  Q 18.61 93.39 17.78 93.11
  A 1.04 1.03 9.5 0 1 17.07 92.13
  Q 16.85 55.02 16.89 20.25
  Q 16.90 19.20 17.30 18.80
  Q 17.86 18.23 18.91 18.23
  Q 53.68 18.00 90.79 18.03
  A 1.04 1.03 80.2 0 1 91.77 18.73
  Q 92.06 19.56 92.08 20.96
  C 92.40 40.44 84.94 58.43 71.19 72.25
  Z"
/>
<path d="
  M 177.48 18.67
  Q 177.89 19.07 177.89 20.12
  Q 178.06 54.87 177.98 91.96
  A 1.04 1.03 -9.7 0 1 177.27 92.94
  Q 176.45 93.23 175.05 93.24
  C 155.58 93.54 137.61 86.05 123.82 72.29
  C 110.03 58.53 102.50 40.57 102.76 21.10
  Q 102.77 19.71 103.05 18.88
  A 1.04 1.03 -80.5 0 1 104.03 18.17
  Q 141.12 18.01 175.87 18.11
  Q 176.92 18.11 177.48 18.67
  Z"
/>
<path d="
  M 287.11 71.34
  Q 288.34 68.99 289.16 64.82
  Q 289.99 60.59 294.16 52.65
  C 302.80 36.24 317.80 24.05 336.13 20.43
  C 340.02 19.66 341.84 19.07 345.33 18.99
  C 352.27 18.83 358.78 17.69 365.39 18.91
  A 1.95 1.94 5.4 0 1 366.98 20.82
  Q 367.05 66.92 366.92 113.16
  Q 366.91 116.88 366.45 119.31
  C 365.92 122.07 366.13 124.67 365.57 127.51
  Q 361.81 146.53 348.41 160.17
  C 344.42 164.24 338.98 168.91 333.82 171.67
  Q 323.52 177.18 313.10 178.20
  C 311.09 178.39 308.88 178.97 306.25 178.97
  Q 294.83 178.99 274.75 178.98
  C 259.96 178.96 245.47 177.15 233.57 167.58
  Q 228.90 163.82 227.50 162.55
  C 217.62 153.58 208.84 139.22 207.44 124.82
  Q 207.06 120.88 206.98 117.47
  C 206.34 88.57 206.61 58.00 206.30 32.25
  Q 206.20 24.12 206.92 20.14
  A 1.41 1.40 79.1 0 1 207.55 19.20
  C 210.23 17.44 218.95 18.12 220.27 18.28
  C 224.66 18.85 228.41 18.87 232.20 19.66
  Q 239.49 21.18 242.01 21.99
  Q 261.24 28.18 272.63 42.34
  Q 280.65 52.32 285.21 68.06
  C 285.58 69.34 285.88 70.10 286.53 71.34
  A 0.33 0.33 0.0 0 0 287.11 71.34
  Z"
/>
<path d="
  M 476.10 69.08
  Q 477.01 67.67 477.37 66.33
  Q 479.69 57.78 484.40 49.67
  Q 496.77 28.38 519.50 21.23
  Q 526.65 18.98 532.00 19.02
  C 535.43 19.04 539.92 19.07 544.27 18.55
  Q 549.61 17.92 555.33 18.28
  A 0.78 0.78 0.0 0 1 556.06 19.06
  L 556.06 178.14
  A 0.88 0.87 0.0 0 1 555.18 179.01
  L 396.81 179.01
  A 1.29 1.28 88.8 0 1 395.53 177.77
  Q 395.17 167.57 395.16 161.75
  Q 394.94 87.57 395.68 25.06
  Q 395.72 21.71 396.09 18.84
  A 0.79 0.78 -88.2 0 1 396.82 18.15
  Q 400.83 17.88 404.84 18.39
  C 410.14 19.07 414.64 19.04 419.11 18.99
  C 425.61 18.91 433.06 21.10 438.38 23.61
  Q 465.96 36.61 474.46 67.05
  A 0.98 0.64 -78.4 0 0 474.54 67.25
  L 475.40 69.03
  A 0.40 0.40 0.0 0 0 476.10 69.08
  Z
  M 428.29 99.84
  C 430.32 100.26 431.84 101.69 433.82 102.25
  Q 441.39 104.41 450.96 110.79
  Q 455.19 113.61 456.39 116.16
  A 1.38 1.28 -81.4 0 0 456.62 116.50
  L 466.32 127.57
  A 2.80 2.73 16.6 0 1 466.87 128.56
  Q 467.44 130.40 468.21 131.19
  A 2.43 2.38 -73.4 0 1 468.85 132.41
  Q 469.20 134.21 471.27 138.01
  A 6.96 6.27 -70.3 0 1 471.80 139.30
  L 475.00 150.23
  A 0.23 0.23 0.0 0 0 475.44 150.23
  L 477.84 142.67
  A 1.86 1.67 72.9 0 1 478.03 142.26
  Q 479.85 139.59 481.49 135.22
  A 6.48 5.77 73.7 0 1 481.95 134.25
  Q 483.32 131.92 490.89 120.41
  Q 492.11 118.55 493.94 117.78
  A 2.51 2.47 10.9 0 0 494.75 117.24
  Q 499.70 112.33 501.29 110.67
  Q 502.77 109.12 505.25 107.47
  Q 509.29 104.79 509.56 104.66
  A 10.68 9.43 -28.4 0 1 510.97 104.13
  Q 516.97 102.29 521.72 99.48
  A 0.26 0.26 0.0 0 0 521.59 98.99
  Q 491.76 98.85 486.27 99.34
  Q 479.71 99.91 471.01 99.51
  Q 458.61 98.92 429.79 98.99
  Q 429.40 98.99 428.25 99.43
  A 0.22 0.21 39.5 0 0 428.29 99.84
  Z"
/>
<path d="
  M 91.27 178.03
  C 82.61 178.18 76.12 178.88 66.52 178.93
  Q 38.47 179.07 17.77 178.95
  A 0.88 0.87 90.0 0 1 16.90 178.07
  L 16.90 105.31
  A 2.18 2.17 -85.8 0 1 19.39 103.15
  Q 24.12 103.85 27.77 104.01
  Q 29.23 104.07 35.69 105.29
  Q 39.48 106.01 43.39 107.39
  Q 66.26 115.48 79.97 135.45
  Q 93.09 154.55 91.98 177.35
  A 0.72 0.71 0.8 0 1 91.27 178.03
  Z"
/>
<path d="
  M 177.61 178.29
  Q 177.05 178.86 176.00 178.86
  Q 141.17 179.04 104.00 178.97
  A 1.05 1.03 80.3 0 1 103.02 178.26
  Q 102.73 177.43 102.71 176.04
  C 102.41 156.52 109.91 138.51 123.70 124.68
  C 137.48 110.86 155.48 103.31 174.99 103.56
  Q 176.39 103.57 177.22 103.85
  A 1.05 1.03 9.5 0 1 177.93 104.84
  Q 178.11 142.01 178.02 176.83
  Q 178.02 177.89 177.61 178.29
  Z"
/>
<path d="
  M 188.44 379.07
  L 6.52 379.07
  A 0.51 0.50 90.0 0 1 6.02 378.56
  L 6.02 197.62
  A 0.57 0.57 0.0 0 1 6.52 197.05
  Q 11.53 196.48 14.50 196.44
  C 68.76 195.76 133.35 197.12 185.02 196.20
  Q 186.50 196.17 188.13 196.54
  A 1.11 1.09 6.2 0 1 189.00 197.61
  L 189.00 378.52
  A 0.56 0.55 -0.0 0 1 188.44 379.07
  Z
  M 184.04 202.00
  A 1.01 1.01 0.0 0 0 183.03 200.99
  L 11.91 200.99
  A 1.01 1.01 0.0 0 0 10.90 202.00
  L 10.90 373.50
  A 1.01 1.01 0.0 0 0 11.91 374.51
  L 183.03 374.51
  A 1.01 1.01 0.0 0 0 184.04 373.50
  L 184.04 202.00
  Z"
/>
<path d="
  M 567.36 196.65
  L 567.36 378.53
  A 0.68 0.68 0.0 0 1 566.68 379.21
  L 384.79 379.21
  A 0.68 0.68 0.0 0 1 384.11 378.53
  L 384.11 196.65
  A 0.68 0.68 0.0 0 1 384.79 195.97
  L 566.68 195.97
  A 0.68 0.68 0.0 0 1 567.36 196.65
  Z
  M 390.02 374.23
  A 0.33 0.33 0.0 0 0 390.35 374.56
  L 561.90 374.56
  A 0.33 0.33 0.0 0 0 562.23 374.23
  L 562.23 201.32
  A 0.33 0.33 0.0 0 0 561.90 200.99
  L 390.35 200.99
  A 0.33 0.33 0.0 0 0 390.02 201.32
  L 390.02 374.23
  Z"
/>
<path d="
  M 377.46 379.15
  Q 294.65 379.17 261.75 379.16
  Q 204.55 379.14 199.75 379.36
  Q 197.63 379.45 196.12 379.60
  A 0.92 0.92 0.0 0 1 195.10 378.68
  Q 195.20 236.38 195.19 205.36
  C 195.19 202.61 195.77 200.34 195.87 197.54
  A 0.67 0.66 89.1 0 1 196.49 196.89
  C 203.40 196.36 209.52 196.86 215.30 196.91
  C 229.12 197.02 247.43 196.33 264.96 196.39
  Q 270.13 196.41 334.59 196.45
  C 348.89 196.45 362.98 197.09 377.27 196.80
  A 0.76 0.76 0.0 0 1 378.05 197.56
  L 378.05 378.57
  A 0.59 0.58 0.0 0 1 377.46 379.15
  Z
  M 373.69 201.44
  A 0.44 0.44 0.0 0 0 373.25 201.00
  L 200.43 201.00
  A 0.44 0.44 0.0 0 0 199.99 201.44
  L 199.99 374.26
  A 0.44 0.44 0.0 0 0 200.43 374.70
  L 373.25 374.70
  A 0.44 0.44 0.0 0 0 373.69 374.26
  L 373.69 201.44
  Z"
/>
<path d="
  M 367.2051 336.5394
  A 31.40 31.40 0.0 0 1 335.8600 367.9941
  L 237.6001 368.1656
  A 31.40 31.40 0.0 0 1 206.1454 336.8205
  L 205.9749 239.1206
  A 31.40 31.40 0.0 0 1 237.3200 207.6659
  L 335.5799 207.4944
  A 31.40 31.40 0.0 0 1 367.0346 238.8395
  L 367.2051 336.5394
  Z
  M 286.45 253.29
  Q 286.06 254.20 285.26 257.57
  C 283.82 263.63 280.60 269.04 276.00 273.96
  C 271.01 279.29 267.37 282.95 260.77 285.03
  Q 256.58 286.35 252.32 287.48
  A 0.55 0.55 0.0 0 0 252.32 288.54
  Q 252.89 288.71 256.17 289.23
  C 260.10 289.86 263.38 291.95 267.49 294.30
  Q 278.47 300.59 282.96 311.60
  Q 284.95 316.46 286.29 320.26
  A 0.65 0.65 0.0 0 0 287.54 320.17
  Q 289.16 312.29 293.54 306.02
  C 296.15 302.28 299.72 299.28 303.74 295.23
  A 5.88 5.78 6.9 0 1 304.92 294.32
  Q 310.86 290.79 318.00 288.55
  A 0.82 0.82 0.0 0 0 317.98 286.98
  Q 312.23 285.31 305.59 281.48
  Q 304.22 280.69 298.33 275.23
  C 291.94 269.30 288.27 261.59 287.28 253.41
  A 0.43 0.43 0.0 0 0 286.45 253.29
  Z"
/>
<path d="
  M 97.76 345.16
  Q 97.63 345.07 97.52 344.98
  A 0.27 0.26 -51.7 0 0 97.14 345.03
  Q 97.06 345.13 96.98 345.27
  C 92.70 354.89 86.95 363.19 77.02 366.39
  Q 71.93 368.02 58.80 367.99
  Q 25.43 367.91 17.54 367.94
  A 0.72 0.71 90.0 0 1 16.83 367.22
  Q 16.79 344.34 16.83 328.67
  Q 16.87 314.07 18.62 308.98
  Q 22.62 297.36 35.05 291.00
  Q 35.52 290.76 40.86 288.28
  A 0.49 0.49 0.0 0 0 40.84 287.38
  Q 36.36 285.51 32.08 282.88
  Q 22.82 277.20 19.05 267.50
  Q 17.10 262.49 16.95 248.29
  Q 16.72 227.87 17.00 208.49
  A 0.62 0.61 0.0 0 1 17.62 207.88
  L 71.45 208.00
  A 5.37 5.00 -35.2 0 1 72.85 208.19
  Q 87.03 212.18 93.88 224.80
  Q 96.00 228.70 97.22 231.58
  A 0.26 0.25 -44.7 0 0 97.69 231.58
  Q 99.01 228.48 101.15 224.58
  Q 107.95 212.15 122.20 208.16
  A 2.09 1.95 34.5 0 1 122.80 208.07
  L 177.39 207.89
  A 0.54 0.54 0.0 0 1 177.93 208.42
  Q 178.17 229.37 177.95 248.25
  Q 177.78 262.49 175.84 267.52
  Q 172.15 277.08 162.99 282.81
  Q 159.15 285.22 153.92 287.49
  A 0.41 0.41 0.0 0 0 153.91 288.24
  Q 158.61 290.42 159.72 290.98
  Q 172.20 297.37 176.19 308.92
  Q 177.96 314.03 178.01 327.76
  Q 178.06 343.09 177.99 367.32
  A 0.66 0.66 0.0 0 1 177.33 367.98
  Q 167.40 367.95 140.86 368.01
  Q 124.13 368.04 120.20 367.09
  C 108.52 364.28 102.83 355.88 97.76 345.16
  Z"
/>
<path d="
  M 475.74 274.33
  A 0.33 0.33 0.0 0 0 476.36 274.28
  C 478.85 264.95 482.02 255.71 486.92 247.39
  Q 501.62 222.45 528.82 212.41
  C 537.73 209.12 546.39 207.93 555.52 207.96
  A 0.59 0.58 0.5 0 1 556.10 208.54
  L 556.10 366.05
  A 1.36 1.35 87.2 0 1 554.88 367.40
  Q 553.14 367.57 545.49 367.10
  Q 542.15 366.89 539.62 366.20
  C 537.44 365.61 534.42 365.13 531.91 364.31
  Q 506.13 355.89 490.45 333.59
  Q 482.01 321.58 478.34 308.70
  Q 476.71 302.98 476.31 301.95
  A 0.30 0.29 -38.3 0 0 475.79 301.89
  Q 475.08 302.93 474.00 306.73
  C 466.96 331.39 450.33 352.02 426.61 361.78
  Q 421.67 363.81 417.65 364.80
  Q 411.41 366.33 410.42 366.62
  A 6.81 6.07 -9.9 0 1 409.47 366.78
  L 396.80 367.94
  A 0.71 0.70 -8.4 0 1 396.05 367.39
  Q 395.45 364.75 395.43 360.25
  Q 395.06 282.04 395.86 208.75
  A 0.76 0.75 89.2 0 1 396.58 208.00
  C 405.22 207.63 413.62 208.96 422.10 212.17
  Q 459.97 226.52 473.01 265.62
  C 473.88 268.25 474.46 271.40 475.74 274.33
  Z"
/>
<path d="
  M 378.21 384.97
  A 0.80 0.80 0.0 0 1 379.01 385.77
  L 379.01 567.19
  A 0.97 0.96 -90.0 0 1 378.05 568.16
  Q 242.42 567.87 212.25 568.34
  Q 203.76 568.47 195.76 568.64
  A 0.86 0.85 89.3 0 1 194.89 567.78
  L 194.89 386.02
  A 1.05 1.05 0.0 0 1 195.94 384.97
  L 378.21 384.97
  Z
  M 372.62 562.94
  A 0.50 0.50 0.0 0 0 373.12 562.44
  L 373.12 391.27
  A 0.50 0.50 0.0 0 0 372.62 390.77
  L 201.46 390.77
  A 0.50 0.50 0.0 0 0 200.96 391.27
  L 200.96 562.44
  A 0.50 0.50 0.0 0 0 201.46 562.94
  L 372.62 562.94
  Z"
/>
<path d="
  M 6.78 567.76
  A 0.80 0.80 0.0 0 1 5.99 566.96
  L 6.05 386.67
  A 0.96 0.95 -90.0 0 1 7.01 385.70
  Q 141.79 386.04 171.78 385.58
  Q 180.21 385.45 188.17 385.29
  A 0.85 0.85 0.0 0 1 189.03 386.14
  L 188.97 566.78
  A 1.04 1.04 0.0 0 1 187.92 567.82
  L 6.78 567.76
  Z
  M 184.1297 391.6012
  A 0.81 0.81 0.0 0 0 183.3211 390.7897
  L 11.8813 390.4905
  A 0.81 0.81 0.0 0 0 11.0699 391.2991
  L 10.7703 562.9588
  A 0.81 0.81 0.0 0 0 11.5789 563.7703
  L 183.0187 564.0695
  A 0.81 0.81 0.0 0 0 183.8301 563.2609
  L 184.1297 391.6012
  Z"
/>
<path d="
  M 566.74 385.67
  A 0.80 0.80 0.0 0 1 567.54 386.46
  L 567.43 567.14
  A 0.97 0.96 -90.0 0 1 566.47 568.10
  Q 431.40 567.73 401.35 568.18
  Q 392.89 568.30 384.93 568.47
  A 0.86 0.85 89.4 0 1 384.06 567.61
  L 384.18 386.60
  A 1.05 1.05 0.0 0 1 385.22 385.55
  L 566.74 385.67
  Z
  M 562.12 391.24
  A 0.69 0.69 0.0 0 0 561.43 390.55
  L 390.63 390.55
  A 0.69 0.69 0.0 0 0 389.94 391.24
  L 389.94 563.28
  A 0.69 0.69 0.0 0 0 390.63 563.97
  L 561.43 563.97
  A 0.69 0.69 0.0 0 0 562.12 563.28
  L 562.12 391.24
  Z"
/>
<path d="
  M 286.64 396.80
  Q 348.91 396.80 366.50 397.03
  A 0.35 0.35 0.0 0 1 366.84 397.36
  Q 366.94 398.70 366.76 400.17
  Q 363.89 423.80 343.02 433.79
  C 340.99 434.76 337.33 435.82 334.58 437.01
  A 0.33 0.33 0.0 0 0 334.69 437.65
  Q 336.32 437.78 337.05 438.30
  A 2.57 2.54 -18.7 0 0 337.79 438.66
  Q 342.54 440.08 344.84 441.35
  Q 365.94 452.92 366.95 477.25
  Q 367.01 478.73 366.19 484.15
  Q 365.60 488.06 364.54 490.87
  Q 357.10 510.77 335.34 516.67
  A 0.43 0.43 0.0 0 0 335.24 517.46
  L 337.18 518.58
  A 2.18 2.12 -22.6 0 0 337.71 518.79
  C 354.96 523.15 366.10 538.80 366.76 556.33
  A 1.33 1.33 0.0 0 1 365.45 557.71
  Q 341.65 557.94 286.63 557.94
  Q 231.61 557.94 207.81 557.70
  A 1.33 1.33 0.0 0 1 206.50 556.32
  C 207.16 538.79 218.31 523.14 235.56 518.79
  A 2.18 2.12 22.6 0 0 236.09 518.58
  L 238.03 517.46
  A 0.43 0.43 0.0 0 0 237.93 516.67
  Q 216.17 510.76 208.73 490.86
  Q 207.67 488.05 207.08 484.14
  Q 206.26 478.72 206.32 477.24
  Q 207.33 452.91 228.43 441.34
  Q 230.73 440.07 235.48 438.66
  A 2.57 2.54 18.8 0 0 236.22 438.30
  Q 236.95 437.78 238.58 437.65
  A 0.33 0.33 0.0 0 0 238.69 437.01
  C 235.94 435.82 232.28 434.75 230.25 433.78
  Q 209.38 423.79 206.52 400.16
  Q 206.34 398.69 206.44 397.35
  A 0.35 0.35 0.0 0 1 206.78 397.03
  Q 224.37 396.79 286.64 396.80
  Z"
/>
<path d="
  M 150.61 476.05
  Q 153.54 476.87 156.51 476.91
  Q 167.46 477.06 177.06 476.89
  A 0.99 0.98 89.4 0 1 178.06 477.88
  L 178.06 556.55
  A 0.48 0.48 0.0 0 1 177.59 557.03
  C 172.12 557.07 167.08 557.52 161.76 557.34
  Q 151.27 556.98 126.51 557.04
  C 122.28 557.05 117.31 556.60 113.51 554.29
  Q 108.74 551.39 106.63 549.12
  Q 103.20 545.44 99.18 538.18
  A 0.29 0.29 0.0 0 0 98.65 538.23
  C 97.73 541.16 98.04 547.07 98.04 556.06
  A 1.39 1.35 66.9 0 1 97.68 556.99
  Q 96.75 558.01 94.78 558.01
  Q 39.04 558.00 18.04 557.95
  A 1.11 1.11 0.0 0 1 16.93 556.84
  C 16.95 541.53 16.48 527.76 17.36 512.88
  C 18.10 500.55 25.84 489.26 36.12 483.10
  Q 42.23 479.43 43.31 479.05
  A 0.29 0.29 0.0 0 0 43.36 478.53
  Q 42.59 478.09 41.44 478.08
  Q 32.22 477.99 18.13 477.96
  A 1.25 1.25 0.0 0 1 16.89 476.71
  L 16.89 397.93
  A 0.92 0.92 0.0 0 1 17.81 397.01
  Q 29.87 396.99 62.70 396.98
  Q 72.74 396.98 77.19 398.44
  C 86.14 401.37 90.86 408.25 95.85 416.69
  A 0.22 0.22 0.0 0 0 96.25 416.64
  Q 96.79 414.59 96.88 412.39
  Q 97.12 406.23 96.91 397.73
  A 0.74 0.74 0.0 0 1 97.65 396.98
  L 177.32 396.98
  A 0.69 0.68 -0.0 0 1 178.01 397.66
  Q 178.12 416.41 177.99 433.38
  Q 177.90 443.88 175.99 449.58
  C 171.65 462.47 163.19 469.60 150.58 475.67
  A 0.20 0.20 0.0 0 0 150.61 476.05
  Z
  M 122.93 475.06
  C 117.37 472.12 112.15 468.99 108.26 465.00
  Q 102.33 458.94 99.24 450.25
  A 0.24 0.24 0.0 0 0 98.80 450.23
  Q 98.24 451.44 98.22 452.76
  Q 98.07 460.79 98.12 475.88
  A 0.93 0.93 0.0 0 0 98.99 476.81
  Q 111.50 477.60 122.85 475.55
  A 0.26 0.26 0.0 0 0 122.93 475.06
  Z
  M 90.19 493.39
  L 91.68 495.21
  Q 92.80 497.79 94.86 498.08
  A 0.74 0.73 -72.2 0 0 95.61 497.69
  Q 96.27 496.40 96.22 495.10
  L 96.62 492.80
  L 96.88 478.59
  A 0.56 0.56 0.0 0 0 96.33 478.02
  Q 85.76 477.97 74.89 478.15
  C 74.05 478.16 72.09 478.56 71.34 478.69
  A 0.20 0.20 0.0 0 0 71.27 479.06
  Q 74.35 480.87 80.54 484.20
  Q 83.98 486.05 90.19 493.39
  Z"
/>
<path d="
  M 549.02 477.53
  Q 549.10 477.62 552.24 480.62
  Q 554.41 482.71 555.79 486.36
  A 4.12 4.05 -56.8 0 1 556.06 487.71
  Q 556.59 512.19 556.21 543.06
  Q 556.14 548.46 554.61 551.18
  Q 552.39 555.10 548.01 556.88
  A 1.88 1.85 33.4 0 1 547.30 557.02
  L 484.28 557.02
  A 1.34 1.24 55.9 0 1 483.72 556.89
  Q 479.37 554.85 477.32 551.30
  A 1.62 1.61 -42.4 0 0 474.60 551.18
  Q 471.97 554.91 467.71 556.77
  A 2.33 2.30 -56.7 0 1 466.77 556.97
  C 464.12 557.00 460.71 557.59 457.42 557.59
  Q 434.00 557.61 413.76 557.37
  Q 410.84 557.33 405.14 556.97
  A 4.22 3.52 50.2 0 1 404.32 556.82
  Q 395.94 554.35 395.90 544.55
  Q 395.78 509.74 395.88 490.49
  Q 395.90 486.12 397.23 483.36
  A 1.96 1.76 82.6 0 1 397.56 482.88
  L 402.94 477.51
  A 0.74 0.74 0.0 0 0 402.79 476.35
  Q 395.82 472.26 395.84 463.76
  Q 395.88 441.07 395.88 410.25
  Q 395.88 402.07 402.10 398.56
  Q 405.51 396.64 414.19 396.97
  Q 415.69 397.03 463.48 397.01
  A 4.74 4.42 -35.7 0 1 464.65 397.16
  L 468.70 398.19
  A 1.58 1.25 -18.1 0 1 469.00 398.30
  C 471.80 399.65 473.27 401.94 475.50 404.73
  A 0.18 0.18 0.0 0 0 475.77 404.74
  L 481.76 398.75
  A 1.44 1.41 13.9 0 1 482.32 398.42
  L 486.76 397.12
  A 3.32 3.22 36.4 0 1 487.64 397.00
  Q 501.48 397.01 543.23 396.99
  Q 546.14 396.99 549.19 398.41
  Q 554.01 400.66 555.83 406.27
  A 2.84 2.63 38.3 0 1 555.96 407.10
  Q 556.14 439.61 556.16 464.38
  Q 556.17 468.66 553.58 472.39
  C 552.31 474.23 550.20 475.45 549.05 476.61
  A 0.68 0.67 47.3 0 0 549.02 477.53
  Z
  M 475.67 509.43
  Q 476.04 508.35 476.80 507.68
  Q 477.62 506.96 478.17 504.39
  A 4.50 4.30 66.1 0 1 478.60 503.20
  L 483.77 493.41
  A 3.05 2.95 82.6 0 1 484.29 492.71
  L 490.36 486.64
  A 0.28 0.10 -19.3 0 1 490.41 486.60
  L 500.89 480.29
  A 1.36 0.92 -55.9 0 1 501.09 480.21
  L 509.22 477.85
  A 0.67 0.66 -38.6 0 0 509.36 476.63
  Q 508.04 475.91 506.16 475.93
  A 3.22 3.00 52.5 0 1 505.04 475.74
  Q 496.52 472.63 491.99 468.87
  Q 486.51 464.32 480.58 456.08
  Q 480.28 455.67 477.78 449.86
  A 1.79 1.34 36.8 0 1 477.68 449.52
  L 476.42 442.22
  A 0.44 0.44 0.0 0 0 475.55 442.21
  Q 473.89 450.91 469.07 458.94
  C 466.72 462.86 462.62 466.15 460.14 468.87
  A 3.51 3.50 8.6 0 1 459.01 469.70
  Q 457.76 470.30 456.42 471.42
  A 5.09 4.97 11.0 0 1 455.37 472.11
  C 454.01 472.79 443.83 477.03 440.55 476.43
  A 0.13 0.13 0.0 0 0 440.40 476.54
  L 440.40 476.55
  A 0.14 0.13 14.3 0 0 440.49 476.69
  L 454.50 481.96
  A 2.37 2.31 -14.8 0 1 455.14 482.32
  Q 457.64 484.37 461.56 487.02
  Q 464.01 488.69 465.99 491.04
  Q 466.85 492.07 471.60 499.75
  A 2.25 2.25 0.0 0 1 471.80 500.15
  L 475.34 509.43
  A 0.18 0.17 44.7 0 0 475.67 509.43
  Z"
/>
</g>
<g fill="#ded8fb" fill-opacity="0.275">
<path d="
  M 305.29 7.81
  Q 305.43 9.87 306.29 11.62
  Q 300.36 11.77 294.45 11.29
  Q 292.07 11.10 289.56 11.28
  Q 287.04 11.46 284.74 10.50
  A 1.54 1.53 -42.2 0 0 283.68 10.45
  L 281.11 11.27
  A 1.14 0.98 -49.4 0 1 280.79 11.32
  L 264.82 11.76
  L 262.52 7.97
  L 305.29 7.81
  Z"
/>
<path d="
  M 96.62 492.80
  L 96.22 495.10
  Q 94.32 495.87 91.68 495.21
  L 90.19 493.39
  L 96.62 492.80
  Z"
/>
<ellipse cx="0.00" cy="0.00" transform="translate(94.38,495.88) rotate(-180.0)" rx="0.14" ry="0.05"/>
</g>
<g fill="#d1c7fd" fill-opacity="0.839">
<path d="
  M 499.76 7.58
  L 491.73 11.81
  L 440.56 11.95
  L 435.67 7.72
  L 499.76 7.58
  Z"
/>
<path d="
  M 97.76 345.16
  L 96.98 345.27
  Q 97.06 345.13 97.14 345.03
  A 0.27 0.26 -51.7 0 1 97.52 344.98
  Q 97.63 345.07 97.76 345.16
  Z"
/>
</g>
<g fill="#c7bff5" fill-opacity="0.671">
<path d="
  M 332.03 7.94
  L 316.98 9.90
  A 0.24 0.24 0.0 0 0 316.79 10.05
  L 316.62 10.51
  A 0.31 0.31 0.0 0 0 316.87 10.93
  L 323.56 11.81
  L 306.29 11.62
  Q 305.43 9.87 305.29 7.81
  L 332.03 7.94
  Z"
/>
<path d="
  M 262.52 7.97
  L 264.82 11.76
  L 246.55 11.80
  Q 242.67 9.17 237.91 8.09
  L 262.52 7.97
  Z"
/>
<path d="
  M 96.22 495.10
  Q 96.27 496.40 95.61 497.69
  A 0.74 0.73 -72.2 0 1 94.86 498.08
  Q 92.80 497.79 91.68 495.21
  Q 94.32 495.87 96.22 495.10
  Z
  M 94.2400 495.8800
  A 0.14 0.05 -180.0 0 0 94.3800 495.9300
  A 0.14 0.05 -180.0 0 0 94.5200 495.8800
  A 0.14 0.05 -180.0 0 0 94.3800 495.8300
  A 0.14 0.05 -180.0 0 0 94.2400 495.8800
  Z"
/>
</g>
</svg>
