<?xml version="1.0" encoding="UTF-8" standalone="no"?>
<!DOCTYPE svg PUBLIC "-//W3C//DTD SVG 1.1//EN" "http://www.w3.org/Graphics/SVG/1.1/DTD/svg11.dtd">
<svg xmlns="http://www.w3.org/2000/svg" version="1.1" viewBox="0.00 0.00 590.00 588.00">
<g stroke-width="2.00" fill="none" stroke-linecap="butt">
<path stroke="#f7a68e" vector-effect="non-scaling-stroke" d="
  M 189.03 8.44
  A 0.41 0.41 0.0 0 0 188.62 8.03
  L 8.28 8.03
  A 0.41 0.41 0.0 0 0 7.87 8.44
  L 7.87 188.78
  A 0.41 0.41 0.0 0 0 8.28 189.19
  L 188.62 189.19
  A 0.41 0.41 0.0 0 0 189.03 188.78
  L 189.03 8.44"
/>
<path stroke="#f7a68e" vector-effect="non-scaling-stroke" d="
  M 378.36 8.30
  A 0.36 0.36 0.0 0 0 378.00 7.94
  L 197.36 7.94
  A 0.36 0.36 0.0 0 0 197.00 8.30
  L 197.00 188.94
  A 0.36 0.36 0.0 0 0 197.36 189.30
  L 378.00 189.30
  A 0.36 0.36 0.0 0 0 378.36 188.94
  L 378.36 8.30"
/>
<path stroke="#f7a68e" vector-effect="non-scaling-stroke" d="
  M 567.51 8.35
  A 0.45 0.45 0.0 0 0 567.06 7.90
  L 386.62 7.90
  A 0.45 0.45 0.0 0 0 386.17 8.35
  L 386.17 188.79
  A 0.45 0.45 0.0 0 0 386.62 189.24
  L 567.06 189.24
  A 0.45 0.45 0.0 0 0 567.51 188.79
  L 567.51 8.35"
/>
<path stroke="#f7a68e" vector-effect="non-scaling-stroke" d="
  M 189.13 197.58
  A 0.40 0.40 0.0 0 0 188.73 197.18
  L 8.17 197.18
  A 0.40 0.40 0.0 0 0 7.77 197.58
  L 7.77 378.14
  A 0.40 0.40 0.0 0 0 8.17 378.54
  L 188.73 378.54
  A 0.40 0.40 0.0 0 0 189.13 378.14
  L 189.13 197.58"
/>
<path stroke="#f7a68e" vector-effect="non-scaling-stroke" d="
  M 378.41 197.51
  A 0.39 0.39 0.0 0 0 378.02 197.12
  L 197.32 197.12
  A 0.39 0.39 0.0 0 0 196.93 197.51
  L 196.93 378.21
  A 0.39 0.39 0.0 0 0 197.32 378.60
  L 378.02 378.60
  A 0.39 0.39 0.0 0 0 378.41 378.21
  L 378.41 197.51"
/>
<path stroke="#f7a68e" vector-effect="non-scaling-stroke" d="
  M 567.59 197.53
  A 0.42 0.42 0.0 0 0 567.17 197.11
  L 386.51 197.11
  A 0.42 0.42 0.0 0 0 386.09 197.53
  L 386.09 378.19
  A 0.42 0.42 0.0 0 0 386.51 378.61
  L 567.17 378.61
  A 0.42 0.42 0.0 0 0 567.59 378.19
  L 567.59 197.53"
/>
<path stroke="#f7a68e" vector-effect="non-scaling-stroke" d="
  M 189.07 387.03
  A 0.41 0.41 0.0 0 0 188.66 386.62
  L 8.24 386.62
  A 0.41 0.41 0.0 0 0 7.83 387.03
  L 7.83 567.45
  A 0.41 0.41 0.0 0 0 8.24 567.86
  L 188.66 567.86
  A 0.41 0.41 0.0 0 0 189.07 567.45
  L 189.07 387.03"
/>
<path stroke="#f7a68e" vector-effect="non-scaling-stroke" d="
  M 378.35 386.97
  A 0.42 0.42 0.0 0 0 377.93 386.55
  L 197.39 386.55
  A 0.42 0.42 0.0 0 0 196.97 386.97
  L 196.97 567.51
  A 0.42 0.42 0.0 0 0 197.39 567.93
  L 377.93 567.93
  A 0.42 0.42 0.0 0 0 378.35 567.51
  L 378.35 386.97"
/>
<path stroke="#f7a68e" vector-effect="non-scaling-stroke" d="
  M 567.54 387.01
  A 0.49 0.49 0.0 0 0 567.05 386.52
  L 386.63 386.52
  A 0.49 0.49 0.0 0 0 386.14 387.01
  L 386.14 567.43
  A 0.49 0.49 0.0 0 0 386.63 567.92
  L 567.05 567.92
  A 0.49 0.49 0.0 0 0 567.54 567.43
  L 567.54 387.01"
/>
<path stroke="#f7a68e" vector-effect="non-scaling-stroke" d="
  M 185.94 11.66
  A 0.76 0.76 0.0 0 0 185.18 10.90
  L 11.52 10.90
  A 0.76 0.76 0.0 0 0 10.76 11.66
  L 10.76 185.32
  A 0.76 0.76 0.0 0 0 11.52 186.08
  L 185.18 186.08
  A 0.76 0.76 0.0 0 0 185.94 185.32
  L 185.94 11.66"
/>
<path stroke="#f7a68e" vector-effect="non-scaling-stroke" d="
  M 375.16 11.76
  A 0.71 0.71 0.0 0 0 374.45 11.05
  L 200.93 11.05
  A 0.71 0.71 0.0 0 0 200.22 11.76
  L 200.22 185.28
  A 0.71 0.71 0.0 0 0 200.93 185.99
  L 374.45 185.99
  A 0.71 0.71 0.0 0 0 375.16 185.28
  L 375.16 11.76"
/>
<path stroke="#f7a68e" vector-effect="non-scaling-stroke" d="
  M 564.38 11.59
  A 0.53 0.53 0.0 0 0 563.85 11.06
  L 389.95 11.06
  A 0.53 0.53 0.0 0 0 389.42 11.59
  L 389.42 185.49
  A 0.53 0.53 0.0 0 0 389.95 186.02
  L 563.85 186.02
  A 0.53 0.53 0.0 0 0 564.38 185.49
  L 564.38 11.59"
/>
<path stroke="#dbd3ec" vector-effect="non-scaling-stroke" d="
  M 72.12 72.23
  C 86.08 58.23 93.63 39.12 93.06 19.29
  A 1.03 1.03 0.0 0 0 92.03 18.29
  Q 55.76 18.53 19.03 18.44
  Q 18.70 18.44 18.46 18.68
  Q 18.18 18.96 18.18 19.29
  Q 18.37 56.03 18.23 92.29
  A 1.03 1.03 0.0 0 0 19.23 93.32
  C 39.07 93.83 58.16 86.24 72.12 72.23"
/>
<path stroke="#dbd3ec" vector-effect="non-scaling-stroke" d="
  M 124.68 72.21
  C 138.65 86.18 157.74 93.74 177.55 93.20
  A 1.03 1.03 0.0 0 0 178.55 92.17
  Q 178.36 55.94 178.49 19.24
  Q 178.49 18.91 178.21 18.63
  Q 177.98 18.39 177.64 18.39
  Q 140.94 18.53 104.71 18.35
  A 1.03 1.03 0.0 0 0 103.68 19.35
  C 103.15 39.16 110.71 58.24 124.68 72.21"
/>
<path stroke="#dbd3ec" vector-effect="non-scaling-stroke" d="
  M 72.03 124.64
  C 58.02 110.71 38.93 103.21 19.12 103.80
  A 1.03 1.03 0.0 0 0 18.13 104.83
  Q 18.41 141.05 18.38 177.73
  Q 18.38 178.06 18.62 178.30
  Q 18.90 178.58 19.23 178.58
  Q 55.91 178.34 92.13 178.43
  A 1.03 1.03 0.0 0 0 93.16 177.43
  C 93.64 157.62 86.03 138.57 72.03 124.64"
/>
<path stroke="#dbd3ec" vector-effect="non-scaling-stroke" d="
  M 124.73 124.71
  C 110.77 138.69 103.23 157.78 103.79 177.59
  A 1.03 1.03 0.0 0 0 104.82 178.59
  Q 141.04 178.37 177.74 178.47
  Q 178.07 178.47 178.35 178.19
  Q 178.59 177.95 178.59 177.62
  Q 178.42 140.92 178.57 104.69
  A 1.03 1.03 0.0 0 0 177.57 103.66
  C 157.76 103.15 138.68 110.73 124.73 124.71"
/>
<path stroke="#dbd3ec" vector-effect="non-scaling-stroke" d="
  M 287.15 74.41
  C 286.62 72.97 286.79 71.16 286.29 69.15
  C 281.13 48.12 269.09 31.96 248.66 23.82
  Q 242.29 21.28 233.82 19.70
  C 229.49 18.90 226.58 18.95 221.99 18.57
  Q 215.66 18.06 209.06 18.66
  A 1.41 1.41 0.0 0 0 207.78 20.05
  Q 207.42 64.30 207.91 114.26
  Q 207.98 121.53 208.44 125.28
  Q 209.21 131.59 210.82 136.01
  Q 221.42 165.12 249.66 175.27
  C 257.24 177.99 264.11 178.45 272.75 178.53
  Q 298.05 178.76 306.61 178.57
  Q 330.99 178.04 348.61 161.15
  Q 357.49 152.64 362.98 140.04
  C 364.31 136.99 365.20 132.99 366.08 130.44
  Q 367.48 126.37 367.51 115.76
  Q 367.75 35.50 367.66 20.00
  A 1.30 1.30 0.0 0 0 365.96 18.78
  Q 365.51 18.93 364.76 18.93
  Q 356.83 18.92 346.25 19.09
  Q 342.84 19.14 341.34 19.54
  C 337.33 20.61 333.55 20.96 329.31 22.50
  Q 306.93 30.61 295.45 51.94
  Q 289.76 62.51 288.22 74.29
  A 0.56 0.55 -51.3 0 1 287.15 74.41"
/>
<path stroke="#dbd3ec" vector-effect="non-scaling-stroke" d="
  M 476.89 72.29
  Q 476.54 72.29 476.49 71.99
  Q 473.01 53.56 461.08 39.71
  Q 447.01 23.39 425.26 19.44
  Q 423.20 19.06 414.49 19.10
  C 407.97 19.13 402.71 18.59 397.55 18.32
  A 0.83 0.83 0.0 0 0 396.68 19.15
  L 396.68 178.01
  A 0.61 0.60 89.9 0 0 397.29 178.62
  Q 431.64 178.63 476.87 178.64
  Q 522.10 178.64 556.46 178.64
  A 0.61 0.60 -89.9 0 0 557.07 178.03
  L 557.10 19.17
  A 0.83 0.83 0.0 0 0 556.23 18.34
  C 551.07 18.61 545.81 19.15 539.29 19.11
  Q 530.58 19.07 528.52 19.45
  Q 506.77 23.40 492.70 39.71
  Q 480.76 53.56 477.28 71.99
  Q 477.23 72.29 476.89 72.29"
/>
<path stroke="#dbd3ec" vector-effect="non-scaling-stroke" d="
  M 526.20 98.74
  L 426.64 98.74
  A 0.39 0.39 0.0 0 0 426.55 99.51
  C 452.75 105.89 472.42 126.31 476.32 153.36
  A 0.39 0.39 0.0 0 0 477.08 153.38
  Q 485.57 111.69 526.29 99.32
  A 0.30 0.30 0.0 0 0 526.20 98.74"
/>
<path stroke="#f7a68e" vector-effect="non-scaling-stroke" d="
  M 185.89 200.85
  A 0.55 0.55 0.0 0 0 185.34 200.30
  L 11.40 200.30
  A 0.55 0.55 0.0 0 0 10.85 200.85
  L 10.85 374.79
  A 0.55 0.55 0.0 0 0 11.40 375.34
  L 185.34 375.34
  A 0.55 0.55 0.0 0 0 185.89 374.79
  L 185.89 200.85"
/>
<path stroke="#f7a68e" vector-effect="non-scaling-stroke" d="
  M 375.19 201.12
  A 0.78 0.78 0.0 0 0 374.41 200.34
  L 201.03 200.34
  A 0.78 0.78 0.0 0 0 200.25 201.12
  L 200.25 374.50
  A 0.78 0.78 0.0 0 0 201.03 375.28
  L 374.41 375.28
  A 0.78 0.78 0.0 0 0 375.19 374.50
  L 375.19 201.12"
/>
<path stroke="#f7a68e" vector-effect="non-scaling-stroke" d="
  M 564.35 200.94
  A 0.55 0.55 0.0 0 0 563.80 200.39
  L 390.00 200.39
  A 0.55 0.55 0.0 0 0 389.45 200.94
  L 389.45 374.74
  A 0.55 0.55 0.0 0 0 390.00 375.29
  L 563.80 375.29
  A 0.55 0.55 0.0 0 0 564.35 374.74
  L 564.35 200.94"
/>
<path stroke="#dbd3ec" vector-effect="non-scaling-stroke" d="
  M 98.45 342.35
  Q 98.82 342.35 98.94 342.79
  C 102.01 353.94 109.98 363.84 121.23 366.87
  Q 124.40 367.72 140.32 367.60
  Q 149.08 367.54 178.10 367.80
  A 0.61 0.61 0.0 0 0 178.71 367.18
  Q 178.45 345.10 178.29 322.44
  Q 178.23 313.66 177.26 310.19
  C 174.15 299.15 164.60 291.66 153.80 288.35
  A 0.59 0.59 0.0 0 1 153.82 287.22
  Q 163.55 284.59 170.50 277.30
  Q 178.14 269.27 178.22 257.75
  Q 178.46 223.42 178.66 208.48
  A 0.62 0.62 0.0 0 0 178.04 207.85
  Q 144.43 208.09 139.57 208.03
  Q 124.81 207.85 121.03 208.97
  C 109.81 212.29 101.93 221.85 98.83 233.11
  Q 98.75 233.37 98.42 233.37
  Q 98.08 233.37 98.01 233.11
  C 94.90 221.85 87.02 212.30 75.79 208.98
  Q 72.01 207.87 57.25 208.06
  Q 52.39 208.12 18.78 207.90
  A 0.62 0.62 0.0 0 0 18.16 208.53
  Q 18.37 223.47 18.64 257.80
  Q 18.72 269.32 26.37 277.35
  Q 33.32 284.63 43.05 287.26
  A 0.59 0.59 0.0 0 1 43.07 288.39
  C 32.28 291.70 22.73 299.20 19.63 310.24
  Q 18.66 313.71 18.61 322.49
  Q 18.46 345.15 18.22 367.23
  A 0.61 0.61 0.0 0 0 18.83 367.85
  Q 47.85 367.57 56.61 367.63
  Q 72.53 367.74 75.70 366.88
  C 86.94 363.85 94.91 353.94 97.97 342.79
  Q 98.09 342.35 98.45 342.35"
/>
<path stroke="#dbd3ec" vector-effect="non-scaling-stroke" d="
  M 337.15 367.80
  A 30.41 30.41 0.0 0 0 367.56 337.39
  L 367.56 238.40
  A 30.41 30.41 0.0 0 0 337.15 207.99
  L 238.16 207.99
  A 30.41 30.41 0.0 0 0 207.75 238.40
  L 207.75 337.39
  A 30.41 30.41 0.0 0 0 238.16 367.80
  L 337.15 367.80"
/>
<path stroke="#dbd3ec" vector-effect="non-scaling-stroke" d="
  M 396.73 287.91
  Q 396.74 365.88 396.72 367.29
  A 0.44 0.43 1.7 0 0 397.13 367.73
  Q 408.23 368.14 419.83 364.52
  C 449.60 355.23 470.73 330.52 476.34 299.53
  Q 476.44 298.98 476.80 298.98
  Q 477.16 298.98 477.26 299.53
  C 482.88 330.52 504.01 355.23 533.78 364.51
  Q 545.38 368.13 556.48 367.72
  A 0.44 0.43 -1.7 0 0 556.90 367.28
  Q 556.87 365.87 556.87 287.90
  Q 556.86 209.92 556.89 208.51
  A 0.44 0.43 1.7 0 0 556.47 208.07
  Q 545.37 207.66 533.77 211.28
  C 504.00 220.57 482.87 245.28 477.26 276.27
  Q 477.16 276.82 476.80 276.82
  Q 476.44 276.82 476.34 276.27
  C 470.72 245.28 449.59 220.57 419.82 211.29
  Q 408.22 207.67 397.12 208.08
  A 0.44 0.43 -1.7 0 0 396.71 208.52
  Q 396.73 209.93 396.73 287.91"
/>
<path stroke="#dbd3ec" vector-effect="non-scaling-stroke" d="
  M 275.71 275.95
  Q 268.57 283.11 257.66 286.40
  Q 254.58 287.34 252.36 287.05
  A 0.43 0.43 0.0 0 0 251.88 287.42
  L 251.87 287.44
  A 0.59 0.58 11.4 0 0 252.31 288.09
  Q 259.28 289.77 261.39 290.62
  Q 280.39 298.32 286.23 317.84
  Q 286.77 319.66 286.80 320.66
  Q 286.83 321.54 287.18 323.53
  A 0.35 0.35 0.0 0 0 287.87 323.53
  Q 290.49 308.98 299.63 299.82
  Q 308.78 290.65 323.31 288.00
  A 0.35 0.35 0.0 0 0 323.31 287.31
  Q 321.32 286.96 320.44 286.93
  Q 319.44 286.91 317.62 286.37
  Q 298.09 280.58 290.34 261.60
  Q 289.48 259.49 287.79 252.53
  A 0.59 0.58 78.4 0 0 287.14 252.09
  L 287.12 252.10
  A 0.43 0.43 0.0 0 0 286.75 252.58
  Q 287.04 254.80 286.11 257.88
  Q 282.85 268.79 275.71 275.95"
/>
<path stroke="#f7a68e" vector-effect="non-scaling-stroke" d="
  M 185.90 390.16
  A 0.51 0.51 0.0 0 0 185.39 389.65
  L 11.33 389.65
  A 0.51 0.51 0.0 0 0 10.82 390.16
  L 10.82 564.22
  A 0.51 0.51 0.0 0 0 11.33 564.73
  L 185.39 564.73
  A 0.51 0.51 0.0 0 0 185.90 564.22
  L 185.90 390.16"
/>
<path stroke="#f7a68e" vector-effect="non-scaling-stroke" d="
  M 375.16 390.23
  A 0.51 0.51 0.0 0 0 374.65 389.72
  L 200.73 389.72
  A 0.51 0.51 0.0 0 0 200.22 390.23
  L 200.22 564.15
  A 0.51 0.51 0.0 0 0 200.73 564.66
  L 374.65 564.66
  A 0.51 0.51 0.0 0 0 375.16 564.15
  L 375.16 390.23"
/>
<path stroke="#f7a68e" vector-effect="non-scaling-stroke" d="
  M 564.35 390.26
  A 0.51 0.51 0.0 0 0 563.84 389.75
  L 389.94 389.75
  A 0.51 0.51 0.0 0 0 389.43 390.26
  L 389.43 564.16
  A 0.51 0.51 0.0 0 0 389.94 564.67
  L 563.84 564.67
  A 0.51 0.51 0.0 0 0 564.35 564.16
  L 564.35 390.26"
/>
<path stroke="#dbd3ec" vector-effect="non-scaling-stroke" d="
  M 147.54 476.25
  C 148.97 475.37 151.48 475.12 153.41 474.29
  C 165.28 469.23 174.62 459.07 177.39 446.28
  Q 178.63 440.54 178.62 437.93
  Q 178.51 421.12 178.67 397.71
  A 0.53 0.53 0.0 0 0 178.14 397.18
  L 98.90 397.18
  A 0.51 0.51 0.0 0 0 98.39 397.66
  Q 97.61 408.99 98.45 420.33
  A 0.49 0.49 0.0 0 1 97.50 420.55
  C 93.42 410.19 88.39 402.57 77.80 398.42
  A 5.59 5.46 58.2 0 0 76.42 398.08
  Q 72.30 397.62 71.18 397.61
  Q 50.46 397.54 18.66 397.14
  A 0.50 0.49 -89.4 0 0 18.16 397.64
  L 18.16 476.69
  A 0.46 0.45 -89.4 0 0 18.60 477.15
  L 48.60 477.83
  A 0.26 0.26 0.0 0 1 48.83 478.19
  Q 48.62 478.69 48.06 478.82
  Q 40.00 480.75 32.96 486.45
  Q 18.76 497.95 18.49 516.54
  Q 18.14 541.82 18.09 556.94
  A 0.51 0.50 90.0 0 0 18.59 557.45
  L 98.12 557.45
  A 0.45 0.45 0.0 0 0 98.57 557.01
  L 99.10 534.59
  A 0.46 0.45 -75.1 0 1 99.77 534.20
  Q 99.87 534.25 100.00 534.69
  Q 105.10 552.08 122.20 556.81
  A 3.41 3.37 -42.0 0 0 123.72 556.88
  Q 125.71 556.51 127.91 557.11
  A 1.58 1.38 48.7 0 0 128.29 557.16
  L 177.73 557.22
  A 0.89 0.89 0.0 0 0 178.62 556.33
  L 178.62 478.07
  A 0.58 0.58 0.0 0 0 178.06 477.49
  L 147.69 476.80
  A 0.30 0.30 0.0 0 1 147.54 476.25"
/>
<path stroke="#dbd3ec" vector-effect="non-scaling-stroke" d="
  M 287.66 557.36
  Q 352.41 557.36 363.50 557.38
  Q 365.46 557.39 367.24 557.27
  A 0.42 0.42 0.0 0 0 367.64 556.84
  Q 367.31 543.62 359.46 533.33
  Q 349.50 520.28 331.45 517.61
  A 0.06 0.04 -83.0 0 1 331.42 517.56
  L 331.42 517.31
  A 0.41 0.41 0.0 0 1 331.82 516.90
  Q 334.74 516.83 338.40 515.69
  C 352.69 511.25 363.93 500.10 366.71 485.46
  C 370.44 465.85 360.95 448.51 342.83 440.45
  Q 337.29 437.98 331.68 437.42
  A 0.27 0.27 0.0 0 1 331.67 436.88
  C 352.20 434.03 367.11 418.34 367.64 397.58
  A 0.32 0.32 0.0 0 0 367.33 397.25
  Q 365.49 397.19 287.65 397.20
  Q 209.80 397.20 207.96 397.26
  A 0.32 0.32 0.0 0 0 207.66 397.60
  C 208.19 418.36 223.10 434.04 243.63 436.89
  A 0.27 0.27 0.0 0 1 243.62 437.43
  Q 238.01 437.99 232.47 440.46
  C 214.36 448.52 204.87 465.87 208.60 485.48
  C 211.39 500.11 222.63 511.26 236.92 515.70
  Q 240.58 516.84 243.50 516.91
  A 0.41 0.41 0.0 0 1 243.90 517.32
  L 243.90 517.57
  A 0.06 0.04 83.0 0 1 243.87 517.62
  Q 225.82 520.29 215.86 533.34
  Q 208.01 543.64 207.69 556.86
  A 0.42 0.42 0.0 0 0 208.09 557.29
  Q 209.87 557.40 211.83 557.40
  Q 222.92 557.37 287.66 557.36"
/>
<path stroke="#dbd3ec" vector-effect="non-scaling-stroke" d="
  M 476.95 549.37
  Q 477.51 549.37 477.72 549.78
  Q 480.65 555.30 485.96 556.98
  Q 487.12 557.35 497.09 557.29
  Q 530.83 557.12 540.57 557.27
  Q 547.89 557.38 550.27 556.15
  Q 554.71 553.85 556.58 548.75
  A 2.72 2.59 56.7 0 0 556.75 547.81
  Q 556.93 527.95 556.87 490.24
  Q 556.85 481.46 548.81 477.88
  A 0.60 0.60 0.0 0 1 548.70 476.85
  Q 549.54 476.21 551.86 474.59
  Q 556.80 471.12 556.81 464.75
  Q 556.85 421.75 556.62 409.13
  Q 556.58 406.71 556.40 405.51
  A 3.82 3.79 22.7 0 0 555.70 403.82
  C 552.36 399.29 550.10 397.23 544.74 397.23
  Q 512.40 397.20 497.02 397.14
  Q 487.63 397.10 485.57 397.73
  Q 480.22 399.38 477.34 405.43
  Q 477.08 405.98 476.77 405.98
  Q 476.47 405.98 476.21 405.43
  Q 473.31 399.39 467.96 397.75
  Q 465.90 397.13 456.51 397.19
  Q 441.13 397.29 408.79 397.39
  C 403.43 397.41 401.17 399.47 397.84 404.01
  A 3.82 3.79 -22.9 0 0 397.15 405.70
  Q 396.97 406.90 396.94 409.32
  Q 396.74 421.94 396.88 464.94
  Q 396.90 471.31 401.85 474.77
  Q 404.18 476.38 405.02 477.02
  A 0.60 0.60 0.0 0 1 404.91 478.05
  Q 396.88 481.65 396.88 490.43
  Q 396.91 528.14 397.14 548.00
  A 2.72 2.59 -56.9 0 0 397.31 548.94
  Q 399.19 554.04 403.64 556.33
  Q 406.02 557.55 413.34 557.42
  Q 423.08 557.25 456.82 557.34
  Q 466.79 557.37 467.95 557.00
  Q 473.26 555.31 476.17 549.79
  Q 476.39 549.37 476.95 549.37"
/>
<path stroke="#dbd3ec" vector-effect="non-scaling-stroke" d="
  M 67.06 477.87
  A 0.41 0.41 0.0 0 0 67.28 478.53
  C 81.29 481.99 93.38 492.57 96.54 507.16
  Q 96.96 509.10 97.44 510.89
  A 0.35 0.35 0.0 0 0 98.13 510.80
  C 98.19 508.90 98.46 506.90 98.35 505.06
  Q 97.58 491.42 98.55 478.34
  A 1.08 1.07 1.5 0 1 99.60 477.35
  L 128.31 476.70
  A 0.35 0.34 9.3 0 0 128.64 476.47
  L 128.64 476.44
  A 0.56 0.55 14.7 0 0 128.26 475.79
  C 113.17 471.08 101.78 459.90 99.75 443.82
  A 0.19 0.19 0.0 0 0 99.55 443.65
  L 99.28 443.65
  A 0.44 0.44 0.0 0 0 98.85 444.11
  Q 99.26 459.90 98.06 476.07
  A 1.00 1.00 0.0 0 1 97.12 477.00
  Q 82.31 477.82 68.02 477.52
  Q 67.35 477.51 67.06 477.87"
/>
<path stroke="#dbd3ec" vector-effect="non-scaling-stroke" d="
  M 476.93 512.91
  Q 477.02 512.91 477.09 512.88
  A 0.33 0.12 -83.6 0 0 477.21 512.64
  Q 482.06 486.04 507.98 478.27
  A 1.76 0.57 -27.0 0 1 508.17 478.24
  L 512.20 478.01
  A 0.32 0.32 0.0 0 0 512.31 477.40
  Q 511.81 477.11 506.51 475.55
  C 490.20 470.77 479.95 458.37 477.12 441.54
  A 0.02 0.01 -80.5 0 0 477.12 441.53
  Q 477.00 441.37 476.82 441.37
  Q 476.64 441.37 476.52 441.53
  A 0.02 0.01 80.4 0 0 476.52 441.54
  C 473.74 458.38 463.53 470.81 447.23 475.64
  Q 441.94 477.22 441.44 477.51
  A 0.32 0.32 0.0 0 0 441.55 478.12
  L 445.58 478.33
  A 1.76 0.57 26.8 0 1 445.77 478.36
  Q 471.72 486.06 476.65 512.64
  A 0.33 0.12 83.4 0 0 476.77 512.88
  Q 476.84 512.91 476.93 512.91"
/>
</g>
<g fill="#c5bdf8">
<path d="
  M 72.12 72.23
  C 58.16 86.24 39.07 93.83 19.23 93.32
  A 1.03 1.03 0.0 0 1 18.23 92.29
  Q 18.37 56.03 18.18 19.29
  Q 18.18 18.96 18.46 18.68
  Q 18.70 18.44 19.03 18.44
  Q 55.76 18.53 92.03 18.29
  A 1.03 1.03 0.0 0 1 93.06 19.29
  C 93.63 39.12 86.08 58.23 72.12 72.23
  Z"
/>
<path d="
  M 178.21 18.63
  Q 178.49 18.91 178.49 19.24
  Q 178.36 55.94 178.55 92.17
  A 1.03 1.03 0.0 0 1 177.55 93.20
  C 157.74 93.74 138.65 86.18 124.68 72.21
  C 110.71 58.24 103.15 39.16 103.68 19.35
  A 1.03 1.03 0.0 0 1 104.71 18.35
  Q 140.94 18.53 177.64 18.39
  Q 177.98 18.39 178.21 18.63
  Z"
/>
<path d="
  M 287.15 74.41
  A 0.56 0.55 -51.3 0 0 288.22 74.29
  Q 289.76 62.51 295.45 51.94
  Q 306.93 30.61 329.31 22.50
  C 333.55 20.96 337.33 20.61 341.34 19.54
  Q 342.84 19.14 346.25 19.09
  Q 356.83 18.92 364.76 18.93
  Q 365.51 18.93 365.96 18.78
  A 1.30 1.30 0.0 0 1 367.66 20.00
  Q 367.75 35.50 367.51 115.76
  Q 367.48 126.37 366.08 130.44
  C 365.20 132.99 364.31 136.99 362.98 140.04
  Q 357.49 152.64 348.61 161.15
  Q 330.99 178.04 306.61 178.57
  Q 298.05 178.76 272.75 178.53
  C 264.11 178.45 257.24 177.99 249.66 175.27
  Q 221.42 165.12 210.82 136.01
  Q 209.21 131.59 208.44 125.28
  Q 207.98 121.53 207.91 114.26
  Q 207.42 64.30 207.78 20.05
  A 1.41 1.41 0.0 0 1 209.06 18.66
  Q 215.66 18.06 221.99 18.57
  C 226.58 18.95 229.49 18.90 233.82 19.70
  Q 242.29 21.28 248.66 23.82
  C 269.09 31.96 281.13 48.12 286.29 69.15
  C 286.79 71.16 286.62 72.97 287.15 74.41
  Z"
/>
<path d="
  M 476.87 178.64
  Q 431.64 178.63 397.29 178.62
  A 0.61 0.60 89.9 0 1 396.68 178.01
  L 396.68 19.15
  A 0.83 0.83 0.0 0 1 397.55 18.32
  C 402.71 18.59 407.97 19.13 414.49 19.10
  Q 423.20 19.06 425.26 19.44
  Q 447.01 23.39 461.08 39.71
  Q 473.01 53.56 476.49 71.99
  Q 476.54 72.29 476.89 72.29
  Q 477.23 72.29 477.28 71.99
  Q 480.76 53.56 492.70 39.71
  Q 506.77 23.40 528.52 19.45
  Q 530.58 19.07 539.29 19.11
  C 545.81 19.15 551.07 18.61 556.23 18.34
  A 0.83 0.83 0.0 0 1 557.10 19.17
  L 557.07 178.03
  A 0.61 0.60 -89.9 0 1 556.46 178.64
  Q 522.10 178.64 476.87 178.64
  Z
  M 526.20 98.74
  L 426.64 98.74
  A 0.39 0.39 0.0 0 0 426.55 99.51
  C 452.75 105.89 472.42 126.31 476.32 153.36
  A 0.39 0.39 0.0 0 0 477.08 153.38
  Q 485.57 111.69 526.29 99.32
  A 0.30 0.30 0.0 0 0 526.20 98.74
  Z"
/>
<path d="
  M 72.03 124.64
  C 86.03 138.57 93.64 157.62 93.16 177.43
  A 1.03 1.03 0.0 0 1 92.13 178.43
  Q 55.91 178.34 19.23 178.58
  Q 18.90 178.58 18.62 178.30
  Q 18.38 178.06 18.38 177.73
  Q 18.41 141.05 18.13 104.83
  A 1.03 1.03 0.0 0 1 19.12 103.80
  C 38.93 103.21 58.02 110.71 72.03 124.64
  Z"
/>
<path d="
  M 124.73 124.71
  C 138.68 110.73 157.76 103.15 177.57 103.66
  A 1.03 1.03 0.0 0 1 178.57 104.69
  Q 178.42 140.92 178.59 177.62
  Q 178.59 177.95 178.35 178.19
  Q 178.07 178.47 177.74 178.47
  Q 141.04 178.37 104.82 178.59
  A 1.03 1.03 0.0 0 1 103.79 177.59
  C 103.23 157.78 110.77 138.69 124.73 124.71
  Z"
/>
<path d="
  M 98.42 233.37
  Q 98.75 233.37 98.83 233.11
  C 101.93 221.85 109.81 212.29 121.03 208.97
  Q 124.81 207.85 139.57 208.03
  Q 144.43 208.09 178.04 207.85
  A 0.62 0.62 0.0 0 1 178.66 208.48
  Q 178.46 223.42 178.22 257.75
  Q 178.14 269.27 170.50 277.30
  Q 163.55 284.59 153.82 287.22
  A 0.59 0.59 0.0 0 0 153.80 288.35
  C 164.60 291.66 174.15 299.15 177.26 310.19
  Q 178.23 313.66 178.29 322.44
  Q 178.45 345.10 178.71 367.18
  A 0.61 0.61 0.0 0 1 178.10 367.80
  Q 149.08 367.54 140.32 367.60
  Q 124.40 367.72 121.23 366.87
  C 109.98 363.84 102.01 353.94 98.94 342.79
  Q 98.82 342.35 98.45 342.35
  Q 98.09 342.35 97.97 342.79
  C 94.91 353.94 86.94 363.85 75.70 366.88
  Q 72.53 367.74 56.61 367.63
  Q 47.85 367.57 18.83 367.85
  A 0.61 0.61 0.0 0 1 18.22 367.23
  Q 18.46 345.15 18.61 322.49
  Q 18.66 313.71 19.63 310.24
  C 22.73 299.20 32.28 291.70 43.07 288.39
  A 0.59 0.59 0.0 0 0 43.05 287.26
  Q 33.32 284.63 26.37 277.35
  Q 18.72 269.32 18.64 257.80
  Q 18.37 223.47 18.16 208.53
  A 0.62 0.62 0.0 0 1 18.78 207.90
  Q 52.39 208.12 57.25 208.06
  Q 72.01 207.87 75.79 208.98
  C 87.02 212.30 94.90 221.85 98.01 233.11
  Q 98.08 233.37 98.42 233.37
  Z"
/>
<path d="
  M 337.15 367.80
  L 238.16 367.80
  A 30.41 30.41 0.0 0 1 207.75 337.39
  L 207.75 238.40
  A 30.41 30.41 0.0 0 1 238.16 207.99
  L 337.15 207.99
  A 30.41 30.41 0.0 0 1 367.56 238.40
  L 367.56 337.39
  A 30.41 30.41 0.0 0 1 337.15 367.80
  Z
  M 275.71 275.95
  Q 268.57 283.11 257.66 286.40
  Q 254.58 287.34 252.36 287.05
  A 0.43 0.43 0.0 0 0 251.88 287.42
  L 251.87 287.44
  A 0.59 0.58 11.4 0 0 252.31 288.09
  Q 259.28 289.77 261.39 290.62
  Q 280.39 298.32 286.23 317.84
  Q 286.77 319.66 286.80 320.66
  Q 286.83 321.54 287.18 323.53
  A 0.35 0.35 0.0 0 0 287.87 323.53
  Q 290.49 308.98 299.63 299.82
  Q 308.78 290.65 323.31 288.00
  A 0.35 0.35 0.0 0 0 323.31 287.31
  Q 321.32 286.96 320.44 286.93
  Q 319.44 286.91 317.62 286.37
  Q 298.09 280.58 290.34 261.60
  Q 289.48 259.49 287.79 252.53
  A 0.59 0.58 78.4 0 0 287.14 252.09
  L 287.12 252.10
  A 0.43 0.43 0.0 0 0 286.75 252.58
  Q 287.04 254.80 286.11 257.88
  Q 282.85 268.79 275.71 275.95
  Z"
/>
<path d="
  M 476.80 276.82
  Q 477.16 276.82 477.26 276.27
  C 482.87 245.28 504.00 220.57 533.77 211.28
  Q 545.37 207.66 556.47 208.07
  A 0.44 0.43 1.7 0 1 556.89 208.51
  Q 556.86 209.92 556.87 287.90
  Q 556.87 365.87 556.90 367.28
  A 0.44 0.43 -1.7 0 1 556.48 367.72
  Q 545.38 368.13 533.78 364.51
  C 504.01 355.23 482.88 330.52 477.26 299.53
  Q 477.16 298.98 476.80 298.98
  Q 476.44 298.98 476.34 299.53
  C 470.73 330.52 449.60 355.23 419.83 364.52
  Q 408.23 368.14 397.13 367.73
  A 0.44 0.43 1.7 0 1 396.72 367.29
  Q 396.74 365.88 396.73 287.91
  Q 396.73 209.93 396.71 208.52
  A 0.44 0.43 -1.7 0 1 397.12 208.08
  Q 408.22 207.67 419.82 211.29
  C 449.59 220.57 470.72 245.28 476.34 276.27
  Q 476.44 276.82 476.80 276.82
  Z"
/>
<path d="
  M 287.65 397.20
  Q 365.49 397.19 367.33 397.25
  A 0.32 0.32 0.0 0 1 367.64 397.58
  C 367.11 418.34 352.20 434.03 331.67 436.88
  A 0.27 0.27 0.0 0 0 331.68 437.42
  Q 337.29 437.98 342.83 440.45
  C 360.95 448.51 370.44 465.85 366.71 485.46
  C 363.93 500.10 352.69 511.25 338.40 515.69
  Q 334.74 516.83 331.82 516.90
  A 0.41 0.41 0.0 0 0 331.42 517.31
  L 331.42 517.56
  A 0.06 0.04 -83.0 0 0 331.45 517.61
  Q 349.50 520.28 359.46 533.33
  Q 367.31 543.62 367.64 556.84
  A 0.42 0.42 0.0 0 1 367.24 557.27
  Q 365.46 557.39 363.50 557.38
  Q 352.41 557.36 287.66 557.36
  Q 222.92 557.37 211.83 557.40
  Q 209.87 557.40 208.09 557.29
  A 0.42 0.42 0.0 0 1 207.69 556.86
  Q 208.01 543.64 215.86 533.34
  Q 225.82 520.29 243.87 517.62
  A 0.06 0.04 83.0 0 0 243.90 517.57
  L 243.90 517.32
  A 0.41 0.41 0.0 0 0 243.50 516.91
  Q 240.58 516.84 236.92 515.70
  C 222.63 511.26 211.39 500.11 208.60 485.48
  C 204.87 465.87 214.36 448.52 232.47 440.46
  Q 238.01 437.99 243.62 437.43
  A 0.27 0.27 0.0 0 0 243.63 436.89
  C 223.10 434.04 208.19 418.36 207.66 397.60
  A 0.32 0.32 0.0 0 1 207.96 397.26
  Q 209.80 397.20 287.65 397.20
  Z"
/>
<path d="
  M 147.69 476.80
  L 178.06 477.49
  A 0.58 0.58 0.0 0 1 178.62 478.07
  L 178.62 556.33
  A 0.89 0.89 0.0 0 1 177.73 557.22
  L 128.29 557.16
  A 1.58 1.38 48.7 0 1 127.91 557.11
  Q 125.71 556.51 123.72 556.88
  A 3.41 3.37 -42.0 0 1 122.20 556.81
  Q 105.10 552.08 100.00 534.69
  Q 99.87 534.25 99.77 534.20
  A 0.46 0.45 -75.1 0 0 99.10 534.59
  L 98.57 557.01
  A 0.45 0.45 0.0 0 1 98.12 557.45
  L 18.59 557.45
  A 0.51 0.50 90.0 0 1 18.09 556.94
  Q 18.14 541.82 18.49 516.54
  Q 18.76 497.95 32.96 486.45
  Q 40.00 480.75 48.06 478.82
  Q 48.62 478.69 48.83 478.19
  A 0.26 0.26 0.0 0 0 48.60 477.83
  L 18.60 477.15
  A 0.46 0.45 -89.4 0 1 18.16 476.69
  L 18.16 397.64
  A 0.50 0.49 -89.4 0 1 18.66 397.14
  Q 50.46 397.54 71.18 397.61
  Q 72.30 397.62 76.42 398.08
  A 5.59 5.46 58.2 0 1 77.80 398.42
  C 88.39 402.57 93.42 410.19 97.50 420.55
  A 0.49 0.49 0.0 0 0 98.45 420.33
  Q 97.61 408.99 98.39 397.66
  A 0.51 0.51 0.0 0 1 98.90 397.18
  L 178.14 397.18
  A 0.53 0.53 0.0 0 1 178.67 397.71
  Q 178.51 421.12 178.62 437.93
  Q 178.63 440.54 177.39 446.28
  C 174.62 459.07 165.28 469.23 153.41 474.29
  C 151.48 475.12 148.97 475.37 147.54 476.25
  A 0.30 0.30 0.0 0 0 147.69 476.80
  Z
  M 67.06 477.87
  A 0.41 0.41 0.0 0 0 67.28 478.53
  C 81.29 481.99 93.38 492.57 96.54 507.16
  Q 96.96 509.10 97.44 510.89
  A 0.35 0.35 0.0 0 0 98.13 510.80
  C 98.19 508.90 98.46 506.90 98.35 505.06
  Q 97.58 491.42 98.55 478.34
  A 1.08 1.07 1.5 0 1 99.60 477.35
  L 128.31 476.70
  A 0.35 0.34 9.3 0 0 128.64 476.47
  L 128.64 476.44
  A 0.56 0.55 14.7 0 0 128.26 475.79
  C 113.17 471.08 101.78 459.90 99.75 443.82
  A 0.19 0.19 0.0 0 0 99.55 443.65
  L 99.28 443.65
  A 0.44 0.44 0.0 0 0 98.85 444.11
  Q 99.26 459.90 98.06 476.07
  A 1.00 1.00 0.0 0 1 97.12 477.00
  Q 82.31 477.82 68.02 477.52
  Q 67.35 477.51 67.06 477.87
  Z"
/>
<path d="
  M 476.77 405.98
  Q 477.08 405.98 477.34 405.43
  Q 480.22 399.38 485.57 397.73
  Q 487.63 397.10 497.02 397.14
  Q 512.40 397.20 544.74 397.23
  C 550.10 397.23 552.36 399.29 555.70 403.82
  A 3.82 3.79 22.7 0 1 556.40 405.51
  Q 556.58 406.71 556.62 409.13
  Q 556.85 421.75 556.81 464.75
  Q 556.80 471.12 551.86 474.59
  Q 549.54 476.21 548.70 476.85
  A 0.60 0.60 0.0 0 0 548.81 477.88
  Q 556.85 481.46 556.87 490.24
  Q 556.93 527.95 556.75 547.81
  A 2.72 2.59 56.7 0 1 556.58 548.75
  Q 554.71 553.85 550.27 556.15
  Q 547.89 557.38 540.57 557.27
  Q 530.83 557.12 497.09 557.29
  Q 487.12 557.35 485.96 556.98
  Q 480.65 555.30 477.72 549.78
  Q 477.51 549.37 476.95 549.37
  Q 476.39 549.37 476.17 549.79
  Q 473.26 555.31 467.95 557.00
  Q 466.79 557.37 456.82 557.34
  Q 423.08 557.25 413.34 557.42
  Q 406.02 557.55 403.64 556.33
  Q 399.19 554.04 397.31 548.94
  A 2.72 2.59 -56.9 0 1 397.14 548.00
  Q 396.91 528.14 396.88 490.43
  Q 396.88 481.65 404.91 478.05
  A 0.60 0.60 0.0 0 0 405.02 477.02
  Q 404.18 476.38 401.85 474.77
  Q 396.90 471.31 396.88 464.94
  Q 396.74 421.94 396.94 409.32
  Q 396.97 406.90 397.15 405.70
  A 3.82 3.79 -22.9 0 1 397.84 404.01
  C 401.17 399.47 403.43 397.41 408.79 397.39
  Q 441.13 397.29 456.51 397.19
  Q 465.90 397.13 467.96 397.75
  Q 473.31 399.39 476.21 405.43
  Q 476.47 405.98 476.77 405.98
  Z
  M 476.93 512.91
  Q 477.02 512.91 477.09 512.88
  A 0.33 0.12 -83.6 0 0 477.21 512.64
  Q 482.06 486.04 507.98 478.27
  A 1.76 0.57 -27.0 0 1 508.17 478.24
  L 512.20 478.01
  A 0.32 0.32 0.0 0 0 512.31 477.40
  Q 511.81 477.11 506.51 475.55
  C 490.20 470.77 479.95 458.37 477.12 441.54
  A 0.02 0.01 -80.5 0 0 477.12 441.53
  Q 477.00 441.37 476.82 441.37
  Q 476.64 441.37 476.52 441.53
  A 0.02 0.01 80.4 0 0 476.52 441.54
  C 473.74 458.38 463.53 470.81 447.23 475.64
  Q 441.94 477.22 441.44 477.51
  A 0.32 0.32 0.0 0 0 441.55 478.12
  L 445.58 478.33
  A 1.76 0.57 26.8 0 1 445.77 478.36
  Q 471.72 486.06 476.65 512.64
  A 0.33 0.12 83.4 0 0 476.77 512.88
  Q 476.84 512.91 476.93 512.91
  Z"
/>
</g>
<g fill="#f0e8df">
<path d="
  M 590.00 0.00
  L 590.00 588.00
  L 0.00 588.00
  L 0.00 0.00
  L 590.00 0.00
  Z
  M 189.03 8.44
  A 0.41 0.41 0.0 0 0 188.62 8.03
  L 8.28 8.03
  A 0.41 0.41 0.0 0 0 7.87 8.44
  L 7.87 188.78
  A 0.41 0.41 0.0 0 0 8.28 189.19
  L 188.62 189.19
  A 0.41 0.41 0.0 0 0 189.03 188.78
  L 189.03 8.44
  Z
  M 378.36 8.30
  A 0.36 0.36 0.0 0 0 378.00 7.94
  L 197.36 7.94
  A 0.36 0.36 0.0 0 0 197.00 8.30
  L 197.00 188.94
  A 0.36 0.36 0.0 0 0 197.36 189.30
  L 378.00 189.30
  A 0.36 0.36 0.0 0 0 378.36 188.94
  L 378.36 8.30
  Z
  M 567.51 8.35
  A 0.45 0.45 0.0 0 0 567.06 7.90
  L 386.62 7.90
  A 0.45 0.45 0.0 0 0 386.17 8.35
  L 386.17 188.79
  A 0.45 0.45 0.0 0 0 386.62 189.24
  L 567.06 189.24
  A 0.45 0.45 0.0 0 0 567.51 188.79
  L 567.51 8.35
  Z
  M 189.13 197.58
  A 0.40 0.40 0.0 0 0 188.73 197.18
  L 8.17 197.18
  A 0.40 0.40 0.0 0 0 7.77 197.58
  L 7.77 378.14
  A 0.40 0.40 0.0 0 0 8.17 378.54
  L 188.73 378.54
  A 0.40 0.40 0.0 0 0 189.13 378.14
  L 189.13 197.58
  Z
  M 378.41 197.51
  A 0.39 0.39 0.0 0 0 378.02 197.12
  L 197.32 197.12
  A 0.39 0.39 0.0 0 0 196.93 197.51
  L 196.93 378.21
  A 0.39 0.39 0.0 0 0 197.32 378.60
  L 378.02 378.60
  A 0.39 0.39 0.0 0 0 378.41 378.21
  L 378.41 197.51
  Z
  M 567.59 197.53
  A 0.42 0.42 0.0 0 0 567.17 197.11
  L 386.51 197.11
  A 0.42 0.42 0.0 0 0 386.09 197.53
  L 386.09 378.19
  A 0.42 0.42 0.0 0 0 386.51 378.61
  L 567.17 378.61
  A 0.42 0.42 0.0 0 0 567.59 378.19
  L 567.59 197.53
  Z
  M 189.07 387.03
  A 0.41 0.41 0.0 0 0 188.66 386.62
  L 8.24 386.62
  A 0.41 0.41 0.0 0 0 7.83 387.03
  L 7.83 567.45
  A 0.41 0.41 0.0 0 0 8.24 567.86
  L 188.66 567.86
  A 0.41 0.41 0.0 0 0 189.07 567.45
  L 189.07 387.03
  Z
  M 378.35 386.97
  A 0.42 0.42 0.0 0 0 377.93 386.55
  L 197.39 386.55
  A 0.42 0.42 0.0 0 0 196.97 386.97
  L 196.97 567.51
  A 0.42 0.42 0.0 0 0 197.39 567.93
  L 377.93 567.93
  A 0.42 0.42 0.0 0 0 378.35 567.51
  L 378.35 386.97
  Z
  M 567.54 387.01
  A 0.49 0.49 0.0 0 0 567.05 386.52
  L 386.63 386.52
  A 0.49 0.49 0.0 0 0 386.14 387.01
  L 386.14 567.43
  A 0.49 0.49 0.0 0 0 386.63 567.92
  L 567.05 567.92
  A 0.49 0.49 0.0 0 0 567.54 567.43
  L 567.54 387.01
  Z"
/>
<path d="
  M 185.94 185.32
  A 0.76 0.76 0.0 0 1 185.18 186.08
  L 11.52 186.08
  A 0.76 0.76 0.0 0 1 10.76 185.32
  L 10.76 11.66
  A 0.76 0.76 0.0 0 1 11.52 10.90
  L 185.18 10.90
  A 0.76 0.76 0.0 0 1 185.94 11.66
  L 185.94 185.32
  Z
  M 72.12 72.23
  C 86.08 58.23 93.63 39.12 93.06 19.29
  A 1.03 1.03 0.0 0 0 92.03 18.29
  Q 55.76 18.53 19.03 18.44
  Q 18.70 18.44 18.46 18.68
  Q 18.18 18.96 18.18 19.29
  Q 18.37 56.03 18.23 92.29
  A 1.03 1.03 0.0 0 0 19.23 93.32
  C 39.07 93.83 58.16 86.24 72.12 72.23
  Z
  M 124.68 72.21
  C 138.65 86.18 157.74 93.74 177.55 93.20
  A 1.03 1.03 0.0 0 0 178.55 92.17
  Q 178.36 55.94 178.49 19.24
  Q 178.49 18.91 178.21 18.63
  Q 177.98 18.39 177.64 18.39
  Q 140.94 18.53 104.71 18.35
  A 1.03 1.03 0.0 0 0 103.68 19.35
  C 103.15 39.16 110.71 58.24 124.68 72.21
  Z
  M 72.03 124.64
  C 58.02 110.71 38.93 103.21 19.12 103.80
  A 1.03 1.03 0.0 0 0 18.13 104.83
  Q 18.41 141.05 18.38 177.73
  Q 18.38 178.06 18.62 178.30
  Q 18.90 178.58 19.23 178.58
  Q 55.91 178.34 92.13 178.43
  A 1.03 1.03 0.0 0 0 93.16 177.43
  C 93.64 157.62 86.03 138.57 72.03 124.64
  Z
  M 124.73 124.71
  C 110.77 138.69 103.23 157.78 103.79 177.59
  A 1.03 1.03 0.0 0 0 104.82 178.59
  Q 141.04 178.37 177.74 178.47
  Q 178.07 178.47 178.35 178.19
  Q 178.59 177.95 178.59 177.62
  Q 178.42 140.92 178.57 104.69
  A 1.03 1.03 0.0 0 0 177.57 103.66
  C 157.76 103.15 138.68 110.73 124.73 124.71
  Z"
/>
<path d="
  M 375.16 185.28
  A 0.71 0.71 0.0 0 1 374.45 185.99
  L 200.93 185.99
  A 0.71 0.71 0.0 0 1 200.22 185.28
  L 200.22 11.76
  A 0.71 0.71 0.0 0 1 200.93 11.05
  L 374.45 11.05
  A 0.71 0.71 0.0 0 1 375.16 11.76
  L 375.16 185.28
  Z
  M 287.15 74.41
  C 286.62 72.97 286.79 71.16 286.29 69.15
  C 281.13 48.12 269.09 31.96 248.66 23.82
  Q 242.29 21.28 233.82 19.70
  C 229.49 18.90 226.58 18.95 221.99 18.57
  Q 215.66 18.06 209.06 18.66
  A 1.41 1.41 0.0 0 0 207.78 20.05
  Q 207.42 64.30 207.91 114.26
  Q 207.98 121.53 208.44 125.28
  Q 209.21 131.59 210.82 136.01
  Q 221.42 165.12 249.66 175.27
  C 257.24 177.99 264.11 178.45 272.75 178.53
  Q 298.05 178.76 306.61 178.57
  Q 330.99 178.04 348.61 161.15
  Q 357.49 152.64 362.98 140.04
  C 364.31 136.99 365.20 132.99 366.08 130.44
  Q 367.48 126.37 367.51 115.76
  Q 367.75 35.50 367.66 20.00
  A 1.30 1.30 0.0 0 0 365.96 18.78
  Q 365.51 18.93 364.76 18.93
  Q 356.83 18.92 346.25 19.09
  Q 342.84 19.14 341.34 19.54
  C 337.33 20.61 333.55 20.96 329.31 22.50
  Q 306.93 30.61 295.45 51.94
  Q 289.76 62.51 288.22 74.29
  A 0.56 0.55 -51.3 0 1 287.15 74.41
  Z"
/>
<path d="
  M 564.38 185.49
  A 0.53 0.53 0.0 0 1 563.85 186.02
  L 389.95 186.02
  A 0.53 0.53 0.0 0 1 389.42 185.49
  L 389.42 11.59
  A 0.53 0.53 0.0 0 1 389.95 11.06
  L 563.85 11.06
  A 0.53 0.53 0.0 0 1 564.38 11.59
  L 564.38 185.49
  Z
  M 476.89 72.29
  Q 476.54 72.29 476.49 71.99
  Q 473.01 53.56 461.08 39.71
  Q 447.01 23.39 425.26 19.44
  Q 423.20 19.06 414.49 19.10
  C 407.97 19.13 402.71 18.59 397.55 18.32
  A 0.83 0.83 0.0 0 0 396.68 19.15
  L 396.68 178.01
  A 0.61 0.60 89.9 0 0 397.29 178.62
  Q 431.64 178.63 476.87 178.64
  Q 522.10 178.64 556.46 178.64
  A 0.61 0.60 -89.9 0 0 557.07 178.03
  L 557.10 19.17
  A 0.83 0.83 0.0 0 0 556.23 18.34
  C 551.07 18.61 545.81 19.15 539.29 19.11
  Q 530.58 19.07 528.52 19.45
  Q 506.77 23.40 492.70 39.71
  Q 480.76 53.56 477.28 71.99
  Q 477.23 72.29 476.89 72.29
  Z"
/>
<path d="
  M 526.20 98.74
  A 0.30 0.30 0.0 0 1 526.29 99.32
  Q 485.57 111.69 477.08 153.38
  A 0.39 0.39 0.0 0 1 476.32 153.36
  C 472.42 126.31 452.75 105.89 426.55 99.51
  A 0.39 0.39 0.0 0 1 426.64 98.74
  L 526.20 98.74
  Z"
/>
<path d="
  M 185.89 374.79
  A 0.55 0.55 0.0 0 1 185.34 375.34
  L 11.40 375.34
  A 0.55 0.55 0.0 0 1 10.85 374.79
  L 10.85 200.85
  A 0.55 0.55 0.0 0 1 11.40 200.30
  L 185.34 200.30
  A 0.55 0.55 0.0 0 1 185.89 200.85
  L 185.89 374.79
  Z
  M 98.45 342.35
  Q 98.82 342.35 98.94 342.79
  C 102.01 353.94 109.98 363.84 121.23 366.87
  Q 124.40 367.72 140.32 367.60
  Q 149.08 367.54 178.10 367.80
  A 0.61 0.61 0.0 0 0 178.71 367.18
  Q 178.45 345.10 178.29 322.44
  Q 178.23 313.66 177.26 310.19
  C 174.15 299.15 164.60 291.66 153.80 288.35
  A 0.59 0.59 0.0 0 1 153.82 287.22
  Q 163.55 284.59 170.50 277.30
  Q 178.14 269.27 178.22 257.75
  Q 178.46 223.42 178.66 208.48
  A 0.62 0.62 0.0 0 0 178.04 207.85
  Q 144.43 208.09 139.57 208.03
  Q 124.81 207.85 121.03 208.97
  C 109.81 212.29 101.93 221.85 98.83 233.11
  Q 98.75 233.37 98.42 233.37
  Q 98.08 233.37 98.01 233.11
  C 94.90 221.85 87.02 212.30 75.79 208.98
  Q 72.01 207.87 57.25 208.06
  Q 52.39 208.12 18.78 207.90
  A 0.62 0.62 0.0 0 0 18.16 208.53
  Q 18.37 223.47 18.64 257.80
  Q 18.72 269.32 26.37 277.35
  Q 33.32 284.63 43.05 287.26
  A 0.59 0.59 0.0 0 1 43.07 288.39
  C 32.28 291.70 22.73 299.20 19.63 310.24
  Q 18.66 313.71 18.61 322.49
  Q 18.46 345.15 18.22 367.23
  A 0.61 0.61 0.0 0 0 18.83 367.85
  Q 47.85 367.57 56.61 367.63
  Q 72.53 367.74 75.70 366.88
  C 86.94 363.85 94.91 353.94 97.97 342.79
  Q 98.09 342.35 98.45 342.35
  Z"
/>
<path d="
  M 375.19 374.50
  A 0.78 0.78 0.0 0 1 374.41 375.28
  L 201.03 375.28
  A 0.78 0.78 0.0 0 1 200.25 374.50
  L 200.25 201.12
  A 0.78 0.78 0.0 0 1 201.03 200.34
  L 374.41 200.34
  A 0.78 0.78 0.0 0 1 375.19 201.12
  L 375.19 374.50
  Z
  M 337.15 367.80
  A 30.41 30.41 0.0 0 0 367.56 337.39
  L 367.56 238.40
  A 30.41 30.41 0.0 0 0 337.15 207.99
  L 238.16 207.99
  A 30.41 30.41 0.0 0 0 207.75 238.40
  L 207.75 337.39
  A 30.41 30.41 0.0 0 0 238.16 367.80
  L 337.15 367.80
  Z"
/>
<path d="
  M 564.35 374.74
  A 0.55 0.55 0.0 0 1 563.80 375.29
  L 390.00 375.29
  A 0.55 0.55 0.0 0 1 389.45 374.74
  L 389.45 200.94
  A 0.55 0.55 0.0 0 1 390.00 200.39
  L 563.80 200.39
  A 0.55 0.55 0.0 0 1 564.35 200.94
  L 564.35 374.74
  Z
  M 396.73 287.91
  Q 396.74 365.88 396.72 367.29
  A 0.44 0.43 1.7 0 0 397.13 367.73
  Q 408.23 368.14 419.83 364.52
  C 449.60 355.23 470.73 330.52 476.34 299.53
  Q 476.44 298.98 476.80 298.98
  Q 477.16 298.98 477.26 299.53
  C 482.88 330.52 504.01 355.23 533.78 364.51
  Q 545.38 368.13 556.48 367.72
  A 0.44 0.43 -1.7 0 0 556.90 367.28
  Q 556.87 365.87 556.87 287.90
  Q 556.86 209.92 556.89 208.51
  A 0.44 0.43 1.7 0 0 556.47 208.07
  Q 545.37 207.66 533.77 211.28
  C 504.00 220.57 482.87 245.28 477.26 276.27
  Q 477.16 276.82 476.80 276.82
  Q 476.44 276.82 476.34 276.27
  C 470.72 245.28 449.59 220.57 419.82 211.29
  Q 408.22 207.67 397.12 208.08
  A 0.44 0.43 -1.7 0 0 396.71 208.52
  Q 396.73 209.93 396.73 287.91
  Z"
/>
<path d="
  M 299.63 299.82
  Q 290.49 308.98 287.87 323.53
  A 0.35 0.35 0.0 0 1 287.18 323.53
  Q 286.83 321.54 286.80 320.66
  Q 286.77 319.66 286.23 317.84
  Q 280.39 298.32 261.39 290.62
  Q 259.28 289.77 252.31 288.09
  A 0.59 0.58 11.4 0 1 251.87 287.44
  L 251.88 287.42
  A 0.43 0.43 0.0 0 1 252.36 287.05
  Q 254.58 287.34 257.66 286.40
  Q 268.57 283.11 275.71 275.95
  Q 282.85 268.79 286.11 257.88
  Q 287.04 254.80 286.75 252.58
  A 0.43 0.43 0.0 0 1 287.12 252.10
  L 287.14 252.09
  A 0.59 0.58 78.4 0 1 287.79 252.53
  Q 289.48 259.49 290.34 261.60
  Q 298.09 280.58 317.62 286.37
  Q 319.44 286.91 320.44 286.93
  Q 321.32 286.96 323.31 287.31
  A 0.35 0.35 0.0 0 1 323.31 288.00
  Q 308.78 290.65 299.63 299.82
  Z"
/>
<path d="
  M 185.90 564.22
  A 0.51 0.51 0.0 0 1 185.39 564.73
  L 11.33 564.73
  A 0.51 0.51 0.0 0 1 10.82 564.22
  L 10.82 390.16
  A 0.51 0.51 0.0 0 1 11.33 389.65
  L 185.39 389.65
  A 0.51 0.51 0.0 0 1 185.90 390.16
  L 185.90 564.22
  Z
  M 147.54 476.25
  C 148.97 475.37 151.48 475.12 153.41 474.29
  C 165.28 469.23 174.62 459.07 177.39 446.28
  Q 178.63 440.54 178.62 437.93
  Q 178.51 421.12 178.67 397.71
  A 0.53 0.53 0.0 0 0 178.14 397.18
  L 98.90 397.18
  A 0.51 0.51 0.0 0 0 98.39 397.66
  Q 97.61 408.99 98.45 420.33
  A 0.49 0.49 0.0 0 1 97.50 420.55
  C 93.42 410.19 88.39 402.57 77.80 398.42
  A 5.59 5.46 58.2 0 0 76.42 398.08
  Q 72.30 397.62 71.18 397.61
  Q 50.46 397.54 18.66 397.14
  A 0.50 0.49 -89.4 0 0 18.16 397.64
  L 18.16 476.69
  A 0.46 0.45 -89.4 0 0 18.60 477.15
  L 48.60 477.83
  A 0.26 0.26 0.0 0 1 48.83 478.19
  Q 48.62 478.69 48.06 478.82
  Q 40.00 480.75 32.96 486.45
  Q 18.76 497.95 18.49 516.54
  Q 18.14 541.82 18.09 556.94
  A 0.51 0.50 90.0 0 0 18.59 557.45
  L 98.12 557.45
  A 0.45 0.45 0.0 0 0 98.57 557.01
  L 99.10 534.59
  A 0.46 0.45 -75.1 0 1 99.77 534.20
  Q 99.87 534.25 100.00 534.69
  Q 105.10 552.08 122.20 556.81
  A 3.41 3.37 -42.0 0 0 123.72 556.88
  Q 125.71 556.51 127.91 557.11
  A 1.58 1.38 48.7 0 0 128.29 557.16
  L 177.73 557.22
  A 0.89 0.89 0.0 0 0 178.62 556.33
  L 178.62 478.07
  A 0.58 0.58 0.0 0 0 178.06 477.49
  L 147.69 476.80
  A 0.30 0.30 0.0 0 1 147.54 476.25
  Z"
/>
<path d="
  M 375.16 564.15
  A 0.51 0.51 0.0 0 1 374.65 564.66
  L 200.73 564.66
  A 0.51 0.51 0.0 0 1 200.22 564.15
  L 200.22 390.23
  A 0.51 0.51 0.0 0 1 200.73 389.72
  L 374.65 389.72
  A 0.51 0.51 0.0 0 1 375.16 390.23
  L 375.16 564.15
  Z
  M 287.66 557.36
  Q 352.41 557.36 363.50 557.38
  Q 365.46 557.39 367.24 557.27
  A 0.42 0.42 0.0 0 0 367.64 556.84
  Q 367.31 543.62 359.46 533.33
  Q 349.50 520.28 331.45 517.61
  A 0.06 0.04 -83.0 0 1 331.42 517.56
  L 331.42 517.31
  A 0.41 0.41 0.0 0 1 331.82 516.90
  Q 334.74 516.83 338.40 515.69
  C 352.69 511.25 363.93 500.10 366.71 485.46
  C 370.44 465.85 360.95 448.51 342.83 440.45
  Q 337.29 437.98 331.68 437.42
  A 0.27 0.27 0.0 0 1 331.67 436.88
  C 352.20 434.03 367.11 418.34 367.64 397.58
  A 0.32 0.32 0.0 0 0 367.33 397.25
  Q 365.49 397.19 287.65 397.20
  Q 209.80 397.20 207.96 397.26
  A 0.32 0.32 0.0 0 0 207.66 397.60
  C 208.19 418.36 223.10 434.04 243.63 436.89
  A 0.27 0.27 0.0 0 1 243.62 437.43
  Q 238.01 437.99 232.47 440.46
  C 214.36 448.52 204.87 465.87 208.60 485.48
  C 211.39 500.11 222.63 511.26 236.92 515.70
  Q 240.58 516.84 243.50 516.91
  A 0.41 0.41 0.0 0 1 243.90 517.32
  L 243.90 517.57
  A 0.06 0.04 83.0 0 1 243.87 517.62
  Q 225.82 520.29 215.86 533.34
  Q 208.01 543.64 207.69 556.86
  A 0.42 0.42 0.0 0 0 208.09 557.29
  Q 209.87 557.40 211.83 557.40
  Q 222.92 557.37 287.66 557.36
  Z"
/>
<path d="
  M 564.35 564.16
  A 0.51 0.51 0.0 0 1 563.84 564.67
  L 389.94 564.67
  A 0.51 0.51 0.0 0 1 389.43 564.16
  L 389.43 390.26
  A 0.51 0.51 0.0 0 1 389.94 389.75
  L 563.84 389.75
  A 0.51 0.51 0.0 0 1 564.35 390.26
  L 564.35 564.16
  Z
  M 476.95 549.37
  Q 477.51 549.37 477.72 549.78
  Q 480.65 555.30 485.96 556.98
  Q 487.12 557.35 497.09 557.29
  Q 530.83 557.12 540.57 557.27
  Q 547.89 557.38 550.27 556.15
  Q 554.71 553.85 556.58 548.75
  A 2.72 2.59 56.7 0 0 556.75 547.81
  Q 556.93 527.95 556.87 490.24
  Q 556.85 481.46 548.81 477.88
  A 0.60 0.60 0.0 0 1 548.70 476.85
  Q 549.54 476.21 551.86 474.59
  Q 556.80 471.12 556.81 464.75
  Q 556.85 421.75 556.62 409.13
  Q 556.58 406.71 556.40 405.51
  A 3.82 3.79 22.7 0 0 555.70 403.82
  C 552.36 399.29 550.10 397.23 544.74 397.23
  Q 512.40 397.20 497.02 397.14
  Q 487.63 397.10 485.57 397.73
  Q 480.22 399.38 477.34 405.43
  Q 477.08 405.98 476.77 405.98
  Q 476.47 405.98 476.21 405.43
  Q 473.31 399.39 467.96 397.75
  Q 465.90 397.13 456.51 397.19
  Q 441.13 397.29 408.79 397.39
  C 403.43 397.41 401.17 399.47 397.84 404.01
  A 3.82 3.79 -22.9 0 0 397.15 405.70
  Q 396.97 406.90 396.94 409.32
  Q 396.74 421.94 396.88 464.94
  Q 396.90 471.31 401.85 474.77
  Q 404.18 476.38 405.02 477.02
  A 0.60 0.60 0.0 0 1 404.91 478.05
  Q 396.88 481.65 396.88 490.43
  Q 396.91 528.14 397.14 548.00
  A 2.72 2.59 -56.9 0 0 397.31 548.94
  Q 399.19 554.04 403.64 556.33
  Q 406.02 557.55 413.34 557.42
  Q 423.08 557.25 456.82 557.34
  Q 466.79 557.37 467.95 557.00
  Q 473.26 555.31 476.17 549.79
  Q 476.39 549.37 476.95 549.37
  Z"
/>
<path d="
  M 476.82 441.37
  Q 477.00 441.37 477.12 441.53
  A 0.02 0.01 -80.5 0 1 477.12 441.54
  C 479.95 458.37 490.20 470.77 506.51 475.55
  Q 511.81 477.11 512.31 477.40
  A 0.32 0.32 0.0 0 1 512.20 478.01
  L 508.17 478.24
  A 1.76 0.57 -27.0 0 0 507.98 478.27
  Q 482.06 486.04 477.21 512.64
  A 0.33 0.12 -83.6 0 1 477.09 512.88
  Q 477.02 512.91 476.93 512.91
  Q 476.84 512.91 476.77 512.88
  A 0.33 0.12 83.4 0 1 476.65 512.64
  Q 471.72 486.06 445.77 478.36
  A 1.76 0.57 26.8 0 0 445.58 478.33
  L 441.55 478.12
  A 0.32 0.32 0.0 0 1 441.44 477.51
  Q 441.94 477.22 447.23 475.64
  C 463.53 470.81 473.74 458.38 476.52 441.54
  A 0.02 0.01 80.4 0 1 476.52 441.53
  Q 476.64 441.37 476.82 441.37
  Z"
/>
<path d="
  M 67.06 477.87
  Q 67.35 477.51 68.02 477.52
  Q 82.31 477.82 97.12 477.00
  A 1.00 1.00 0.0 0 0 98.06 476.07
  Q 99.26 459.90 98.85 444.11
  A 0.44 0.44 0.0 0 1 99.28 443.65
  L 99.55 443.65
  A 0.19 0.19 0.0 0 1 99.75 443.82
  C 101.78 459.90 113.17 471.08 128.26 475.79
  A 0.56 0.55 14.7 0 1 128.64 476.44
  L 128.64 476.47
  A 0.35 0.34 9.3 0 1 128.31 476.70
  L 99.60 477.35
  A 1.08 1.07 1.5 0 0 98.55 478.34
  Q 97.58 491.42 98.35 505.06
  C 98.46 506.90 98.19 508.90 98.13 510.80
  A 0.35 0.35 0.0 0 1 97.44 510.89
  Q 96.96 509.10 96.54 507.16
  C 93.38 492.57 81.29 481.99 67.28 478.53
  A 0.41 0.41 0.0 0 1 67.06 477.87
  Z"
/>
</g>
<g fill="#fe643c">
<path d="
  M 189.03 188.78
  A 0.41 0.41 0.0 0 1 188.62 189.19
  L 8.28 189.19
  A 0.41 0.41 0.0 0 1 7.87 188.78
  L 7.87 8.44
  A 0.41 0.41 0.0 0 1 8.28 8.03
  L 188.62 8.03
  A 0.41 0.41 0.0 0 1 189.03 8.44
  L 189.03 188.78
  Z
  M 185.94 11.66
  A 0.76 0.76 0.0 0 0 185.18 10.90
  L 11.52 10.90
  A 0.76 0.76 0.0 0 0 10.76 11.66
  L 10.76 185.32
  A 0.76 0.76 0.0 0 0 11.52 186.08
  L 185.18 186.08
  A 0.76 0.76 0.0 0 0 185.94 185.32
  L 185.94 11.66
  Z"
/>
<path d="
  M 378.36 188.94
  A 0.36 0.36 0.0 0 1 378.00 189.30
  L 197.36 189.30
  A 0.36 0.36 0.0 0 1 197.00 188.94
  L 197.00 8.30
  A 0.36 0.36 0.0 0 1 197.36 7.94
  L 378.00 7.94
  A 0.36 0.36 0.0 0 1 378.36 8.30
  L 378.36 188.94
  Z
  M 375.16 11.76
  A 0.71 0.71 0.0 0 0 374.45 11.05
  L 200.93 11.05
  A 0.71 0.71 0.0 0 0 200.22 11.76
  L 200.22 185.28
  A 0.71 0.71 0.0 0 0 200.93 185.99
  L 374.45 185.99
  A 0.71 0.71 0.0 0 0 375.16 185.28
  L 375.16 11.76
  Z"
/>
<path d="
  M 567.51 188.79
  A 0.45 0.45 0.0 0 1 567.06 189.24
  L 386.62 189.24
  A 0.45 0.45 0.0 0 1 386.17 188.79
  L 386.17 8.35
  A 0.45 0.45 0.0 0 1 386.62 7.90
  L 567.06 7.90
  A 0.45 0.45 0.0 0 1 567.51 8.35
  L 567.51 188.79
  Z
  M 564.38 11.59
  A 0.53 0.53 0.0 0 0 563.85 11.06
  L 389.95 11.06
  A 0.53 0.53 0.0 0 0 389.42 11.59
  L 389.42 185.49
  A 0.53 0.53 0.0 0 0 389.95 186.02
  L 563.85 186.02
  A 0.53 0.53 0.0 0 0 564.38 185.49
  L 564.38 11.59
  Z"
/>
<path d="
  M 189.13 378.14
  A 0.40 0.40 0.0 0 1 188.73 378.54
  L 8.17 378.54
  A 0.40 0.40 0.0 0 1 7.77 378.14
  L 7.77 197.58
  A 0.40 0.40 0.0 0 1 8.17 197.18
  L 188.73 197.18
  A 0.40 0.40 0.0 0 1 189.13 197.58
  L 189.13 378.14
  Z
  M 185.89 200.85
  A 0.55 0.55 0.0 0 0 185.34 200.30
  L 11.40 200.30
  A 0.55 0.55 0.0 0 0 10.85 200.85
  L 10.85 374.79
  A 0.55 0.55 0.0 0 0 11.40 375.34
  L 185.34 375.34
  A 0.55 0.55 0.0 0 0 185.89 374.79
  L 185.89 200.85
  Z"
/>
<path d="
  M 378.41 378.21
  A 0.39 0.39 0.0 0 1 378.02 378.60
  L 197.32 378.60
  A 0.39 0.39 0.0 0 1 196.93 378.21
  L 196.93 197.51
  A 0.39 0.39 0.0 0 1 197.32 197.12
  L 378.02 197.12
  A 0.39 0.39 0.0 0 1 378.41 197.51
  L 378.41 378.21
  Z
  M 375.19 201.12
  A 0.78 0.78 0.0 0 0 374.41 200.34
  L 201.03 200.34
  A 0.78 0.78 0.0 0 0 200.25 201.12
  L 200.25 374.50
  A 0.78 0.78 0.0 0 0 201.03 375.28
  L 374.41 375.28
  A 0.78 0.78 0.0 0 0 375.19 374.50
  L 375.19 201.12
  Z"
/>
<path d="
  M 567.59 378.19
  A 0.42 0.42 0.0 0 1 567.17 378.61
  L 386.51 378.61
  A 0.42 0.42 0.0 0 1 386.09 378.19
  L 386.09 197.53
  A 0.42 0.42 0.0 0 1 386.51 197.11
  L 567.17 197.11
  A 0.42 0.42 0.0 0 1 567.59 197.53
  L 567.59 378.19
  Z
  M 564.35 200.94
  A 0.55 0.55 0.0 0 0 563.80 200.39
  L 390.00 200.39
  A 0.55 0.55 0.0 0 0 389.45 200.94
  L 389.45 374.74
  A 0.55 0.55 0.0 0 0 390.00 375.29
  L 563.80 375.29
  A 0.55 0.55 0.0 0 0 564.35 374.74
  L 564.35 200.94
  Z"
/>
<path d="
  M 189.07 567.45
  A 0.41 0.41 0.0 0 1 188.66 567.86
  L 8.24 567.86
  A 0.41 0.41 0.0 0 1 7.83 567.45
  L 7.83 387.03
  A 0.41 0.41 0.0 0 1 8.24 386.62
  L 188.66 386.62
  A 0.41 0.41 0.0 0 1 189.07 387.03
  L 189.07 567.45
  Z
  M 185.90 390.16
  A 0.51 0.51 0.0 0 0 185.39 389.65
  L 11.33 389.65
  A 0.51 0.51 0.0 0 0 10.82 390.16
  L 10.82 564.22
  A 0.51 0.51 0.0 0 0 11.33 564.73
  L 185.39 564.73
  A 0.51 0.51 0.0 0 0 185.90 564.22
  L 185.90 390.16
  Z"
/>
<path d="
  M 378.35 567.51
  A 0.42 0.42 0.0 0 1 377.93 567.93
  L 197.39 567.93
  A 0.42 0.42 0.0 0 1 196.97 567.51
  L 196.97 386.97
  A 0.42 0.42 0.0 0 1 197.39 386.55
  L 377.93 386.55
  A 0.42 0.42 0.0 0 1 378.35 386.97
  L 378.35 567.51
  Z
  M 375.16 390.23
  A 0.51 0.51 0.0 0 0 374.65 389.72
  L 200.73 389.72
  A 0.51 0.51 0.0 0 0 200.22 390.23
  L 200.22 564.15
  A 0.51 0.51 0.0 0 0 200.73 564.66
  L 374.65 564.66
  A 0.51 0.51 0.0 0 0 375.16 564.15
  L 375.16 390.23
  Z"
/>
<path d="
  M 567.54 567.43
  A 0.49 0.49 0.0 0 1 567.05 567.92
  L 386.63 567.92
  A 0.49 0.49 0.0 0 1 386.14 567.43
  L 386.14 387.01
  A 0.49 0.49 0.0 0 1 386.63 386.52
  L 567.05 386.52
  A 0.49 0.49 0.0 0 1 567.54 387.01
  L 567.54 567.43
  Z
  M 564.35 390.26
  A 0.51 0.51 0.0 0 0 563.84 389.75
  L 389.94 389.75
  A 0.51 0.51 0.0 0 0 389.43 390.26
  L 389.43 564.16
  A 0.51 0.51 0.0 0 0 389.94 564.67
  L 563.84 564.67
  A 0.51 0.51 0.0 0 0 564.35 564.16
  L 564.35 390.26
  Z"
/>
</g>
</svg>
