<?xml version="1.0" encoding="UTF-8" standalone="no"?>
<!DOCTYPE svg PUBLIC "-//W3C//DTD SVG 1.1//EN" "http://www.w3.org/Graphics/SVG/1.1/DTD/svg11.dtd">
<svg xmlns="http://www.w3.org/2000/svg" version="1.1" viewBox="0.00 0.00 400.00 15.00">
<g fill="#fd460b" fill-opacity="0.996">
<rect x="-3.83" y="-3.83" transform="translate(195.53,7.45) rotate(44.7)" width="7.66" height="7.66" rx="0.57"/>
<rect x="-2.16" y="-2.16" transform="translate(184.57,7.49) rotate(44.5)" width="4.32" height="4.32" rx="0.57"/>
<rect x="-2.12" y="-2.16" transform="translate(206.43,7.52) rotate(44.3)" width="4.24" height="4.32" rx="0.62"/>
<path d="
  M 0.00 8.27
  L 0.00 6.30
  L 171.06 6.29
  A 0.41 0.40 90.0 0 1 171.46 6.70
  L 171.46 7.90
  A 0.38 0.37 -90.0 0 1 171.09 8.28
  L 0.00 8.27
  Z"
/>
<path d="
  M 400.00 7.39
  L 400.00 9.37
  L 218.86 9.37
  A 0.55 0.54 -90.0 0 1 218.32 8.82
  L 218.32 7.91
  A 0.52 0.52 0.0 0 1 218.84 7.39
  L 400.00 7.39
  Z"
/>
</g>
</svg>
