<?xml version="1.0" encoding="UTF-8" standalone="no"?>
<!DOCTYPE svg PUBLIC "-//W3C//DTD SVG 1.1//EN" "http://www.w3.org/Graphics/SVG/1.1/DTD/svg11.dtd">
<svg xmlns="http://www.w3.org/2000/svg" version="1.1" viewBox="0.00 0.00 2313.00 1360.00">
<path fill="#ccc4fc" d="
  M 779.15 548.13
  A 0.34 0.34 0.0 0 0 778.51 548.11
  C 775.09 556.60 770.60 566.40 767.33 574.01
  C 753.12 607.09 728.79 630.29 692.15 635.66
  C 653.06 641.39 610.34 629.80 590.37 592.87
  Q 583.92 580.94 581.02 565.97
  Q 571.91 518.89 602.68 483.44
  C 622.16 461.00 647.97 444.93 674.41 431.16
  C 687.07 424.57 695.50 420.39 706.36 413.92
  Q 771.63 375.08 772.27 374.72
  A 0.73 0.72 -15.0 0 0 772.64 374.09
  Q 772.76 352.39 772.57 335.44
  Q 772.40 321.28 767.74 307.77
  C 755.81 273.15 721.59 263.35 687.81 264.01
  C 672.80 264.30 657.20 268.38 642.53 273.77
  Q 627.71 279.20 615.72 287.01
  A 0.83 0.83 0.0 0 1 614.61 286.82
  L 609.47 280.17
  A 0.81 0.80 -37.9 0 1 609.62 279.04
  Q 619.73 271.13 625.87 267.55
  Q 674.91 239.01 731.23 233.80
  Q 759.98 231.15 785.15 235.55
  C 832.78 243.87 885.77 270.95 896.55 322.89
  Q 898.26 331.12 897.95 352.21
  Q 897.90 355.48 897.92 555.07
  Q 897.92 563.70 898.90 566.84
  C 901.93 576.59 910.70 582.89 920.91 582.47
  C 929.85 582.10 937.96 575.93 940.70 567.25
  Q 941.58 564.44 941.58 558.16
  Q 941.58 154.30 941.59 119.43
  Q 941.60 108.72 940.62 103.68
  C 936.81 84.15 922.22 74.16 902.72 74.36
  A 0.58 0.57 89.5 0 1 902.14 73.78
  L 902.14 62.59
  A 0.48 0.48 0.0 0 1 902.62 62.11
  L 1066.33 62.11
  A 0.51 0.51 0.0 0 1 1066.84 62.62
  Q 1066.79 370.08 1066.87 494.22
  Q 1066.88 512.94 1065.54 522.22
  C 1054.49 598.74 987.30 654.63 908.86 649.28
  C 849.10 645.20 797.99 604.60 779.15 548.13
  Z
  M 772.07 390.72
  Q 746.66 406.60 724.96 420.26
  C 703.57 433.71 693.67 464.23 690.26 487.80
  Q 687.95 503.70 688.12 519.69
  C 688.29 537.28 689.61 554.57 693.96 570.60
  C 697.07 582.05 703.24 597.52 715.28 602.17
  C 732.12 608.69 746.23 587.56 752.86 575.12
  Q 763.10 555.88 771.23 533.42
  C 772.24 530.64 772.67 528.24 772.67 525.59
  Q 772.70 448.46 772.70 391.07
  A 0.41 0.41 0.0 0 0 772.07 390.72
  Z"
/>
<path fill="#ccc4fc" d="
  M 1033.91 1062.23
  C 1030.47 1080.35 1022.13 1098.22 1008.25 1110.32
  C 989.76 1126.45 966.12 1129.41 942.06 1125.38
  C 906.83 1119.47 874.85 1098.38 852.11 1071.10
  C 814.96 1026.55 799.97 967.34 803.24 909.95
  C 807.08 842.82 842.91 774.18 901.45 738.73
  Q 921.68 726.47 942.78 721.73
  Q 964.60 716.81 982.07 719.90
  C 1002.62 723.52 1023.18 735.59 1033.73 754.14
  A 0.28 0.28 0.0 0 0 1034.25 754.01
  L 1034.25 729.56
  A 0.51 0.51 0.0 0 1 1034.76 729.05
  L 1187.81 729.05
  A 2.28 2.26 -65.2 0 0 1189.29 728.50
  Q 1236.44 687.26 1298.79 676.79
  Q 1312.97 674.40 1331.75 672.77
  Q 1383.49 668.28 1429.46 689.03
  C 1461.30 703.40 1488.41 728.50 1494.89 764.17
  Q 1496.41 772.53 1496.37 794.92
  Q 1496.28 841.39 1496.30 995.50
  Q 1496.30 1005.79 1497.72 1009.27
  C 1505.21 1027.67 1531.17 1027.49 1538.50 1008.94
  Q 1539.73 1005.82 1539.73 997.40
  Q 1539.70 809.60 1539.72 558.17
  Q 1539.72 551.38 1539.26 545.84
  C 1538.80 540.42 1539.47 534.75 1539.48 529.39
  Q 1539.59 351.61 1539.41 244.04
  A 4.00 3.94 -24.0 0 1 1540.48 241.31
  L 1658.08 114.57
  A 1.19 1.18 21.2 0 1 1658.95 114.19
  L 1663.77 114.19
  A 0.62 0.61 90.0 0 1 1664.38 114.81
  L 1664.38 241.71
  A 0.80 0.80 0.0 0 0 1665.18 242.51
  L 1727.03 242.51
  A 0.48 0.48 0.0 0 1 1727.51 242.99
  L 1727.51 256.09
  A 0.70 0.70 0.0 0 1 1726.81 256.79
  L 1664.80 256.79
  A 0.42 0.42 0.0 0 0 1664.38 257.21
  Q 1664.36 361.06 1664.38 498.74
  C 1664.38 500.61 1664.70 502.12 1665.03 503.83
  A 10.12 9.77 -51.1 0 1 1665.19 505.61
  Q 1665.14 882.52 1665.24 925.08
  Q 1665.31 951.77 1663.75 962.86
  Q 1656.58 1013.79 1618.23 1050.24
  C 1563.71 1102.06 1478.27 1103.41 1421.40 1054.33
  Q 1390.38 1027.56 1377.34 988.54
  A 0.28 0.28 0.0 0 0 1376.81 988.52
  Q 1370.45 1003.79 1363.58 1018.82
  C 1350.75 1046.85 1328.66 1068.12 1297.80 1074.80
  C 1271.74 1080.43 1241.09 1077.87 1217.91 1063.90
  C 1191.05 1047.71 1178.60 1020.54 1177.32 989.12
  Q 1176.81 976.63 1179.05 966.47
  C 1188.32 924.26 1227.35 896.16 1263.24 876.75
  C 1278.97 868.24 1293.13 861.47 1307.24 852.84
  Q 1308.77 851.91 1370.47 815.23
  A 0.69 0.68 -15.4 0 0 1370.81 814.64
  Q 1370.94 802.21 1370.75 776.02
  Q 1370.65 761.28 1365.70 747.57
  C 1356.48 722.09 1334.64 709.35 1308.75 705.84
  Q 1287.40 702.94 1271.24 705.93
  Q 1250.03 709.87 1235.43 716.51
  Q 1221.24 722.96 1206.13 735.13
  Q 1188.75 749.12 1175.98 764.47
  C 1169.31 772.49 1163.09 782.65 1161.22 792.57
  Q 1160.73 795.17 1160.73 799.49
  Q 1160.70 935.00 1160.75 1107.03
  Q 1160.75 1125.82 1159.40 1133.90
  C 1149.98 1189.96 1102.06 1234.71 1055.78 1263.25
  Q 1015.77 1287.91 972.02 1299.22
  Q 951.66 1304.48 931.06 1305.32
  A 0.54 0.54 0.0 0 1 930.49 1304.78
  L 930.49 1298.99
  A 1.38 1.37 -7.8 0 1 931.50 1297.67
  Q 959.04 1289.99 979.96 1270.19
  C 1020.01 1232.26 1033.72 1173.13 1034.18 1120.00
  Q 1034.36 1098.83 1034.25 1062.26
  A 0.17 0.17 0.0 0 0 1033.91 1062.23
  Z
  M 925.00 893.00
  C 924.50 928.19 924.72 961.03 926.17 990.65
  Q 927.60 1019.74 930.87 1042.37
  Q 933.78 1062.50 939.42 1078.32
  C 944.09 1091.39 952.25 1103.95 965.75 1107.93
  Q 986.61 1114.09 1000.84 1098.25
  Q 1009.05 1089.10 1013.77 1077.46
  Q 1021.03 1059.53 1024.68 1041.19
  Q 1030.70 1010.95 1032.55 978.25
  Q 1036.53 908.15 1031.24 837.75
  Q 1029.11 809.45 1023.20 784.29
  C 1017.21 758.76 1004.17 730.98 972.48 734.61
  C 953.65 736.77 943.96 752.33 938.59 768.65
  Q 933.12 785.31 930.34 806.59
  C 926.59 835.44 925.40 864.87 925.00 893.00
  Z
  M 1370.17 831.35
  Q 1344.78 847.22 1323.10 860.87
  C 1301.74 874.33 1291.86 904.83 1288.46 928.39
  Q 1286.16 944.27 1286.34 960.25
  C 1286.52 977.82 1287.85 995.11 1292.20 1011.12
  C 1295.31 1022.56 1301.48 1038.01 1313.51 1042.65
  C 1330.35 1049.16 1344.43 1028.04 1351.05 1015.61
  Q 1361.28 996.38 1369.39 973.93
  C 1370.40 971.16 1370.83 968.76 1370.83 966.10
  Q 1370.83 889.04 1370.80 831.69
  A 0.41 0.41 0.0 0 0 1370.17 831.35
  Z"
/>
<path fill="#ccc4fc" d="
  M 546.88 328.34
  L 500.02 328.34
  A 0.62 0.62 0.0 0 1 499.40 327.74
  C 498.07 295.70 481.67 267.32 452.92 252.42
  Q 429.23 240.13 403.31 244.03
  C 382.52 247.16 363.46 259.60 356.07 279.36
  C 348.05 300.80 356.62 325.30 374.42 338.85
  Q 379.86 343.00 392.71 348.66
  Q 442.38 370.53 506.31 398.93
  Q 514.64 402.63 523.61 409.17
  C 556.62 433.22 575.81 472.02 571.18 513.23
  Q 566.93 551.00 544.65 580.24
  C 513.13 621.60 463.86 635.93 413.76 636.95
  C 371.13 637.81 328.08 627.34 297.07 596.44
  C 275.25 574.70 261.93 544.81 259.25 514.02
  Q 258.87 509.67 258.96 506.26
  A 0.60 0.60 0.0 0 1 259.56 505.67
  L 310.71 505.67
  A 0.34 0.34 0.0 0 1 311.05 506.01
  C 311.40 542.27 322.62 580.40 350.95 604.78
  C 370.82 621.87 396.20 629.08 422.23 625.70
  C 456.67 621.22 479.94 596.19 478.51 560.49
  C 477.78 542.14 470.76 525.19 456.47 513.98
  Q 451.36 509.97 435.48 503.08
  Q 425.68 498.83 343.46 462.38
  Q 324.70 454.06 318.09 449.60
  C 283.09 425.98 268.57 382.79 274.07 342.05
  Q 278.41 309.95 298.68 283.72
  C 329.46 243.89 377.95 230.29 426.62 232.88
  C 450.68 234.16 474.21 240.00 494.78 252.18
  C 520.48 267.42 541.29 293.12 547.20 322.81
  Q 547.27 323.17 547.47 327.72
  A 0.59 0.59 0.0 0 1 546.88 328.34
  Z"
/>
<path fill="#ccc4fc" d="
  M 1985.67 595.02
  Q 1984.84 596.32 1980.92 599.68
  C 1969.75 609.24 1956.51 616.77 1942.29 623.07
  Q 1914.68 635.30 1885.52 636.84
  Q 1866.85 637.83 1845.12 634.59
  C 1783.06 625.35 1730.21 589.13 1702.88 532.18
  C 1687.56 500.28 1681.28 464.87 1682.10 429.50
  C 1683.37 374.45 1706.16 323.06 1745.98 285.24
  C 1773.22 259.38 1808.76 240.04 1846.21 234.44
  Q 1901.38 226.19 1946.91 255.82
  C 1989.67 283.65 2013.49 331.81 2015.69 382.53
  Q 2016.18 393.81 2015.99 405.12
  A 0.66 0.66 0.0 0 1 2015.33 405.77
  L 1811.05 405.77
  A 0.28 0.28 0.0 0 0 1810.77 406.05
  Q 1811.03 420.99 1811.61 430.48
  C 1813.24 456.94 1818.04 483.46 1828.26 507.92
  Q 1848.29 555.89 1893.84 577.65
  C 1921.88 591.05 1954.34 594.66 1985.41 594.56
  A 0.30 0.30 0.0 0 1 1985.67 595.02
  Z
  M 1811.41 392.87
  L 1909.99 392.87
  A 0.65 0.64 -89.5 0 0 1910.63 392.23
  C 1910.88 365.46 1910.79 337.94 1908.68 310.26
  C 1907.06 289.02 1902.19 249.84 1876.85 244.90
  C 1854.85 240.61 1838.42 254.38 1829.60 273.38
  C 1821.71 290.40 1817.45 310.00 1815.16 328.20
  Q 1811.24 359.22 1810.99 392.45
  A 0.42 0.42 0.0 0 0 1811.41 392.87
  Z"
/>
<path fill="#ccc4fc" d="
  M 1513.80 243.38
  L 1513.80 254.68
  A 0.43 0.43 0.0 0 1 1513.38 255.11
  Q 1509.27 255.22 1505.94 255.63
  C 1488.54 257.77 1478.40 268.81 1475.21 285.27
  Q 1474.35 289.73 1474.37 299.27
  Q 1474.37 300.74 1474.38 575.80
  C 1474.38 596.55 1486.37 612.67 1507.89 614.34
  Q 1513.15 614.75 1513.20 614.76
  A 0.62 0.62 0.0 0 1 1513.77 615.38
  L 1513.81 626.28
  A 0.44 0.44 0.0 0 1 1513.37 626.73
  L 1349.81 626.73
  A 0.70 0.70 0.0 0 1 1349.11 626.03
  L 1349.11 569.76
  A 0.22 0.22 0.0 0 0 1348.70 569.64
  C 1332.26 597.32 1311.34 619.77 1280.40 629.93
  C 1261.06 636.27 1240.32 637.72 1220.51 636.72
  Q 1205.68 635.97 1190.84 630.91
  C 1155.22 618.77 1134.16 587.80 1127.89 551.78
  Q 1126.29 542.60 1126.30 520.78
  Q 1126.37 358.83 1126.32 295.00
  C 1126.31 285.61 1124.10 275.46 1118.33 268.11
  C 1110.55 258.20 1100.11 255.50 1087.46 255.04
  A 0.58 0.58 0.0 0 1 1086.90 254.46
  L 1086.90 243.39
  A 0.50 0.50 0.0 0 1 1087.40 242.89
  L 1251.16 242.89
  A 0.44 0.44 0.0 0 1 1251.60 243.33
  Q 1251.56 387.66 1251.60 537.13
  Q 1251.60 539.28 1252.28 553.49
  C 1253.26 573.96 1258.54 612.13 1287.28 610.21
  C 1317.00 608.23 1336.52 567.94 1348.07 544.58
  Q 1349.18 542.34 1349.17 539.50
  Q 1349.06 508.57 1349.14 297.75
  C 1349.14 285.41 1346.66 271.70 1336.51 263.35
  C 1328.53 256.79 1320.37 255.56 1310.03 255.10
  A 0.60 0.59 -89.0 0 1 1309.46 254.50
  L 1309.46 243.26
  A 0.37 0.37 0.0 0 1 1309.83 242.89
  L 1513.31 242.89
  A 0.49 0.49 0.0 0 1 1513.80 243.38
  Z"
/>
<path fill="#ccc4fc" d="
  M 2054.05 1032.17
  L 2054.05 1036.65
  A 1.77 1.75 67.5 0 1 2053.55 1037.88
  C 2025.01 1066.38 1987.69 1082.76 1947.13 1076.36
  C 1908.33 1070.24 1881.59 1040.23 1876.35 1001.86
  A 0.31 0.31 0.0 0 0 1875.75 1001.81
  Q 1869.94 1019.70 1859.11 1035.87
  C 1837.41 1068.28 1805.23 1080.15 1766.51 1077.44
  C 1752.32 1076.45 1737.24 1072.49 1724.98 1065.51
  C 1695.83 1048.92 1682.75 1020.41 1682.06 986.92
  C 1680.93 932.72 1727.45 898.67 1770.04 875.78
  C 1785.27 867.60 1795.84 862.61 1808.72 854.95
  Q 1860.19 824.32 1875.36 815.31
  A 1.09 1.08 74.9 0 0 1875.88 814.40
  Q 1876.00 791.62 1875.80 774.27
  Q 1875.72 767.21 1873.66 757.57
  C 1866.54 724.29 1842.20 708.89 1809.43 705.10
  Q 1788.15 702.64 1767.34 707.55
  C 1750.74 711.46 1732.84 717.82 1718.73 727.56
  A 0.64 0.64 0.0 0 1 1717.86 727.42
  L 1712.49 720.47
  A 0.78 0.78 0.0 0 1 1712.63 719.38
  Q 1727.07 707.94 1744.96 699.21
  Q 1793.87 675.36 1847.99 673.26
  Q 1893.68 671.49 1935.03 690.21
  C 1965.98 704.23 1992.86 728.53 1999.94 763.14
  Q 2001.42 770.36 2001.41 790.78
  Q 2001.33 965.89 2001.38 1005.25
  C 2001.40 1021.40 2011.91 1033.98 2028.29 1034.82
  Q 2039.55 1035.40 2053.32 1031.61
  A 0.58 0.58 0.0 0 1 2054.05 1032.17
  Z
  M 1875.26 831.31
  Q 1849.83 847.21 1828.12 860.88
  C 1806.72 874.35 1796.83 904.90 1793.42 928.49
  Q 1791.12 944.40 1791.29 960.40
  C 1791.47 978.00 1792.80 995.31 1797.16 1011.35
  C 1800.27 1022.80 1806.45 1038.28 1818.50 1042.93
  C 1835.36 1049.45 1849.47 1028.30 1856.10 1015.85
  Q 1866.34 996.59 1874.47 974.11
  C 1875.48 971.33 1875.91 968.93 1875.91 966.27
  Q 1875.91 889.09 1875.89 831.66
  A 0.41 0.41 0.0 0 0 1875.26 831.31
  Z"
/>
<path fill="#fa3f20" d="
  M 1700.02 1176.72
  L 1682.41 1174.00
  A 0.59 0.58 -81.1 0 1 1681.93 1173.33
  C 1685.99 1149.13 1707.70 1137.40 1730.76 1142.40
  C 1749.94 1146.57 1761.33 1162.14 1757.27 1182.00
  C 1755.05 1192.87 1747.83 1201.21 1740.04 1208.63
  Q 1734.28 1214.12 1708.26 1238.95
  A 0.47 0.47 0.0 0 0 1708.58 1239.76
  L 1757.77 1239.76
  A 0.51 0.50 -0.0 0 1 1758.28 1240.26
  L 1758.28 1256.95
  A 0.47 0.47 0.0 0 1 1757.81 1257.42
  L 1683.28 1257.43
  A 0.44 0.44 0.0 0 1 1682.84 1256.99
  L 1682.84 1240.73
  A 2.56 2.54 68.0 0 1 1683.61 1238.90
  Q 1701.95 1220.85 1728.25 1195.11
  Q 1728.92 1194.46 1732.67 1189.77
  C 1741.96 1178.12 1739.38 1160.35 1722.74 1157.67
  C 1710.42 1155.68 1703.07 1164.94 1701.00 1176.03
  A 0.87 0.86 -80.0 0 1 1700.02 1176.72
  Z"
/>
<path fill="#fa3f20" d="
  M 1818.06 1141.28
  C 1850.39 1141.29 1858.06 1175.42 1858.06 1200.82
  C 1858.06 1226.23 1850.37 1260.36 1818.05 1260.35
  C 1785.72 1260.35 1778.04 1226.22 1778.05 1200.81
  C 1778.05 1175.41 1785.73 1141.28 1818.06 1141.28
  Z
  M 1797.91 1200.66
  C 1797.91 1212.97 1799.91 1243.82 1818.08 1243.82
  C 1836.26 1243.83 1838.27 1212.97 1838.27 1200.66
  C 1838.27 1188.35 1836.27 1157.50 1818.09 1157.50
  C 1799.92 1157.50 1797.91 1188.35 1797.91 1200.66
  Z"
/>
<path fill="#fa3f20" d="
  M 1894.87 1176.72
  L 1877.26 1174.00
  A 0.59 0.58 -81.1 0 1 1876.78 1173.33
  C 1880.85 1149.12 1902.56 1137.39 1925.62 1142.40
  C 1944.81 1146.57 1956.19 1162.15 1952.13 1182.01
  C 1949.91 1192.88 1942.69 1201.22 1934.89 1208.64
  Q 1929.13 1214.13 1903.11 1238.96
  A 0.47 0.47 0.0 0 0 1903.43 1239.77
  L 1952.62 1239.77
  A 0.51 0.50 0.0 0 1 1953.13 1240.27
  L 1953.13 1256.97
  A 0.47 0.47 0.0 0 1 1952.66 1257.44
  L 1878.12 1257.44
  A 0.44 0.44 0.0 0 1 1877.68 1257.00
  L 1877.68 1240.73
  A 2.56 2.55 68.0 0 1 1878.45 1238.90
  Q 1896.80 1220.85 1923.11 1195.11
  Q 1923.78 1194.46 1927.53 1189.77
  C 1936.82 1178.12 1934.24 1160.35 1917.60 1157.67
  C 1905.28 1155.68 1897.93 1164.94 1895.85 1176.03
  A 0.87 0.86 -80.0 0 1 1894.87 1176.72
  Z"
/>
<path fill="#fa3f20" d="
  M 2034.14 1144.26
  A 0.34 0.34 0.0 0 1 2034.42 1144.79
  L 2006.48 1185.23
  A 0.39 0.39 0.0 0 0 2006.93 1185.82
  C 2013.91 1183.45 2023.60 1183.75 2030.61 1186.52
  C 2049.12 1193.83 2057.55 1212.09 2052.71 1231.19
  Q 2047.91 1250.21 2029.19 1257.45
  C 2016.34 1262.42 1999.81 1261.06 1988.41 1253.38
  C 1975.20 1244.48 1969.42 1230.05 1971.72 1214.45
  C 1973.24 1204.20 1978.13 1195.36 1983.70 1186.71
  Q 1984.10 1186.09 2010.64 1145.00
  A 1.60 1.59 16.1 0 1 2011.99 1144.26
  L 2034.14 1144.26
  Z
  M 2011.9006 1199.4523
  A 22.30 21.83 -91.9 0 0 1990.8220 1222.4638
  A 22.30 21.83 -91.9 0 0 2013.3794 1244.0277
  A 22.30 21.83 -91.9 0 0 2034.4580 1221.0162
  A 22.30 21.83 -91.9 0 0 2011.9006 1199.4523
  Z"
/>
</svg>
